<svg width="77" height="81" viewBox="0 0 77 81" fill="none" xmlns="http://www.w3.org/2000/svg">
<g clip-path="url(#clip0_282_3171)">
<path d="M76.15 38.08C76.15 59.11 59.1 76.16 38.07 76.16C17.04 76.16 0 59.11 0 38.08C0 17.05 17.05 0 38.08 0C59.11 0 76.16 17.05 76.16 38.08H76.15Z" fill="#FFEBB7"/>
<path d="M69.5404 38.08C69.5404 55.46 55.4504 69.54 38.0804 69.54C20.7104 69.54 6.61035 55.45 6.61035 38.08C6.61035 20.71 20.7004 6.62 38.0804 6.62C55.4604 6.62 69.5404 20.71 69.5404 38.08Z" fill="#FFCD7E"/>
<path opacity="0.1" d="M38.0804 10.54C55.0404 10.54 68.8204 23.32 69.4804 39.32C69.5004 38.91 69.5404 38.5 69.5404 38.08C69.5404 20.7 55.4504 6.62 38.0804 6.62C20.7104 6.62 6.61035 20.7 6.61035 38.08C6.61035 38.5 6.66035 38.9 6.67035 39.32C7.33035 23.33 21.1104 10.54 38.0704 10.54H38.0804Z" fill="#000356"/>
<path d="M34.5396 28.34C34.5396 31.76 31.7696 34.54 28.3396 34.54C24.9096 34.54 22.1396 31.77 22.1396 28.34C22.1396 24.91 24.9096 22.14 28.3396 22.14C31.7696 22.14 34.5396 24.91 34.5396 28.34Z" fill="#000356"/>
<path d="M34.5396 47.81C34.5396 51.23 31.7696 54.01 28.3396 54.01C24.9096 54.01 22.1396 51.24 22.1396 47.81C22.1396 44.38 24.9096 41.61 28.3396 41.61C31.7696 41.61 34.5396 44.38 34.5396 47.81Z" fill="#000356"/>
<path d="M53.9996 28.34C53.9996 31.76 51.2296 34.54 47.7996 34.54C44.3696 34.54 41.5996 31.77 41.5996 28.34C41.5996 24.91 44.3696 22.14 47.7996 22.14C51.2296 22.14 53.9996 24.91 53.9996 28.34Z" fill="#000356"/>
<path d="M53.9996 47.81C53.9996 51.23 51.2296 54.01 47.7996 54.01C44.3696 54.01 41.5996 51.24 41.5996 47.81C41.5996 44.38 44.3696 41.61 47.7996 41.61C51.2296 41.61 53.9996 44.38 53.9996 47.81Z" fill="#000356"/>
</g>
<defs>
<clipPath id="clip0_282_3171">
<rect width="76.15" height="80.8" fill="white"/>
</clipPath>
</defs>
</svg>
