<svg width="255" height="215" viewBox="0 0 255 215" fill="none" xmlns="http://www.w3.org/2000/svg">
<g clip-path="url(#clip0_326_3493)">
<path d="M247.423 86.5728L182.064 29.084C176.122 23.8574 167.068 24.4375 161.841 30.3795L75.8412 128.153C70.6147 134.095 71.1947 143.149 77.1368 148.375L142.496 205.864C148.438 211.091 157.492 210.511 162.718 204.569L248.718 106.795C253.945 100.853 253.365 91.7994 247.423 86.5728Z" fill="#575EFF"/>
<path d="M240.288 87.9342L181.631 36.3403C176.199 31.5628 167.923 32.093 163.145 37.5245L83.0857 128.544C78.3082 133.976 78.8384 142.252 84.2699 147.03L142.927 198.623C148.359 203.401 156.635 202.871 161.412 197.439L241.472 106.419C246.249 100.988 245.719 92.7117 240.288 87.9342Z" stroke="#000356" stroke-width="0.91" stroke-miterlimit="10"/>
<path d="M172.713 52.1124C176.538 52.2683 179.764 49.2943 179.92 45.4697C180.076 41.6451 177.102 38.4183 173.278 38.2624C169.453 38.1065 166.226 41.0805 166.07 44.9051C165.914 48.7297 168.888 51.9565 172.713 52.1124Z" fill="#000356"/>
<path d="M232.33 104.536C236.155 104.692 239.382 101.718 239.537 97.893C239.693 94.0685 236.719 90.8417 232.895 90.6857C229.07 90.5298 225.843 93.5039 225.687 97.3284C225.532 101.153 228.506 104.38 232.33 104.536Z" fill="#000356"/>
<path d="M91.9502 143.935C95.7748 144.091 99.0016 141.116 99.1575 137.292C99.3134 133.467 96.3394 130.241 92.5148 130.085C88.6903 129.929 85.4635 132.903 85.3075 136.727C85.1516 140.552 88.1257 143.779 91.9502 143.935Z" fill="#000356"/>
<path d="M151.568 196.369C155.393 196.525 158.62 193.551 158.776 189.727C158.932 185.902 155.958 182.675 152.133 182.519C148.308 182.363 145.082 185.337 144.926 189.162C144.77 192.987 147.744 196.213 151.568 196.369Z" fill="#000356"/>
<path d="M179.758 97.6011L174.704 116.368L187.3 131.165L167.899 132.165L157.709 148.715L150.771 130.566L131.882 125.997L146.995 113.778L145.503 94.4021L161.795 105.015L179.758 97.6011Z" fill="#000356"/>
<g filter="url(#filter0_d_326_3493)">
<path d="M155.403 39.4056L75.3339 5.26342C68.0545 2.1594 59.637 5.54425 56.533 12.8237L5.45825 132.603C2.35424 139.882 5.73909 148.299 13.0185 151.403L93.0878 185.546C100.367 188.65 108.785 185.265 111.889 177.985L162.963 58.2066C166.067 50.9271 162.683 42.5097 155.403 39.4056Z" fill="#575EFF"/>
<path d="M149.054 42.9316L77.1946 12.2903C70.5406 9.453 62.8464 12.547 60.0091 19.201L12.4621 130.707C9.62479 137.361 12.7188 145.055 19.3728 147.892L91.2317 178.533C97.8857 181.371 105.58 178.277 108.417 171.623L155.964 60.1172C158.802 53.4632 155.708 45.7689 149.054 42.9316Z" stroke="#000356" stroke-width="0.91" stroke-miterlimit="10"/>
<path d="M73.6606 30.0613C77.3418 29.0122 79.4756 25.1776 78.4265 21.4964C77.3775 17.8152 73.5429 15.6815 69.8617 16.7305C66.1805 17.7796 64.0467 21.6142 65.0957 25.2954C66.1448 28.9765 69.9794 31.1103 73.6606 30.0613Z" fill="#000356"/>
<path d="M146.693 61.1894C150.374 60.1404 152.508 56.3058 151.459 52.6246C150.41 48.9434 146.575 46.8096 142.894 47.8587C139.213 48.9077 137.079 52.7423 138.128 56.4235C139.177 60.1047 143.012 62.2385 146.693 61.1894Z" fill="#000356"/>
<path d="M25.6977 142.549C29.3789 141.5 31.5127 137.665 30.4636 133.984C29.4146 130.303 25.58 128.169 21.8988 129.218C18.2176 130.267 16.0838 134.102 17.1329 137.783C18.1819 141.464 22.0165 143.598 25.6977 142.549Z" fill="#000356"/>
<path d="M98.7319 173.688C102.413 172.639 104.547 168.804 103.498 165.123C102.449 161.442 98.6141 159.308 94.933 160.357C91.2518 161.406 89.118 165.241 90.167 168.922C91.2161 172.603 95.0507 174.737 98.7319 173.688Z" fill="#000356"/>
<path d="M94.5904 71.0591L95.6637 90.4649L112.259 100.576L94.1457 107.599L89.6483 126.506L77.378 111.44L58.0078 113.013L68.5366 96.6783L61.0549 78.7431L79.8506 83.7227L94.5904 71.0591Z" fill="#000356"/>
</g>
</g>
<defs>
<filter id="filter0_d_326_3493" x="4.30664" y="4.11148" width="165.809" height="185.586" filterUnits="userSpaceOnUse" color-interpolation-filters="sRGB">
<feFlood flood-opacity="0" result="BackgroundImageFix"/>
<feColorMatrix in="SourceAlpha" type="matrix" values="0 0 0 0 0 0 0 0 0 0 0 0 0 0 0 0 0 0 127 0" result="hardAlpha"/>
<feOffset dx="6" dy="3"/>
<feComposite in2="hardAlpha" operator="out"/>
<feColorMatrix type="matrix" values="0 0 0 0 0 0 0 0 0 0 0 0 0 0 0 0 0 0 0.1 0"/>
<feBlend mode="normal" in2="BackgroundImageFix" result="effect1_dropShadow_326_3493"/>
<feBlend mode="normal" in="SourceGraphic" in2="effect1_dropShadow_326_3493" result="shape"/>
</filter>
<clipPath id="clip0_326_3493">
<rect width="255" height="215" fill="white"/>
</clipPath>
</defs>
</svg>
