<svg width="850" height="850" viewBox="0 0 850 850" fill="none" xmlns="http://www.w3.org/2000/svg">
<g clip-path="url(#clip0_172_1313)">
<path d="M254.253 84.2192L255.769 94.9725L219.329 100.105L242.834 140.751L233.45 146.193L189.879 70.8599L240.949 61.4146L242.914 72.1479L207.002 78.7876L213.465 89.9703L254.243 84.2192H254.253Z" fill="white"/>
<path d="M307.876 62.2334L307.736 73.0965L270.947 72.6172L288 116.369L277.898 120.323L246.285 39.2291L298.202 37.6715L298.511 48.5846L262.012 49.6829L266.699 61.7142L307.886 62.2434L307.876 62.2334Z" fill="white"/>
<path d="M364.341 48.6844L362.546 59.3978L326.255 53.2972L336.438 99.146L325.847 101.502L306.988 16.5244L358.527 22.9344L357.171 33.7576L320.93 29.2546L323.732 41.865L364.351 48.6844H364.341Z" fill="white"/>
<path d="M422.023 43.8919L418.633 54.2058L383.688 42.6737L386.81 89.531L375.989 90.2598L370.195 3.40472L420.168 17.5528L417.186 28.0465L382.043 18.1019L382.901 30.9919L422.023 43.8919Z" fill="white"/>
<path d="M479.775 47.7958L474.878 57.4907L442.048 40.8565L438.139 87.6639L427.329 86.7553L434.579 0L481.879 21.4667L477.361 31.4012L444.103 16.3047L443.026 29.1747L479.775 47.7858V47.7958Z" fill="white"/>
<path d="M536.33 60.4162L530.017 69.2525L500.089 47.8257L489.129 93.4948L478.578 90.9588L498.902 6.30023L542.403 34.7161L536.43 43.8419L505.843 23.863L502.832 36.4235L536.34 60.4062L536.33 60.4162Z" fill="white"/>
<path d="M590.382 81.5634L582.802 89.3313L556.495 63.5713L538.693 107.024L528.651 102.9L561.65 22.3653L600.304 57.0914L593.014 65.1988L565.839 40.7767L560.942 52.7281L590.392 81.5534L590.382 81.5634Z" fill="white"/>
<path d="M640.504 110.668L631.828 117.188L609.739 87.7237L585.545 127.961L576.25 122.36L621.088 47.7858L654.017 87.9933L645.58 94.9026L622.424 66.6265L615.772 77.6893L640.504 110.668Z" fill="white"/>
<path d="M685.671 147.052L676.107 152.184L658.725 119.714L628.727 155.828L620.39 148.879L675.977 81.9528L702.455 126.683L693.07 132.235L674.451 100.784L666.204 110.718L685.671 147.062V147.052Z" fill="white"/>
<path d="M724.833 189.805L714.611 193.44L702.315 158.723L667.231 189.895L660.031 181.768L725.062 123.987L744.499 172.203L734.387 176.266L720.724 142.359L711.071 150.936L724.843 189.795L724.833 189.805Z" fill="white"/>
<path d="M757.075 237.96L746.424 240.007L739.503 203.823L700.121 229.334L694.227 220.218L767.227 172.931L779.174 223.533L768.563 226.029L760.166 190.444L749.336 197.463L757.085 237.96H757.075Z" fill="white"/>
<path d="M781.647 290.439L770.807 290.838L769.451 254.026L726.658 273.256L722.21 263.341L801.533 227.696L805.662 279.526L794.791 280.375L791.889 243.931L780.112 249.223L781.638 290.429L781.647 290.439Z" fill="white"/>
<path d="M797.973 346.202L787.192 344.944L791.47 308.351L746.244 320.812L743.362 310.338L827.193 287.244L823.373 339.093L812.503 338.275L815.185 301.811L802.75 305.236L797.973 346.192V346.202Z" fill="white"/>
<path d="M805.611 403.733L795.15 400.848L804.933 365.333L758.341 370.764L757.084 359.971L843.448 349.917L831.79 400.588L821.169 398.122L829.366 362.487L816.551 363.985L805.602 403.733H805.611Z" fill="white"/>
<path d="M804.534 461.633L794.622 457.21L809.611 423.562L762.729 421.945L763.098 411.092L849.99 414.087L830.892 462.442L820.76 458.418L834.193 424.421L821.298 423.982L804.534 461.643V461.633Z" fill="white"/>
<path d="M794.741 518.834L785.616 512.963L805.512 481.972L759.408 473.275L761.413 462.602L846.858 478.717L820.68 523.617L811.276 518.105L829.686 486.524L817.01 484.138L794.741 518.834Z" fill="white"/>
<path d="M776.342 573.909L768.214 566.71L792.597 539.123L748.369 523.487L751.979 513.243L833.964 542.228L801.244 582.605L792.787 575.716L815.794 547.32L803.627 543.017L776.342 573.899V573.909Z" fill="white"/>
<path d="M749.795 625.479L742.864 617.122L771.156 593.578L729.819 571.383L734.945 561.808L811.565 602.954L773.081 637.869L765.771 629.772L792.827 605.22L781.458 599.11L749.785 625.469L749.795 625.479Z" fill="white"/>
<path d="M715.738 672.426L710.144 663.12L741.677 644.14L704.17 615.924L710.682 607.237L780.192 659.526L736.87 688.201L730.867 679.095L761.323 658.927L751.012 651.169L715.718 672.426H715.738Z" fill="white"/>
<path d="M675.05 713.652L670.921 703.607L704.958 689.599L672.128 656.051L679.876 648.453L740.72 710.636L693.579 732.453L689.021 722.538L722.17 707.202L713.145 697.976L675.06 713.662L675.05 713.652Z" fill="white"/>
<path d="M628.597 748.278L626.024 737.724L661.776 729.018L634.371 690.897L643.177 684.557L693.958 755.217L644.064 769.665L641.053 759.181L676.137 749.017L668.607 738.533L628.587 748.288L628.597 748.278Z" fill="white"/>
<path d="M577.357 775.506L576.42 764.682L613.079 761.507L591.778 719.662L601.441 714.73L640.933 792.28L589.434 798.979L588.048 788.156L624.269 783.443L618.405 771.931L577.377 775.496L577.357 775.506Z" fill="white"/>
<path d="M522.667 794.566L523.385 783.733L560.094 786.179L545.405 741.578L555.706 738.174L582.942 820.845L531.024 819.617L531.293 808.704L567.803 809.563L563.764 797.292L522.667 794.556V794.566Z" fill="white"/>
<path d="M465.614 805.07L467.977 794.466L503.889 802.494L496.17 756.166L506.871 754.378L521.181 840.235L470.062 831.089L471.996 820.346L507.948 826.776L505.824 814.036L465.624 805.06L465.614 805.07Z" fill="white"/>
<path d="M407.722 806.867L411.631 796.733L445.957 810.012L445.199 763.055L456.05 762.875L457.456 849.91L408.261 833.256L411.761 822.922L446.356 834.634L446.147 821.714L407.722 806.857V806.867Z" fill="white"/>
<path d="M350.27 799.878L355.675 790.462L387.578 808.814L393.96 762.286L404.711 763.764L392.883 850L346.79 826.047L351.826 816.372L384.237 833.216L385.992 820.416L350.28 799.878H350.27Z" fill="white"/>
<path d="M294.403 784.222L301.174 775.735L329.916 798.74L343.309 753.729L353.7 756.835L328.878 840.255L286.963 809.553L293.416 800.756L322.885 822.343L326.565 809.962L294.393 784.212L294.403 784.222Z" fill="white"/>
<path d="M241.658 760.249L249.646 752.901L274.538 780.029L294.623 737.585L304.426 742.237L267.188 820.895L230.438 784.152L238.157 776.444L263.996 802.284L269.521 790.612L241.648 760.259L241.658 760.249Z" fill="white"/>
<path d="M193.131 728.519L202.136 722.468L222.63 753.061L248.918 714.161L257.903 720.251L209.177 792.35L178.421 750.445L187.217 743.995L208.838 773.459L216.068 762.755L193.121 728.519H193.131Z" fill="white"/>
<path d="M149.959 689.819L159.772 685.196L175.419 718.534L207.272 684.058L215.24 691.436L156.202 755.337L132.118 709.269L141.781 704.226L158.715 736.616L167.481 727.131L149.959 689.819Z" fill="white"/>
<path d="M113.15 645.108L123.551 642.023L134.003 677.338L170.682 648.054L177.444 656.55L109.47 710.826L92.5962 661.652L102.908 658.118L114.775 692.694L124.868 684.637L113.16 645.108H113.15Z" fill="white"/>
<path d="M83.4415 595.216L94.192 593.738L99.1783 630.241L139.857 606.858L145.262 616.283L69.8587 659.616L60.624 608.445L71.3546 606.518L77.8568 642.492L89.0461 636.062L83.4514 595.206L83.4415 595.216Z" fill="white"/>
<path d="M61.681 541.429L72.5313 541.609L71.913 578.442L115.673 561.528L119.582 571.662L38.4647 603.004L37.1084 551.024L48.0085 550.755L48.9659 587.308L61.0029 582.655L61.681 541.429Z" fill="white"/>
<path d="M48.3773 484.957L59.068 486.794L52.845 523.098L98.6794 513.073L100.993 523.687L16.0459 542.268L22.6279 490.688L33.4382 492.086L28.8109 528.349L41.4164 525.594L48.3773 484.947V484.957Z" fill="white"/>
<path d="M43.7898 427.087L54.0815 430.521L42.4335 465.467L89.2551 462.512L89.9333 473.355L3.16113 478.826L17.4819 428.844L27.9532 431.869L17.8808 467.015L30.7555 466.206L43.7898 427.087Z" fill="white"/>
<path d="M47.8987 369.366L57.5622 374.299L40.8281 407.108L87.56 411.191L86.6126 422.015L0 414.446L21.6108 367.17L31.5136 371.723L16.3153 404.971L29.17 406.089L47.8887 369.366H47.8987Z" fill="white"/>
<path d="M60.7137 312.744L69.5196 319.094L47.9986 348.978L93.5736 360.121L91.0007 370.674L6.53223 350.016L35.074 306.574L44.1691 312.585L24.1041 343.137L36.6397 346.202L60.7137 312.744Z" fill="white"/>
<path d="M82.0353 258.738L89.7641 266.356L63.9448 292.596L107.286 310.578L103.127 320.612L22.8076 287.284L57.6421 248.714L65.72 256.042L41.2271 283.16L53.1445 288.103L82.0452 258.718L82.0353 258.738Z" fill="white"/>
<path d="M111.275 208.666L117.757 217.372L88.248 239.378L128.358 263.74L122.733 273.026L48.4072 227.866L88.6868 195.047L95.548 203.524L67.2256 226.608L78.2554 233.308L111.285 208.666H111.275Z" fill="white"/>
<path d="M147.765 163.576L152.861 173.171L120.37 190.454L156.331 220.607L149.36 228.934L82.7031 173.041L127.48 146.692L132.985 156.108L101.502 174.639L111.394 182.936L147.765 163.576Z" fill="white"/>
<path d="M194.048 110.898L198.276 120.902L164.379 135.25L197.538 168.468L189.859 176.146L128.398 114.572L175.319 92.2867L179.977 102.151L146.977 117.817L156.102 126.953L194.028 110.888L194.048 110.898Z" fill="white"/>
<path d="M297.574 150.706L289.796 177.934L281.488 175.557L286.864 156.607L258.571 148.539L260.925 140.252L297.584 150.706H297.574ZM302.301 187.818L299.898 196.175L263.298 185.732L271.017 158.494L279.404 160.89L273.979 179.741L302.301 187.818Z" fill="white"/>
<path d="M336.248 173.121L332.708 181.059L297.903 165.633L309.322 139.733L317.3 143.268L309.312 161.19L336.238 173.121H336.248ZM336.707 135.709L325.238 161.589L317.33 158.085L325.278 140.062L298.372 128.141L301.852 120.263L336.707 135.709Z" fill="white"/>
<path d="M371.99 163.276L367.373 170.645L335.062 150.516L349.981 126.464L357.39 131.076L346.989 147.701L371.99 163.276ZM377.655 126.294L362.686 150.317L355.346 145.744L365.727 129.01L340.746 113.454L345.293 106.135L377.655 126.294Z" fill="white"/>
<path d="M408.73 158.504L403.145 165.164L373.935 140.741L392.035 118.985L398.727 124.587L386.122 139.613L408.73 158.504ZM419.46 122.66L401.31 144.376L394.678 138.834L407.274 123.698L384.686 104.817L390.2 98.1975L419.46 122.65V122.66Z" fill="white"/>
<path d="M445.778 158.813L439.336 164.644L413.726 136.458L434.629 117.378L440.503 123.838L425.973 136.997L445.788 158.803L445.778 158.813ZM461.296 124.776L440.363 143.817L434.549 137.417L449.089 124.147L429.283 102.361L435.646 96.5601L461.296 124.786V124.776Z" fill="white"/>
<path d="M482.408 164.205L475.227 169.087L453.736 137.636L477.062 121.621L481.989 128.83L465.783 139.863L482.408 164.195V164.205ZM502.463 132.634L479.107 148.599L474.22 141.46L490.446 130.318L473.831 106.005L480.932 101.143L502.453 132.634H502.463Z" fill="white"/>
<path d="M517.97 174.649L510.181 178.483L493.278 144.346L518.598 131.745L522.478 139.573L504.896 148.24L517.98 174.659L517.97 174.649ZM542.224 146.183L516.873 158.734L513.034 150.976L530.655 142.209L517.591 115.82L525.3 111.996L542.224 146.183Z" fill="white"/>
<path d="M551.688 189.935L543.44 192.651L531.443 156.487L558.27 147.531L561.022 155.818L542.403 161.948L551.688 189.925V189.935ZM579.661 165.114L552.815 174.01L550.092 165.793L568.761 159.562L559.486 131.606L567.654 128.89L579.671 165.104L579.661 165.114Z" fill="white"/>
<path d="M582.932 209.714L574.386 211.262L567.484 173.79L595.288 168.628L596.874 177.215L577.597 180.709L582.932 209.704V209.714ZM614.057 188.996L586.233 194.099L584.667 185.592L604.014 182.007L598.679 153.042L607.146 151.485L614.057 189.006V188.996Z" fill="white"/>
<path d="M611.245 233.697L602.568 234.057L600.893 195.996L629.146 194.728L629.525 203.454L609.948 204.253L611.245 233.707V233.697ZM644.922 217.472L616.67 218.69L616.291 210.044L635.947 209.155L634.651 179.731L643.247 179.352L644.922 217.472Z" fill="white"/>
<path d="M635.967 261.314L627.32 260.476L630.891 222.544L659.053 225.17L658.236 233.867L638.729 231.97L635.967 261.324V261.314ZM671.549 249.882L643.396 247.196L644.204 238.58L663.79 240.407L666.553 211.082L675.119 211.891L671.549 249.882Z" fill="white"/>
<path d="M656.64 292.066L648.193 290.04L656.949 252.957L684.474 259.447L682.469 267.944L663.412 263.371L656.63 292.066H656.64ZM693.459 285.656L665.945 279.117L667.929 270.69L687.087 275.203L693.858 246.537L702.235 248.524L693.459 285.656Z" fill="white"/>
<path d="M672.866 325.385L664.778 322.2L678.59 286.695L704.958 296.939L701.796 305.076L683.556 297.907L672.876 325.385H672.866ZM710.213 324.147L683.876 313.843L687.007 305.775L705.347 312.904L716.017 285.457L724.035 288.582L710.203 324.137L710.213 324.147Z" fill="white"/>
<path d="M684.304 360.66L676.745 356.387L695.354 323.148L720.036 336.967L715.768 344.585L698.705 334.94L684.304 360.66ZM721.463 364.644L696.81 350.775L701.039 343.227L718.211 352.842L732.602 327.152L740.111 331.365L721.473 364.654L721.463 364.644Z" fill="white"/>
<path d="M690.737 397.143L683.846 391.861L706.883 361.539L729.411 378.662L724.125 385.611L708.568 373.69L690.737 397.153V397.143ZM726.987 406.249L704.499 389.086L709.735 382.196L725.402 394.108L743.213 370.664L750.064 375.886L726.987 406.259V406.249Z" fill="white"/>
<path d="M691.973 434.076L685.95 427.806L713.295 401.307L732.991 421.635L726.718 427.706L713.135 413.568L691.973 434.076ZM726.439 448.553L706.793 428.195L713.006 422.174L726.708 436.312L747.84 415.824L753.824 422.015L726.439 448.553Z" fill="white"/>
<path d="M688.363 471.088L683.157 464.129L713.554 441.205L730.587 463.8L723.616 469.052L711.878 453.346L688.353 471.088H688.363ZM720.784 489.709L703.791 467.075L710.692 461.863L722.549 477.588L746.045 459.866L751.221 466.745L720.784 489.7V489.709Z" fill="white"/>
<path d="M679.557 507.152L675.369 499.534L708.657 481.073L722.39 505.824L714.761 510.058L705.317 492.865L679.557 507.152ZM709.076 530.107L695.394 505.325L702.953 501.132L712.507 518.355L738.236 504.077L742.405 511.615L709.066 530.107H709.076Z" fill="white"/>
<path d="M665.865 541.539L662.773 533.412L698.306 519.753L708.468 546.182L700.32 549.307L693.35 530.965L665.855 541.529L665.865 541.539ZM691.904 568.377L681.801 541.928L689.869 538.823L696.94 557.205L724.404 546.651L727.486 554.699L691.904 568.377Z" fill="white"/>
<path d="M647.495 573.759L645.561 565.282L682.639 556.695L689.041 584.273L680.545 586.24L676.187 567.109L647.495 573.759ZM669.565 603.952L663.222 576.355L671.639 574.408L676.097 593.598L704.758 586.958L706.703 595.355L669.575 603.952H669.565Z" fill="white"/>
<path d="M624.877 603.113L624.129 594.447L662.035 591.062L664.579 619.258L655.892 620.037L654.207 600.487L624.877 603.113ZM642.579 636.062L640.086 607.856L648.692 607.087L650.467 626.707L679.767 624.091L680.535 632.677L642.569 636.072L642.579 636.062Z" fill="white"/>
<path d="M598.439 629.083L598.888 620.397L636.904 622.254L635.548 650.54L626.832 650.11L627.849 630.521L598.439 629.083ZM611.454 664.159L612.86 635.883L621.496 636.302L620.559 655.981L649.948 657.419L649.529 666.026L611.464 664.169L611.454 664.159Z" fill="white"/>
<path d="M568.681 651.159L570.327 642.622L607.724 649.701L602.498 677.528L593.932 675.9L597.632 656.63L568.691 651.149L568.681 651.159ZM576.749 687.692L582.035 659.875L590.531 661.483L586.891 680.843L615.802 686.314L614.196 694.781L576.749 687.692Z" fill="white"/>
<path d="M536.18 668.901L538.983 660.674L575.034 672.865L566.009 699.703L557.741 696.908L564.064 678.337L536.17 668.901H536.18ZM539.112 706.203L548.187 679.385L556.375 682.151L550.102 700.822L577.976 710.247L575.223 718.414L539.112 706.203Z" fill="white"/>
<path d="M499.242 719.303L511.957 694.012L519.686 697.896L510.87 715.509L537.168 728.728L533.308 736.426L499.252 719.303H499.242ZM501.515 681.961L505.435 674.203L539.451 691.296L526.786 716.617L518.988 712.693L527.833 695.19L501.515 681.961Z" fill="white"/>
<path d="M457.995 726.712L474.1 703.438L481.211 708.36L470.042 724.575L494.245 741.319L489.359 748.408L458.005 726.712H457.995ZM465.424 690.038L470.381 682.9L501.695 704.556L485.639 727.87L478.459 722.907L489.648 706.802L465.424 690.038Z" fill="white"/>
<path d="M416.08 728.349L435.237 707.521L441.6 713.382L428.306 727.9L449.967 747.829L444.143 754.169L416.08 728.349ZM428.496 693.054L434.389 686.664L462.413 712.444L443.295 733.311L436.873 727.4L450.176 712.993L428.496 693.044V693.054Z" fill="white"/>
<path d="M374.404 724.265L396.224 706.243L401.729 712.913L386.58 725.483L405.329 748.188L398.697 753.68L374.414 724.275L374.404 724.265ZM391.517 690.997L398.229 685.475L422.482 714.84L400.702 732.902L395.147 726.172L410.285 713.712L391.517 690.987V690.997Z" fill="white"/>
<path d="M333.635 714.43L357.729 699.604L362.257 706.972L345.513 717.316L360.941 742.397L353.611 746.91L333.625 714.421L333.635 714.43ZM355.186 683.858L362.596 679.325L382.551 711.765L358.477 726.632L353.91 719.193L370.624 708.959L355.186 683.848V683.858Z" fill="white"/>
<path d="M294.583 698.975L320.512 687.662L323.972 695.59L305.952 703.498L317.729 730.486L309.841 733.94L294.573 698.975H294.583ZM320.173 671.707L328.141 668.252L343.389 703.168L317.49 714.54L313.99 706.533L331.97 698.725L320.173 671.707Z" fill="white"/>
<path d="M258.043 678.237L285.288 670.639L287.612 678.976L268.664 684.297L276.582 712.663L268.295 714.98L258.033 678.237H258.043ZM287.173 654.793L295.55 652.477L305.792 689.17L278.566 696.818L276.223 688.411L295.111 683.179L287.183 654.783L287.173 654.793Z" fill="white"/>
<path d="M224.824 652.716L252.857 648.952L254.014 657.529L234.517 660.185L238.456 689.379L229.93 690.538L224.834 652.726L224.824 652.716ZM256.906 633.516L265.512 632.378L270.608 670.139L242.585 673.953L241.418 665.297L260.845 662.731L256.906 633.516Z" fill="white"/>
<path d="M195.374 622.823L223.657 622.953L223.627 631.609L203.951 631.559L203.841 661.013L195.235 660.984L195.374 622.823ZM229.79 608.225L238.476 608.285L238.337 646.386L210.054 646.306L210.084 637.57L229.68 637.7L229.79 608.215V608.225Z" fill="white"/>
<path d="M170.313 589.165L198.307 593.199L197.08 601.766L177.603 599L173.445 628.165L164.928 626.946L170.313 589.175V589.165ZM206.405 579.45L215.001 580.708L209.626 618.43L181.622 614.456L182.849 605.809L202.236 608.635L206.395 579.45H206.405Z" fill="white"/>
<path d="M150.158 552.402L177.324 560.26L174.94 568.577L156.022 563.145L147.885 591.452L139.617 589.065L150.158 552.392V552.402ZM187.237 547.759L195.574 550.186L185.053 586.799L157.867 579.001L160.281 570.604L179.099 576.085L187.247 547.749L187.237 547.759Z" fill="white"/>
<path d="M135.259 513.113L161.079 524.675L157.558 532.583L139.578 524.575L127.59 551.474L119.732 547.959L135.259 513.113ZM172.627 513.682L180.545 517.247L165.038 552.043L139.199 540.531L142.749 532.553L160.62 540.601L172.617 513.672L172.627 513.682Z" fill="white"/>
<path d="M125.975 472.147L149.929 487.193L145.342 494.532L128.657 484.098L113.05 509.069L105.76 504.497L125.985 472.157L125.975 472.147ZM162.904 477.918L170.253 482.551L150.059 514.851L126.075 499.854L130.702 492.445L147.286 502.909L162.914 477.918H162.904Z" fill="white"/>
<path d="M122.464 430.312L144.115 448.533L138.56 455.163L123.482 442.513L104.573 465.078L97.9814 459.536L122.484 430.312H122.464ZM158.236 441.145L164.868 446.756L140.405 475.941L118.725 457.759L124.329 451.07L139.298 463.73L158.226 441.145H158.236Z" fill="white"/>
<path d="M124.678 388.427L143.636 409.434L137.224 415.245L124.01 400.658L102.2 420.427L96.4258 414.037L124.678 388.427ZM158.635 404.043L164.449 410.503L136.237 436.073L117.239 415.105L123.701 409.244L136.805 423.832L158.635 404.043Z" fill="white"/>
<path d="M132.637 347.201L148.523 370.624L141.373 375.497L130.293 359.222L105.97 375.786L101.123 368.658L132.637 347.201ZM164.12 367.36L168.977 374.568L137.503 395.995L121.577 372.601L128.787 367.689L139.757 383.944L164.11 367.36H164.12Z" fill="white"/>
<path d="M146.279 307.443L158.745 332.863L150.986 336.687L142.28 319.025L115.892 332.034L112.093 324.306L146.289 307.453L146.279 307.443ZM174.651 331.795L178.461 339.613L144.314 356.447L131.799 331.056L139.627 327.202L148.234 344.835L174.651 331.815V331.795Z" fill="white"/>
<path d="M165.297 270.021L174.113 296.929L165.905 299.635L159.732 280.934L131.789 290.149L129.096 281.962L165.297 270.031V270.021ZM190.009 298.087L192.702 306.354L156.551 318.276L147.675 291.388L155.963 288.652L162.036 307.303L190.009 298.077V298.087Z" fill="white"/>
<path d="M189.271 235.604L194.288 263.471L185.781 265.018L182.251 245.639L153.3 250.9L151.764 242.424L189.261 235.614L189.271 235.604ZM209.875 266.826L211.401 275.382L173.953 282.182L168.877 254.325L177.464 252.767L180.904 272.077L209.885 266.816L209.875 266.826Z" fill="white"/>
<path d="M217.753 204.822L218.89 233.118L210.254 233.477L209.426 213.798L180.026 215.016L179.667 206.409L217.753 204.832V204.822ZM233.869 238.58L234.198 247.266L196.172 248.844L194.976 220.558L203.692 220.198L204.44 239.808L233.869 238.59V238.58Z" fill="white"/>
<path d="M257.634 176.536L254.273 204.652L245.687 203.634L247.99 184.074L218.78 180.6L219.797 172.043L257.644 176.546L257.634 176.536ZM268.185 212.43L267.138 221.067L229.341 216.574L232.652 188.457L241.318 189.486L238.945 208.966L268.185 212.44V212.43Z" fill="white"/>
<path d="M305.183 224.671L305.662 231.091L293.136 232.03L315.455 263.78L310.17 267.505L281.279 226.398L305.173 224.671H305.183Z" fill="white"/>
<path d="M336.049 210.303L335.37 216.703L322.875 215.366L339.12 250.621L333.256 253.327L312.234 207.688L336.049 210.293V210.303Z" fill="white"/>
<path d="M360.352 201.787L358.966 208.077L346.699 205.361L358.936 242.204L352.813 244.241L336.976 196.545L360.352 201.787Z" fill="white"/>
<path d="M385.483 196.016L383.409 202.106L371.521 198.042L379.579 236.024L373.266 237.371L362.835 188.208L385.483 196.026V196.016Z" fill="white"/>
<path d="M411.143 193.07L408.4 198.891L397.042 193.53L400.841 232.169L394.409 232.799L389.492 182.786L411.143 193.07Z" fill="white"/>
<path d="M436.982 193.01L433.601 198.482L422.921 191.852L422.292 230.672L415.83 230.562L416.648 180.31L436.982 193V193.01Z" fill="white"/>
<path d="M462.382 195.656L458.443 200.748L448.52 193.04L443.843 231.58L437.431 230.802L443.484 180.909L462.382 195.656Z" fill="white"/>
<path d="M487.613 201.208L483.135 205.83L474.13 197.064L465.205 234.845L458.922 233.358L470.48 184.454L487.623 201.208H487.613Z" fill="white"/>
<path d="M512.046 209.525L507.08 213.618L499.102 203.903L486.017 240.457L479.934 238.28L496.868 190.963L512.036 209.535L512.046 209.525Z" fill="white"/>
<path d="M535.293 220.458L529.907 223.972L523.056 213.429L506.003 248.304L500.199 245.459L522.268 200.319L535.293 220.458Z" fill="white"/>
<path d="M557.312 233.977L551.568 236.872L545.924 225.64L525.121 258.409L519.666 254.934L546.592 212.52L557.302 233.977H557.312Z" fill="white"/>
<path d="M577.646 249.812L571.623 252.049L567.255 240.257L542.961 270.52L537.925 266.466L569.369 227.287L577.646 249.792V249.812Z" fill="white"/>
<path d="M596.076 267.744L589.843 269.312L586.791 257.111L559.327 284.528L554.769 279.945L590.312 244.46L596.076 267.744Z" fill="white"/>
<path d="M612.471 287.663L606.099 288.532L604.413 276.071L574.096 300.294L570.067 295.242L609.3 263.89L612.461 287.663H612.471Z" fill="white"/>
<path d="M626.582 309.26L620.15 309.419L619.84 296.849L587.04 317.567L583.59 312.095L626.043 285.277L626.572 309.26H626.582Z" fill="white"/>
<path d="M638.191 332.254L631.788 331.705L632.875 319.174L597.991 336.138L595.168 330.317L640.325 308.361L638.191 332.254Z" fill="white"/>
<path d="M647.196 356.447L640.893 355.178L643.366 342.848L606.806 355.817L604.652 349.727L651.963 332.943L647.196 356.447Z" fill="white"/>
<path d="M653.439 381.438L647.316 379.481L651.145 367.499L613.379 376.326L611.913 370.025L660.799 358.603L653.449 381.438H653.439Z" fill="white"/>
<path d="M656.889 407.068L651.015 404.442L656.151 392.96L617.637 397.523L616.879 391.103L666.732 385.202L656.889 407.068Z" fill="white"/>
<path d="M657.567 432.379L651.992 429.174L658.265 418.271L619.492 418.9L619.382 412.43L669.574 411.611L657.567 432.369V432.379Z" fill="white"/>
<path d="M655.304 458.428L650.148 454.584L657.647 444.5L619.063 440.576L619.711 434.146L669.654 439.228L655.304 458.438V458.428Z" fill="white"/>
<path d="M650.277 483.769L645.58 479.376L654.157 470.18L616.241 461.993L617.607 455.672L666.672 466.266L650.277 483.759V483.769Z" fill="white"/>
<path d="M642.459 508.371L638.27 503.478L647.814 495.301L611.045 482.94L613.099 476.81L660.689 492.815L642.459 508.371Z" fill="white"/>
<path d="M631.987 531.904L628.367 526.582L638.759 519.513L603.595 503.139L606.318 497.278L651.833 518.475L631.987 531.914V531.904Z" fill="white"/>
<path d="M618.943 554.159L615.941 548.468L627.051 542.597L593.912 522.419L597.272 516.897L640.165 543.007L618.953 554.159H618.943Z" fill="white"/>
<path d="M603.525 574.847L601.172 568.857L612.86 564.254L582.154 540.541L586.103 535.419L625.854 566.111L603.535 574.847H603.525Z" fill="white"/>
<path d="M585.914 593.718L584.228 587.508L596.355 584.223L568.441 557.265L572.929 552.612L609.05 587.508L585.914 593.728V593.718Z" fill="white"/>
<path d="M566.417 610.462L565.42 604.102L577.836 602.165L553.044 572.301L558.01 568.168L590.092 606.818L566.407 610.462H566.417Z" fill="white"/>
<path d="M545.146 624.999L544.856 618.569L557.402 618.01L536.061 585.591L541.456 582.026L569.08 623.981L545.146 624.989V624.999Z" fill="white"/>
<path d="M522.358 637.101L522.786 630.681L535.322 631.519L517.69 596.933L523.445 593.998L546.262 638.768L522.358 637.111V637.101Z" fill="white"/>
<path d="M498.424 646.586L499.561 640.246L511.927 642.472L498.244 606.139L504.288 603.852L521.999 650.879L498.434 646.576L498.424 646.586Z" fill="white"/>
<path d="M473.562 653.345L475.397 647.175L487.434 650.769L477.87 613.138L484.133 611.54L496.509 660.245L473.562 653.345Z" fill="white"/>
<path d="M448.021 657.309L450.535 651.378L462.093 656.291L456.777 617.831L463.18 616.942L470.061 666.725L448.031 657.309H448.021Z" fill="white"/>
<path d="M422.382 658.418L425.523 652.796L436.483 658.947L435.406 620.137L441.868 619.957L443.255 670.199L422.382 658.418Z" fill="white"/>
<path d="M396.732 656.72L400.462 651.478L410.684 658.787L413.846 620.087L420.288 620.616L416.199 670.708L396.732 656.72Z" fill="white"/>
<path d="M371.332 652.197L375.62 647.405L384.975 655.802L392.394 617.691L398.737 618.929L389.133 668.262L371.332 652.207V652.197Z" fill="white"/>
<path d="M346.64 644.879L351.436 640.595L359.794 649.981L371.402 612.928L377.565 614.865L362.546 662.821L346.64 644.879Z" fill="white"/>
<path d="M322.885 634.834L328.13 631.11L335.39 641.364L351.048 605.839L356.961 608.445L336.697 654.424L322.885 634.824V634.834Z" fill="white"/>
<path d="M300.366 622.214L305.991 619.099L312.074 630.102L331.571 596.534L337.155 599.789L311.925 643.231L300.376 622.214H300.366Z" fill="white"/>
<path d="M279.454 607.217L285.387 604.741L290.224 616.353L313.301 585.141L318.497 588.985L288.628 629.383L279.464 607.217H279.454Z" fill="white"/>
<path d="M260.256 589.954L266.429 588.147L269.95 600.218L296.327 571.752L301.064 576.145L266.928 612.998L260.256 589.964V589.954Z" fill="white"/>
<path d="M243.153 570.774L249.486 569.655L251.67 582.036L281 556.636L285.228 561.528L247.262 594.407L243.153 570.774Z" fill="white"/>
<path d="M228.174 549.706L234.597 549.297L235.395 561.847L267.347 539.852L271.007 545.183L229.65 573.659L228.174 549.716V549.706Z" fill="white"/>
<path d="M215.648 527.161L222.071 527.461L221.482 540.021L255.669 521.69L258.72 527.391L214.472 551.114L215.658 527.151L215.648 527.161Z" fill="white"/>
<path d="M205.726 503.428L212.079 504.437L210.104 516.857L246.115 502.43L248.519 508.43L201.917 527.101L205.746 503.418L205.726 503.428Z" fill="white"/>
<path d="M198.476 478.647L204.669 480.364L201.318 492.485L238.705 482.171L240.421 488.412L192.033 501.761L198.476 478.657V478.647Z" fill="white"/>
<path d="M194.028 453.226L200.002 455.622L195.324 467.294L233.619 461.204L234.637 467.594L185.062 475.482L194.028 453.236V453.226Z" fill="white"/>
<path d="M192.403 427.486L198.077 430.521L192.143 441.604L230.887 439.777L231.196 446.237L181.054 448.603L192.413 427.486H192.403Z" fill="white"/>
<path d="M193.599 401.756L198.905 405.39L191.804 415.764L230.508 418.171L230.109 424.621L180.006 421.505L193.599 401.746V401.756Z" fill="white"/>
<path d="M197.618 376.256L202.485 380.459L194.277 389.984L232.482 396.664L231.375 403.034L181.921 394.388L197.608 376.256H197.618Z" fill="white"/>
<path d="M204.439 351.414L208.817 356.127L199.612 364.684L236.84 375.567L235.025 381.777L186.837 367.689L204.439 351.414Z" fill="white"/>
<path d="M213.973 327.461L217.803 332.633L207.701 340.112L243.492 355.069L240.999 361.039L194.676 341.679L213.973 327.461Z" fill="white"/>
<path d="M226.11 304.727L229.341 310.298L218.471 316.608L252.378 335.449L249.247 341.1L205.357 316.708L226.11 304.727Z" fill="white"/>
<path d="M240.68 283.47L243.273 289.361L231.774 294.433L263.398 316.908L259.658 322.18L218.73 293.085L240.68 283.47Z" fill="white"/>
<path d="M257.544 263.9L259.469 270.041L247.482 273.805L276.432 299.645L272.134 304.477L234.657 271.039L257.534 263.91L257.544 263.9Z" fill="white"/>
<path d="M276.432 246.347L277.679 252.668L265.352 255.084L291.291 283.949L286.484 288.272L252.917 250.9L276.442 246.337L276.432 246.347Z" fill="white"/>
</g>
<defs>
<clipPath id="clip0_172_1313">
<rect width="850" height="850" fill="white"/>
</clipPath>
</defs>
</svg>
