<svg width="237" height="237" viewBox="0 0 237 237" fill="none" xmlns="http://www.w3.org/2000/svg">
<g clip-path="url(#clip0_132_28)">
<path d="M118.496 0.000350952C53.1588 0.000350952 -0.000485771 53.1597 -0.000482685 118.504C-0.0004796 183.848 53.1588 237.007 118.496 237.007C183.834 237.007 237 183.848 237 118.504C237 53.1597 183.84 0.000350952 118.496 0.000350952ZM118.496 234.522C54.5266 234.522 2.47742 182.473 2.47742 118.504C2.47742 54.5341 54.5266 2.47826 118.496 2.47826C182.466 2.47826 234.522 54.5275 234.522 118.504C234.522 182.48 182.472 234.529 118.496 234.529L118.496 234.522Z" fill="#000356"/>
<path d="M118.496 31.4203C70.4844 31.4203 31.4194 70.4853 31.4194 118.497C31.4194 166.509 70.4844 205.574 118.496 205.574C166.508 205.574 205.573 166.509 205.573 118.497C205.573 70.4853 166.515 31.4203 118.496 31.4203ZM118.496 203.096C71.8456 203.096 33.8973 165.148 33.8973 118.497C33.8973 71.8465 71.8522 33.8982 118.496 33.8982C165.14 33.8982 203.095 71.8465 203.095 118.497C203.095 165.148 165.147 203.096 118.496 203.096Z" fill="#000356"/>
<path d="M189.728 119.739L189.728 117.261H177.233L177.233 99.3278H189.173L189.173 96.8499H174.755L174.755 117.261H121.648L158.784 82.6895L155.407 97.8212L157.826 98.3631L161.552 81.6455L174.576 95.568L185.102 85.7225L183.411 83.9119L174.695 92.0659L162.596 79.1345L171.477 70.8682L169.786 69.0577L160.905 77.324L148.502 64.0623L157.224 55.9083L155.533 54.0978L145 63.9433L158.123 77.9782H140.573L140.573 80.4561H157.548L119.739 115.656L119.739 61.6901H139.872L139.872 47.272H137.395L137.395 59.2122H119.739L119.739 47.272H117.261L117.261 59.2122H99.0498L99.0498 47.272H96.5719L96.5719 61.6901H117.261L117.261 115.656L78.3741 79.4451L91.8539 64.2473L81.0701 54.6793L79.4248 56.536L88.3584 64.4587L76.557 77.7601L67.2137 69.0577L65.5221 70.8682L74.9117 79.6103L62.912 93.143L53.9783 85.2203L52.3396 87.0704L63.1235 96.6385L76.7288 81.3019L115.351 117.261H61.6896L61.6896 96.8499H47.2715L47.2715 99.3278H59.2117L59.2117 117.261H47.2715L47.2715 119.739H59.2117L59.2117 137.673H47.2715L47.2715 140.15H61.6896L61.6896 119.739H115.351L78.46 154.086L81.7837 139.179L79.3653 138.644L75.6121 155.461L63.4142 141.32L52.4982 150.743L54.1171 152.619L63.1565 144.816L74.4095 157.859L65.5221 166.132L67.2137 167.943L76.0284 159.736L88.2065 173.843L79.1671 181.647L80.786 183.524L91.702 174.101L78.6913 159.022H96.6181L96.6181 156.544H79.4512L117.261 121.345L117.261 174.755H96.5719L96.5719 189.173H99.0498L99.0498 177.233H117.261L117.261 189.728H119.739L119.739 177.233H137.395L137.395 189.173H139.872L139.872 174.755H119.739L119.739 121.345L158.79 157.707L143.883 174.504L154.674 184.072L156.312 182.222L147.385 174.299L160.601 159.392L169.786 167.943L171.477 166.132L162.246 157.542L172.825 145.615L181.759 153.538L183.404 151.681L172.62 142.113L160.436 155.85L121.648 119.739H174.755L174.755 140.15H189.173L189.173 137.673H177.233L177.233 119.739H189.728Z" fill="#000356"/>
<path d="M18.9111 156.313L21.2371 157.159L23.4044 151.205L29.7148 153.505L30.5606 151.179L21.9243 148.034L18.9111 156.313Z" fill="#000356"/>
<path d="M22.023 161.236L16.0694 159.069L15.2236 161.395L23.5031 164.414L26.6484 155.785L24.3225 154.932L22.023 161.236Z" fill="#000356"/>
<path d="M78.546 202.245L71.8745 219.771L74.1903 220.652L80.8618 203.126L78.546 202.245Z" fill="#000356"/>
<path d="M158.836 206.545L149.651 203.043L158.73 223.315L160.99 222.304L157.812 215.208L160.211 209.717L160.263 209.736L160.296 209.651L166.329 211.421L169.494 218.492L171.754 217.481L162.517 196.865L158.83 206.545H158.836ZM156.451 212.155L154.363 207.49L157.898 208.838L156.451 212.155ZM165.001 208.448L161.188 207.331L162.715 203.334L165.008 208.448H165.001Z" fill="#000356"/>
<path d="M31.6048 84.2489C31.8031 84.3546 32.0145 84.4075 32.2259 84.4075C32.5365 84.4075 32.8405 84.2951 33.085 84.0837C33.5012 83.7269 33.6466 83.1586 33.455 82.63L30.5608 74.8923L24.1447 76.8813L22.9949 70.4453L15.5282 73.0686L15.6141 73.3131L14.5767 75.2822L31.6048 84.2489ZM29.0542 77.9517L30.0586 80.6345L26.4838 78.7512L29.0608 77.9517H29.0542ZM21.0655 73.7492L21.4884 76.1214L18.6206 74.6082L21.0655 73.7492Z" fill="#000356"/>
<path d="M210.998 76.2793L219.218 78.7902L219.945 76.4181L209.353 73.1869L206.247 83.3364L208.619 84.0632L210.998 76.2793Z" fill="#000356"/>
<path d="M117.26 10.4469L117.26 26.7284H119.738L119.738 10.7112L123.115 14.0878L124.866 12.3367L118.371 5.83469L112.133 12.0724L113.884 13.8235L117.26 10.4469Z" fill="#000356"/>
<path d="M206.723 144.042L210.641 155.605L199.051 159.491L217.725 168.788L213.787 157.165L225.317 153.299L206.729 144.042H206.723ZM205.507 159.934L211.434 157.945L213.45 163.885L205.507 159.927L205.507 159.934ZM212.987 154.813L210.998 148.938L218.855 152.85L212.987 154.813Z" fill="#000356"/>
<path d="M47.0733 175.436L30.5737 190.303L32.2323 192.147L44.2848 181.277L43.961 187.594L50.8066 187.944L38.47 199.065L40.1285 200.909L56.9122 185.784L46.5645 185.248L47.0733 175.436Z" fill="#000356"/>
<path d="M192.9 175.997L190.422 175.99L190.395 187.765L189.497 186.86L189.199 179.618L186.721 179.717L186.906 184.25L185.136 182.466L183.378 184.217L196.765 197.697L198.523 195.946L192.873 190.256L192.9 175.997Z" fill="#000356"/>
<path d="M214.58 108.242L212.432 109.478L217.48 118.266L212.445 126.638L214.566 127.914L218.895 120.724L223.507 128.759L225.654 127.524L220.355 118.293L225.641 109.498L223.52 108.222L218.941 115.835L214.58 108.242Z" fill="#000356"/>
<path d="M48.6723 56.7344L40.9412 48.8315L50.6546 48.3888L53.8527 51.6662L55.6302 49.935L42.0711 36.072L40.3002 37.8032L48.3286 46.0166L38.6153 46.4593L35.1132 42.8779L33.3423 44.6092L46.9014 58.4722L48.6723 56.7344Z" fill="#000356"/>
<path d="M167.381 28.5531L162.497 17.9146L151.647 22.6061L156.293 33.3437L167.381 28.5465L167.381 28.5531ZM161.255 21.1524L164.07 27.2844L157.581 30.0927L154.905 23.9012L161.255 21.1524Z" fill="#000356"/>
<path d="M22.0364 127.245L16.2348 121.695L22.9549 114.975L14.497 106.88L6.13818 115.239L12.7129 121.814L7.01701 127.51L8.76807 129.261L14.5366 123.492L20.3316 129.029L22.043 127.239L22.0364 127.245ZM14.4111 120.01L9.64029 115.239L14.53 110.349L19.4065 115.014L14.4111 120.01Z" fill="#000356"/>
<path d="M80.376 28.8497L85.0345 29.5568L85.4045 27.1053L78.8364 26.1075L77.2241 29.9863L72.1758 21.0195L75.9686 21.5944L78.4465 15.6541L76.1536 14.6959L74.4224 18.8522L67.5239 17.8082L77.5545 35.6293L80.376 28.8497Z" fill="#000356"/>
<path d="M125.197 216.682L116.983 208.469L116.983 221.506L116.481 222.022L116.983 222.524L116.983 230.863H119.461L119.461 225.002L123.611 229.151L125.362 227.4L119.97 222.008L125.197 216.682ZM119.461 214.449L121.708 216.696L119.461 218.982L119.461 214.449Z" fill="#000356"/>
<path d="M182.664 53.7141L193.435 53.0203L192.84 43.7827L200.419 43.3003L200.26 40.829L190.21 41.47L190.805 50.7076L182.505 51.2428L182.664 53.7141Z" fill="#000356"/>
</g>
<defs>
<clipPath id="clip0_132_28">
<rect width="237" height="237" fill="white"/>
</clipPath>
</defs>
</svg>
