<svg width="1920" height="962" viewBox="0 0 1920 962" fill="none" xmlns="http://www.w3.org/2000/svg">
<g clip-path="url(#clip0_428_175)">
<path d="M1544.02 1V613.03H375.98V1H0V961H1920V1H1544.02Z" fill="#DCE9FF"/>
<g clip-path="url(#clip1_428_175)">
<path d="M1957.61 75H1706V452.41H1957.61V75Z" fill="#1E24A6"/>
<path d="M1941.6 92.41H1722.01V434.99H1941.6V92.41Z" fill="white"/>
<path d="M1763 121C1763 121 1748.55 126.91 1743.3 161.72C1738.05 196.53 1731.48 244.83 1751.18 263.7C1770.88 282.57 1776.8 276 1814.24 206.38C1851.68 136.76 1849.71 167.63 1868.1 153.18C1886.49 138.73 1857.59 109.83 1827.38 109.83C1797.17 109.83 1763.01 121 1763.01 121H1763Z" fill="#BBAFFF"/>
<path d="M1861.44 236.6C1889.05 236.6 1911.44 213.368 1911.44 184.71C1911.44 156.052 1889.05 132.82 1861.44 132.82C1833.83 132.82 1811.44 156.052 1811.44 184.71C1811.44 213.368 1833.83 236.6 1861.44 236.6Z" fill="#9086EF"/>
<path d="M1908.86 280.54C1930.12 321.14 1915.64 370.65 1876.52 391.14C1837.4 411.63 1788.45 395.32 1767.19 354.73C1745.93 314.13 1803.38 346.68 1842.5 326.19C1881.62 305.7 1887.6 239.95 1908.85 280.54H1908.86Z" fill="#C9DCFF"/>
</g>
</g>
<g clip-path="url(#clip2_428_175)">
<path d="M1499.85 0V251.53H1170.7V0H1126.51V251.53H795.44V0H751.25V251.53H420.19V0H376V612.03H1544.04V0H1499.85ZM751.26 567.85H420.19V295.71H751.26V567.84V567.85ZM1126.52 567.85H795.44V295.71H1126.51V567.84L1126.52 567.85ZM1499.86 567.85H1170.71V295.71H1499.86V567.84V567.85Z" fill="white"/>
</g>
<g clip-path="url(#clip3_428_175)">
<path d="M636.23 1C636.23 1 408.86 540.24 359.01 586.65C309.16 633.06 274.78 604.1 274.78 604.1V1H636.23Z" fill="#BBAFFF"/>
<path d="M549.161 1C549.161 1 422.101 430.09 373.441 507.14C338.111 563.09 302.061 588.91 284.971 598.86C278.521 602.61 274.771 604.11 274.771 604.11C274.771 604.11 282.701 612.4 305.911 613.04C329.121 613.68 359.001 586.66 359.001 586.66C359.001 586.66 367.76 578.95 409.79 502.47C451.82 425.99 636.231 1 636.231 1H549.161Z" fill="#9086EF"/>
<path d="M302.181 601.77C302.181 601.77 375.581 404.98 405.361 248.61C435.141 92.24 433.301 1 433.301 1H455.511C455.511 1 409.331 327.23 371.331 443.27C333.331 559.31 302.191 601.77 302.191 601.77H302.181Z" fill="#9086EF"/>
<path d="M316.37 1C316.37 1 301.86 477.02 296.89 544.26C291.92 611.5 284.98 598.86 284.98 598.86L300.63 592.64C300.63 592.64 314.1 274.74 319.43 153.06C324.76 31.38 336.41 1 336.41 1H316.37Z" fill="#9086EF"/>
<path d="M274.78 604.11V962H470.27C470.27 962 442.07 856.09 406.82 755.37C371.57 654.65 333.93 597.19 333.93 597.19L274.78 604.11Z" fill="#9086EF"/>
<path d="M331.891 613.04C331.891 613.04 382.161 775.16 391.671 830.18C401.181 885.2 410.011 962 410.011 962L452.131 960.61C452.131 960.61 399.571 762.26 372.531 700.44C345.491 638.62 331.901 613.04 331.901 613.04H331.891Z" fill="#BBAFFF"/>
<path d="M314.91 621.64C314.91 621.64 376.81 824.95 387.49 903.07C391.18 930.05 396.03 962 396.03 962H302.05L314.91 621.64Z" fill="#BBAFFF"/>
<path d="M270.24 599.8C270.24 599.8 299.45 597.92 329.12 588.33C358.79 578.74 366.31 576.76 366.31 576.76C366.31 576.76 371.11 607.96 354.68 611.15C338.25 614.34 281.13 621.19 274.77 618C268.41 614.81 270.24 599.8 270.24 599.8Z" fill="#FFEBB7"/>
<path d="M1283.39 1C1283.39 1 1510.76 540.24 1560.61 586.65C1610.46 633.06 1644.84 604.1 1644.84 604.1V1H1283.39Z" fill="#BBAFFF"/>
<path d="M1370.46 1C1370.46 1 1497.52 430.09 1546.18 507.14C1581.51 563.09 1617.56 588.91 1634.65 598.86C1641.1 602.61 1644.85 604.11 1644.85 604.11C1644.85 604.11 1636.92 612.4 1613.71 613.04C1590.5 613.68 1560.62 586.66 1560.62 586.66C1560.62 586.66 1551.86 578.95 1509.83 502.47C1467.79 425.98 1283.39 1 1283.39 1H1370.46Z" fill="#9086EF"/>
<path d="M1617.44 601.77C1617.44 601.77 1544.04 404.98 1514.26 248.61C1484.48 92.24 1486.32 1 1486.32 1H1464.11C1464.11 1 1510.29 327.23 1548.29 443.27C1586.3 559.31 1617.43 601.77 1617.43 601.77H1617.44Z" fill="#9086EF"/>
<path d="M1603.25 1C1603.25 1 1617.76 477.02 1622.73 544.26C1627.7 611.5 1634.64 598.86 1634.64 598.86L1618.99 592.64C1618.99 592.64 1605.52 274.74 1600.19 153.06C1594.88 31.38 1583.21 1 1583.21 1H1603.25Z" fill="#9086EF"/>
<path d="M1644.84 604.11V962H1449.35C1449.35 962 1477.55 856.09 1512.8 755.37C1548.05 654.65 1585.69 597.19 1585.69 597.19L1644.84 604.11Z" fill="#9086EF"/>
<path d="M1587.73 613.04C1587.73 613.04 1537.46 775.16 1527.95 830.18C1518.44 885.2 1509.61 962 1509.61 962L1467.49 960.61C1467.49 960.61 1520.05 762.26 1547.09 700.44C1574.13 638.62 1587.72 613.04 1587.72 613.04H1587.73Z" fill="#BBAFFF"/>
<path d="M1604.71 621.64C1604.71 621.64 1542.81 824.95 1532.13 903.07C1528.44 930.05 1523.59 962 1523.59 962H1617.57L1604.71 621.64Z" fill="#BBAFFF"/>
<path d="M1649.38 599.8C1649.38 599.8 1620.17 597.92 1590.5 588.33C1560.83 578.74 1553.31 576.76 1553.31 576.76C1553.31 576.76 1548.51 607.96 1564.94 611.15C1581.37 614.35 1638.49 621.19 1644.85 618C1651.21 614.81 1649.38 599.8 1649.38 599.8Z" fill="#FFEBB7"/>
</g>
<g clip-path="url(#clip4_428_175)">
<path d="M259.19 597.4C251.32 602.03 245.13 608.41 239.96 615.85C233.25 625.5 227.4 635.64 222.73 646.44C217.68 658.12 212.68 669.82 207.72 681.54C202.3 694.34 195.71 706.53 188.42 718.34C183.7 725.98 178.22 733.06 171.59 739.17C170.18 740.47 169.53 741.78 169.6 743.75C169.8 749.29 169.79 754.85 169.87 760.39C169.8 761.14 169.65 761.89 169.67 762.63C169.81 766.89 169.64 771.14 170.33 775.42C171.03 779.74 170.98 784.18 171.25 788.57C171.32 789.7 171.25 790.85 171.43 791.96C171.53 792.61 171.51 793.46 172.58 793.84C173.2 792.65 173.85 791.45 174.46 790.24C176.83 785.5 179.69 781.04 182.64 776.67C186.51 770.94 190.64 765.4 195.08 760.08C199.75 754.47 204.39 748.83 209.54 743.67C216.2 736.98 222.81 730.23 229.8 723.87C234.63 719.47 239.23 714.8 243.52 709.82C246.31 706.58 249.14 703.38 251.7 699.95C254.41 696.33 257.1 692.69 259.8 689.06C260.11 689.37 260.42 689.69 260.73 690C260.6 690.35 260.53 690.75 260.34 691.05C253.84 701.27 246.6 710.92 238.05 719.53C234.76 722.84 231.48 726.14 228.2 729.46C220.13 737.6 211.91 745.58 204.63 754.46C198.24 762.26 192.19 770.27 186.92 778.88C182.9 785.45 179.42 792.27 176.41 799.35C175.28 802.01 174.35 804.75 173.31 807.45C172.94 808.41 172.7 809.39 172.96 810.4C173.65 813 173.49 815.65 173.57 818.29C173.6 819.16 173.41 820.07 174.09 820.8C174.62 827.93 175.15 835.05 175.69 842.18C175.73 842.68 175.85 843.17 175.94 843.66C175.61 845.67 175.75 847.68 175.97 849.68C175.94 850.42 175.75 851.19 175.91 851.88C176.72 855.41 176.38 858.98 176.47 862.54C174.54 863.67 172.43 863.21 170.37 863.28C169.65 859.93 169.8 856.52 169.75 853.13C169.73 851.74 169.7 850.36 169.67 848.97C169.68 847.97 169.57 846.95 169.74 845.99C170.07 844.16 168.88 843.62 167.56 843.1C169.38 842.62 169.38 842.62 169.32 841.36C169.21 838.97 169.1 836.59 168.96 834.2C168.83 832.07 168.68 829.94 168.49 827.81C168.44 827.31 168.52 826.61 167.45 826.42C165.89 831.81 165.6 837.29 165.46 842.79C164.94 844.83 165.14 846.89 165.25 848.95C165.28 851.41 165.03 853.91 165.41 856.32C165.78 858.66 165.82 860.96 165.81 863.29C164.44 864.19 162.92 864.04 161.4 863.93C160.35 858.97 160.6 853.89 159.87 848.9C159.88 846.83 160.16 844.75 159.62 842.7C159.7 841.34 159.84 839.97 159.85 838.61C159.89 833.37 160.47 828.2 161.59 823.09C161.73 822.89 161.96 822.7 162 822.48C162.77 818.53 163.93 814.7 165.51 811C166.36 809.01 166.87 807.02 166.11 804.81C165.76 803.79 165.96 802.57 165.92 801.44C165.87 800.19 166.01 798.89 165.73 797.69C165.05 794.83 165.22 791.95 165.19 789.07C165.17 786.94 165.13 784.8 165.11 782.67C165.11 782.04 165.06 781.42 164.59 780.92C164.57 780.8 164.55 780.67 164.54 780.54C164.51 780.16 164.47 779.79 164.46 779.41C164.35 776.01 164.15 772.61 164.15 769.21C164.13 762.53 164.22 755.86 164.27 749.18C164.27 748.68 164.25 748.17 164.23 747.67C164.23 747.55 164.22 747.39 164.15 747.33C164.07 747.26 163.91 747.29 163.78 747.27C163 747.46 163.03 748.16 162.89 748.74C160.72 757.17 159.37 765.74 158.43 774.39C157.54 782.54 157.39 790.74 157.18 798.92C156.84 812.4 156.82 825.88 156.66 839.36C156.65 840.49 156.52 841.63 157.04 842.7C156.47 843.05 156.16 843.57 156.16 844.22C156.16 845.57 156.22 846.92 156.25 848.28C156.21 853.53 156.17 858.77 156.13 864.02C150.56 864.05 145 864.07 139.43 864.1C139.42 858.8 139.41 853.5 139.4 848.2C139.45 846.42 139.5 844.65 139.55 842.87C140.31 842.2 140.21 841.29 140.2 840.41C140.18 838.9 140.34 837.59 141.37 836.23C142.76 834.4 142.42 832.06 140.76 830.43C139.85 829.54 139.43 828.72 139.44 827.52C139.46 822.36 139.46 817.2 139.44 812.04C139.44 810.87 139.77 809.88 140.39 808.87C141.32 807.35 141.39 805.71 139.82 804.49C138.89 803.78 138.69 802.92 138.7 801.87C138.72 799.86 138.7 797.84 138.7 795.83C138.7 794.2 138.62 792.62 139.79 791.18C140.55 790.24 140.42 788.94 139.4 788.12C138.43 787.35 137.83 786.53 137.95 785.27C138.07 784.05 137.55 782.7 138.61 781.68C139.69 780.64 139.46 779.69 138.54 778.75C136.79 776.97 136.65 774.97 137.91 772.93C138.58 771.86 138.61 771.07 137.56 770.39C136.73 769.85 136.48 769.12 136.41 768.17C136.31 766.83 137.12 765.8 137.38 764.63C137.65 763.39 135.75 762.81 135.72 761.43C135.71 760.93 135.74 760.42 135.66 759.92C135.33 757.7 134.97 755.49 134.59 753.28C134.56 753.09 134.24 752.94 134.06 752.77C133.89 752.3 133.63 751.85 133.56 751.37C132.2 741.38 130.08 731.53 127.91 721.69C125.66 711.48 123.2 701.33 119.74 691.45C119.03 689.43 118.4 687.39 117.31 685.52C117.52 684.19 116.86 683.04 116.41 681.9C114.26 676.51 112.68 670.94 111.18 665.34C109.43 658.77 107.94 652.15 106.57 645.5C104.67 636.27 102.67 627.05 100.87 617.8C98.9498 607.93 96.7298 598.12 95.2598 588.16C94.2098 581.08 92.8798 574.04 91.7898 566.96C90.8898 561.12 90.2198 555.25 89.3298 549.41C88.2298 542.21 87.1498 535 86.2898 527.76C85.9898 525.26 85.8298 522.75 85.4898 520.26C84.8298 515.4 84.2498 510.52 84.2098 505.62C84.1098 494.39 84.0998 483.15 84.2598 471.93C84.3298 467.54 85.0598 463.16 85.0098 458.74C85.0098 458.49 85.0698 458.24 85.0998 457.99C85.5598 454 86.0198 450 86.4798 446.01C87.1698 446.52 87.1698 447.27 87.1798 448.02C87.1998 449.13 87.2298 450.25 87.2498 451.36C87.3098 456.03 86.6998 460.67 86.5998 465.32C86.3598 476.17 86.4898 487.03 86.4798 497.88C86.4798 498.89 86.4098 499.93 86.6198 500.9C87.5698 505.37 86.9998 509.95 87.8498 514.44C88.4498 517.64 88.4098 520.96 88.8498 524.2C89.7798 531.06 90.7798 537.9 91.8698 544.74C93.3398 553.93 94.8598 563.12 96.4498 572.29C97.8698 580.47 99.2998 588.65 100.91 596.8C102.74 606.06 104.73 615.28 106.73 624.51C107.96 630.17 109.33 635.8 110.63 641.44C113.27 652.86 116.22 664.19 120.68 675.07C121.58 677.27 122.12 679.63 123.52 681.61C123.76 682.45 123.93 683.33 124.26 684.13C129.45 696.85 133.06 710.05 136.14 723.41C138.37 733.08 140.59 742.76 141.99 752.6C142.61 756.95 143.35 761.29 144.03 765.63C143.95 767.5 143.86 769.36 144.66 771.12C144.71 771.81 144.77 772.5 144.82 773.19C144.82 773.69 144.82 774.19 144.83 774.69C144.57 777.76 145.58 780.71 145.64 783.75C145.48 784.83 145.38 785.9 146 787.14C146.41 785.91 146.46 784.86 146.22 783.79C146.55 779.17 146.3 774.55 146.06 769.93C146.04 769.45 145.78 768.99 145.63 768.52C145.57 766.8 145.52 765.09 145.46 763.37C145.68 757.08 145.41 750.8 145.21 744.53C145.2 744.17 144.99 743.82 144.87 743.47C144.89 742.47 144.94 741.46 144.93 740.46C144.83 733.54 144.48 726.64 144.16 719.73C143.64 708.68 143.38 697.62 143.03 686.56C142.95 683.92 142.85 681.28 142.38 678.68C143 672.36 141.37 666.14 141.61 659.84C141.61 659.72 141.59 659.58 141.55 659.47C140.86 657.78 141.04 655.99 140.98 654.24C140.94 653.23 141.08 652.16 140.78 651.23C140.23 649.5 140.28 647.75 140.22 645.99C140.19 645.11 140.33 644.17 140.09 643.35C139.31 640.75 139.54 638.1 139.45 635.46C139.42 634.58 139.58 633.64 139.34 632.82C138.5 629.97 138.8 627.06 138.69 624.18C138.65 623.17 138.82 622.1 138.53 621.17C137.85 618.94 138 616.67 137.97 614.41C137.93 611.26 137.93 608.1 137.91 604.94C137.91 604.06 138.04 603.12 137.79 602.3C137.07 599.95 137.26 597.55 137.25 595.16C137.23 591.37 137.25 587.59 137.26 583.8C137.26 582.92 137.12 581.98 137.36 581.16C138.12 578.56 137.88 575.9 137.91 573.27C137.96 568.47 137.96 563.68 137.99 558.88C137.99 557.87 137.87 556.8 138.16 555.87C138.74 554.01 138.77 552.13 138.68 550.25C138.42 544.82 139.79 539.47 139.54 534.04C139.52 533.67 139.64 533.29 139.68 532.92C140.11 528.8 140.76 524.7 140.92 520.57C141.07 516.79 142.09 513.1 141.85 509.3C141.85 509.18 141.87 509.05 141.9 508.93C142.91 505.78 142.76 502.45 143.08 499.23C143.45 495.49 144.35 491.77 144.07 487.97C144.04 487.6 144.1 487.21 144.19 486.84C145.16 482.91 145 478.85 145.4 474.86C145.85 470.37 146.7 465.88 146.35 461.32C146.33 461.07 146.35 460.8 146.43 460.57C147.22 458.37 146.99 456.08 147.04 453.82C147.09 451.8 146.82 449.72 147.25 447.78C147.8 445.27 147.72 442.77 147.8 440.26C147.86 438.24 147.58 436.16 147.99 434.22C148.56 431.58 148.5 428.96 148.53 426.32C148.58 422.03 148.58 417.74 148.61 413.45C149.49 412.67 149.3 411.61 149.3 410.62C149.32 406.21 149.32 401.79 149.36 397.38C149.36 396.67 149.1 395.89 149.74 395.27C150.33 396.07 150.06 396.98 150.07 397.84C150.1 403.77 150.09 409.69 150.12 415.62C150.12 416.87 150.1 418.12 150.42 419.37C151.24 422.59 151.09 425.92 150.63 429.13C150.31 431.39 150.13 433.61 150.11 435.87C150.08 439.78 150.1 443.69 150.07 447.6C150.07 448.61 150.21 449.69 149.88 450.6C149.23 452.45 149.37 454.33 149.33 456.21C149.28 458.73 149.62 461.32 149.14 463.75C148.62 466.39 148.61 468.99 148.57 471.63C148.49 476.03 147.42 480.36 147.75 484.78C147.77 485.02 147.72 485.3 147.63 485.52C146.88 487.2 147.1 488.99 147.06 490.74C147.03 491.87 147.24 493.08 146.92 494.13C146.16 496.61 146.37 499.12 146.29 501.62C146.26 502.5 146.41 503.45 146.12 504.25C145.46 506.09 145.57 507.97 145.53 509.86C145.51 510.74 145.66 511.69 145.38 512.49C144.65 514.58 144.83 516.72 144.77 518.85C144.75 519.73 144.91 520.68 144.63 521.48C143.82 523.82 144.08 526.21 144.01 528.6C143.98 529.61 144.2 530.68 143.93 531.61C142.89 535.21 143.38 538.87 143.25 542.5C143.19 544.13 143.25 545.75 142.72 547.36C142.41 548.28 142.52 549.35 142.52 550.36C142.51 569.4 142.51 588.44 142.52 607.49C142.52 608.61 142.54 609.78 142.83 610.85C143.17 612.1 143.21 613.33 143.25 614.59C143.36 617.97 142.9 621.4 143.95 624.72C144.1 625.18 144.04 625.73 144 626.23C143.68 629.9 144.57 633.5 144.96 637.09C145.44 641.42 145.91 645.79 146.85 650.09C147.27 652.01 147.69 654 147.82 656.02C147.98 658.52 148.32 661.01 148.72 663.48C149.31 667.19 150.01 670.88 150.08 674.65C150.08 675.15 150.03 675.7 150.21 676.15C151.02 678.22 150.8 680.37 150.83 682.5C150.85 684.27 150.83 686.03 150.83 687.8C150.83 688.56 150.86 689.32 151.49 689.88C151.71 694 152.05 698.11 152.14 702.23C152.31 709.98 152.34 717.73 152.43 725.48C152.36 726.73 152.23 727.98 152.23 729.23C152.27 739.92 152.33 750.61 152.4 761.3C152.42 764.95 152.49 768.59 152.56 772.24C152.57 772.96 152.44 773.8 153.4 774.16C154 773.13 153.97 772.02 153.8 770.9C155.11 763.21 156.36 755.51 158.9 748.09C159.26 747.03 159.38 745.88 159.5 744.75C159.98 740.37 160.36 735.98 160.88 731.61C161.94 722.61 163.16 713.63 164.1 704.62C164.58 700 165.33 695.38 165.07 690.7C165.42 687.07 165.54 683.42 165.8 679.78C166.22 674 166.64 668.24 167.39 662.49C168.28 655.63 168.92 648.74 169.92 641.9C171.32 632.32 173.46 622.86 175.51 613.4C177 606.51 178.69 599.67 180.21 592.79C182.84 580.88 185.41 568.95 187.98 557.02C189.79 548.66 191.61 540.31 193.34 531.93C195.09 523.43 196.74 514.91 198.43 506.4C199.78 499.62 201.09 492.82 202.51 486.05C203.26 482.48 204.08 478.93 205.36 475.5C206.29 476.05 206.06 476.99 206.16 477.82C205.9 479.17 205.64 480.52 205.38 481.87C204.42 486.78 203.36 491.67 202.54 496.61C201.95 500.18 200.97 503.7 200.89 507.35C200.38 510.05 199.79 512.73 199.38 515.45C197.98 524.84 196.08 534.13 194.25 543.44C193.55 546.98 192.44 550.47 192.41 554.13C191.92 554.57 191.76 555.12 191.85 555.76C191.78 556.48 191.72 557.2 191.65 557.92C191.19 558.4 191.09 559.01 190.97 559.64C189.5 567.03 188.03 574.42 186.51 581.81C185.29 587.72 183.95 593.6 182.74 599.51C180.72 609.35 178.68 619.2 176.82 629.07C176.1 632.89 175.19 636.7 175.02 640.61C173.97 641.61 174.27 642.93 174.33 644.11C174.39 645.29 173.29 646.32 173.97 647.84C175.15 646.2 175.54 644.55 175.81 642.86C180.04 629 185.52 615.66 192.69 603.05C196.04 597.15 199.45 591.29 203.86 586.09C204.27 585.81 204.73 585.57 205.09 585.24C210.07 580.74 215.47 576.89 221.64 574.16C230.18 570.39 238.5 570.64 246.5 575.64C248.09 576.63 249.69 577.76 250.9 579.16C254.21 582.97 257.09 587.1 258.63 591.98C259.18 593.71 260.17 595.47 259.24 597.4H259.19Z" fill="#EDB357"/>
<path d="M151.45 689.85C150.82 689.29 150.79 688.53 150.79 687.77C150.79 686 150.81 684.24 150.79 682.47C150.76 680.34 150.98 678.18 150.17 676.12C150 675.67 150.05 675.12 150.04 674.62C149.97 670.85 149.27 667.16 148.68 663.45C148.29 660.98 147.95 658.48 147.78 655.99C147.65 653.97 147.23 651.98 146.81 650.06C145.87 645.76 145.39 641.39 144.92 637.06C144.52 633.47 143.63 629.87 143.96 626.2C144 625.7 144.06 625.16 143.91 624.69C142.86 621.36 143.31 617.94 143.21 614.56C143.17 613.3 143.13 612.07 142.79 610.82C142.5 609.75 142.48 608.58 142.48 607.46C142.46 588.42 142.47 569.38 142.48 550.33C142.48 549.32 142.38 548.25 142.68 547.33C143.22 545.72 143.16 544.11 143.21 542.47C143.33 538.84 142.85 535.17 143.89 531.58C144.16 530.65 143.94 529.57 143.97 528.57C144.03 526.19 143.78 523.79 144.59 521.45C144.86 520.65 144.7 519.7 144.73 518.82C144.78 516.69 144.61 514.55 145.34 512.46C145.62 511.66 145.47 510.71 145.49 509.83C145.53 507.95 145.42 506.07 146.08 504.22C146.36 503.43 146.22 502.47 146.25 501.59C146.33 499.08 146.11 496.57 146.88 494.1C147.2 493.06 146.99 491.85 147.02 490.71C147.07 488.95 146.85 487.17 147.59 485.49C147.69 485.27 147.73 484.99 147.71 484.75C147.38 480.33 148.45 476 148.53 471.6C148.58 468.97 148.58 466.36 149.1 463.72C149.58 461.29 149.24 458.7 149.29 456.18C149.33 454.3 149.18 452.42 149.84 450.57C150.16 449.66 150.02 448.57 150.03 447.57C150.05 443.66 150.03 439.75 150.07 435.84C150.09 433.58 150.26 431.36 150.59 429.1C151.05 425.89 151.19 422.56 150.38 419.34C150.06 418.09 150.09 416.84 150.08 415.59C150.06 409.66 150.07 403.74 150.03 397.81C150.03 396.96 150.29 396.04 149.7 395.24C149.06 395.86 149.33 396.64 149.32 397.35C149.28 401.76 149.29 406.18 149.26 410.59C149.26 411.58 149.44 412.63 148.56 413.42C148.55 410.15 148.6 406.88 148.51 403.62C148.38 399 149.04 394.33 147.82 389.75C147.63 389.04 147.78 388.25 147.77 387.49C147.75 385.98 147.73 384.48 147.7 382.97C147.7 382.31 147.88 381.73 148.42 381.31C148.86 380.97 149.39 380.85 149.78 381.26C150.29 381.8 150.82 382.39 151.09 383.06C151.8 384.81 152.44 386.59 152.98 388.39C154.78 394.42 156.5 400.48 158.29 406.52C160.8 414.98 162.49 423.64 164.39 432.25C167.36 445.66 169.59 459.21 171.44 472.82C173.92 491.08 175.61 509.39 175.28 527.84C175.21 532.13 175.03 536.41 174.9 540.69C174.11 541.52 174.24 542.59 174.31 543.56C174.61 547.8 173.46 551.75 172.15 555.72C169.31 564.32 166.28 572.84 163.13 581.33C159.9 590.05 157.31 598.99 155.48 608.12C153.9 616 152.72 623.95 152.99 632.04C153.09 635.06 153.11 638.09 153.02 641.11C152.93 644.41 153.68 647.6 154.1 650.83C154.55 654.31 155.43 657.73 155.48 661.26C155.04 663.72 154.57 666.18 154.17 668.65C153.03 675.68 151.71 682.7 151.43 689.84L151.45 689.85Z" fill="#FFCD7E"/>
<path d="M123.48 681.6C122.09 679.61 121.54 677.26 120.64 675.06C116.18 664.18 113.24 652.85 110.59 641.43C109.29 635.79 107.91 630.16 106.69 624.5C104.69 615.28 102.7 606.05 100.87 596.79C99.2602 588.65 97.8302 580.47 96.4102 572.28C94.8202 563.11 93.2902 553.92 91.8302 544.73C90.7402 537.9 89.7402 531.05 88.8102 524.19C88.3702 520.95 88.4102 517.63 87.8102 514.43C86.9602 509.94 87.5302 505.35 86.5802 500.89C86.3702 499.92 86.4402 498.88 86.4402 497.87C86.4402 487.02 86.3202 476.16 86.5602 465.31C86.6602 460.66 87.2702 456.02 87.2102 451.35C87.6502 450.86 87.8402 450.26 87.8202 449.62C87.6802 444.84 88.4902 440.12 88.7702 435.37C89.6802 434.45 89.4102 433.28 89.4202 432.19C89.4602 429.21 89.0102 426.14 89.5802 423.26C90.1402 420.4 90.0002 417.58 90.2602 414.76C91.2702 416.14 91.3302 417.83 91.5802 419.41C92.4602 424.99 93.1602 430.61 94.0202 436.19C96.7502 453.95 99.4902 471.71 103.89 489.15C106.38 499.02 109.29 508.78 112.01 518.59C113.14 522.65 114.27 526.7 115.5 531.11C115.94 529.96 116.25 529.17 116.55 528.38C116.6 529.01 116.81 529.67 116.67 530.25C116.1 532.78 116.58 535.15 117.28 537.6C118.93 543.4 120.3 549.26 121.44 555.19C122.27 559.5 123.07 563.8 123.62 568.17C124.18 572.65 125.06 577.09 125.04 581.63C125.04 581.88 125.01 582.15 125.08 582.38C126.17 585.83 125.64 589.39 125.8 592.9C125.85 594.03 125.77 595.21 126.07 596.27C126.46 597.64 126.51 599 126.51 600.39C126.51 610.11 126.51 619.83 126.51 629.55C126.51 630.81 126.34 632.04 126.12 633.29C125.6 636.27 125.41 639.29 126.43 642.24C126.21 642.54 125.85 642.81 125.8 643.13C125.54 645.13 125.25 647.13 125.14 649.13C124.76 656.3 124.46 663.47 124.1 670.65C123.92 674.29 123.67 677.93 123.46 681.57L123.48 681.6Z" fill="#FFEBB7"/>
<path d="M126.45 642.26C125.43 639.31 125.62 636.29 126.14 633.31C126.36 632.06 126.53 630.83 126.53 629.57C126.53 619.85 126.53 610.13 126.53 600.41C126.53 599.02 126.48 597.66 126.09 596.29C125.79 595.22 125.87 594.05 125.82 592.92C125.66 589.41 126.19 585.85 125.1 582.4C125.03 582.17 125.06 581.9 125.06 581.65C125.08 577.11 124.2 572.67 123.64 568.19C123.09 563.82 122.29 559.53 121.46 555.21C120.32 549.28 118.94 543.42 117.3 537.62C116.61 535.17 116.13 532.8 116.69 530.27C116.82 529.68 116.62 529.02 116.57 528.4C116.89 520.83 118.02 513.34 119.43 505.92C122.95 487.34 127.59 469.02 132.22 450.7C135.86 436.29 139.76 421.94 142.78 407.37C144.31 399.97 145.62 392.52 147.02 385.1C147.16 384.36 147.15 383.58 147.71 382.99C147.73 384.5 147.76 386 147.78 387.51C147.79 388.26 147.64 389.06 147.83 389.77C149.05 394.35 148.4 399.01 148.52 403.64C148.61 406.91 148.56 410.18 148.57 413.44C148.55 417.73 148.55 422.02 148.5 426.31C148.47 428.95 148.53 431.57 147.96 434.21C147.54 436.15 147.83 438.23 147.77 440.25C147.7 442.76 147.77 445.25 147.22 447.77C146.79 449.7 147.06 451.79 147.01 453.81C146.95 456.07 147.19 458.36 146.4 460.56C146.32 460.79 146.3 461.06 146.32 461.31C146.66 465.87 145.81 470.36 145.37 474.85C144.97 478.84 145.13 482.9 144.16 486.83C144.07 487.19 144.01 487.58 144.04 487.96C144.31 491.76 143.42 495.49 143.05 499.22C142.73 502.44 142.88 505.77 141.87 508.92C141.83 509.04 141.81 509.17 141.82 509.29C142.06 513.09 141.03 516.78 140.89 520.56C140.73 524.69 140.09 528.8 139.65 532.91C139.61 533.29 139.5 533.66 139.51 534.03C139.76 539.46 138.39 544.8 138.65 550.24C138.74 552.12 138.71 554 138.13 555.86C137.84 556.79 137.97 557.86 137.96 558.87C137.93 563.67 137.93 568.46 137.88 573.26C137.85 575.9 138.09 578.55 137.33 581.15C137.09 581.97 137.23 582.91 137.23 583.79C137.22 587.58 137.2 591.36 137.22 595.15C137.23 597.54 137.04 599.93 137.76 602.29C138.01 603.1 137.87 604.04 137.88 604.93C137.91 608.09 137.9 611.24 137.94 614.4C137.97 616.66 137.82 618.92 138.5 621.16C138.78 622.09 138.62 623.16 138.66 624.17C138.77 627.06 138.47 629.97 139.31 632.81C139.55 633.63 139.39 634.57 139.42 635.45C139.51 638.09 139.28 640.74 140.06 643.34C140.31 644.16 140.16 645.09 140.19 645.98C140.24 647.74 140.19 649.49 140.75 651.22C141.05 652.15 140.91 653.22 140.95 654.23C141.01 655.99 140.83 657.77 141.52 659.46C141.57 659.57 141.59 659.71 141.58 659.83C141.34 666.13 142.97 672.36 142.35 678.67C141.97 678.04 141.51 677.44 141.21 676.77C138.53 670.85 135.83 664.92 133.21 658.97C130.79 653.48 128.29 648.02 126.45 642.29V642.26Z" fill="#FFEBB7"/>
<path d="M155.499 661.26C155.449 657.73 154.569 654.31 154.119 650.83C153.699 647.6 152.949 644.41 153.039 641.11C153.129 638.09 153.109 635.06 153.009 632.04C152.739 623.95 153.919 616 155.499 608.12C157.329 599 159.909 590.05 163.149 581.33C166.299 572.84 169.329 564.31 172.169 555.72C173.479 551.75 174.629 547.81 174.329 543.56C174.259 542.59 174.129 541.52 174.919 540.69C175.039 541.68 175.149 542.66 175.359 544.41C176.859 538.5 178.259 533.33 179.489 528.13C183.509 511.18 188.979 494.7 195.629 478.62C198.659 471.28 202.399 464.26 206.489 457.44C206.739 457.02 207.149 456.7 207.489 456.33C207.809 458.26 208.289 460.17 207.659 462.16C207.439 462.86 207.659 463.66 208.399 464.12C208.359 464.37 208.319 464.63 208.279 464.88C207.719 465.25 207.609 465.8 207.639 466.41C207.599 468.08 206.789 469.54 206.379 471.11C205.999 472.55 205.219 473.9 205.329 475.47C204.049 478.9 203.219 482.45 202.479 486.02C201.059 492.79 199.749 499.58 198.399 506.37C196.709 514.88 195.059 523.4 193.309 531.9C191.579 540.28 189.759 548.63 187.949 556.99C185.369 568.92 182.799 580.84 180.179 592.76C178.659 599.64 176.969 606.48 175.479 613.37C173.439 622.83 171.299 632.29 169.889 641.87C168.889 648.71 168.249 655.61 167.359 662.46C166.609 668.21 166.189 673.97 165.769 679.75C165.509 683.39 165.389 687.04 165.039 690.67C164.889 690.47 164.669 690.3 164.599 690.08C161.909 681.52 158.759 673.11 156.749 664.34C156.499 663.27 156.289 662.13 155.509 661.25L155.499 661.26Z" fill="#FFEBB7"/>
<path d="M14.2795 484.06C14.1095 483.74 13.8495 483.43 13.7795 483.08C13.6695 482.6 13.6495 482.05 14.1595 481.74C14.6295 481.45 15.1595 481.49 15.5495 481.86C16.4495 482.73 17.3395 483.62 18.1695 484.56C25.5495 492.98 32.3695 501.84 39.4295 510.52C46.5695 519.3 53.4295 528.28 59.6595 537.74C60.0695 538.36 60.3795 539.05 60.7395 539.71C60.8495 540.37 61.2195 540.87 61.6995 541.29C63.1495 542.55 64.0795 544.22 65.0895 545.8C66.9795 548.76 68.8395 551.76 70.5895 554.81C72.7095 558.52 74.8195 562.25 76.7095 566.08C78.2695 569.23 79.4495 572.56 80.8995 575.77C83.5895 581.74 85.7195 587.92 87.8795 594.08C89.4895 598.7 90.6795 603.46 92.1395 608.14C95.2895 618.21 97.8895 628.41 100.29 638.68C102.28 647.23 104.46 655.73 106.54 664.26C107.46 668.04 108.33 671.83 109.22 675.61C109.25 676.17 109.29 676.72 109.9 677C109.94 677.49 109.98 677.98 110.02 678.46C109.85 679.11 109.99 679.68 110.51 680.12C111.41 683.87 112.33 687.62 113.2 691.37C113.9 694.39 115.07 697.31 115.32 700.43C114.98 700.08 114.53 699.79 114.31 699.37C111.86 694.82 109.44 690.25 107.01 685.7C106.42 684.59 105.73 683.53 105.16 682.41C102.71 677.57 100.15 672.79 97.9095 667.86C95.1495 661.79 92.6595 655.6 90.0695 649.45C87.0795 642.38 84.0995 635.3 81.1295 628.22C78.8395 622.77 76.6895 617.25 74.2395 611.87C71.2095 605.22 67.9495 598.67 64.7795 592.09C64.0095 590.5 63.1995 588.93 62.4695 587.32C60.4295 582.85 58.5295 578.32 56.3895 573.91C53.1995 567.34 49.9995 560.77 47.2095 554.01C45.4295 549.7 43.4895 545.47 41.6395 541.19C40.3395 538.19 39.0795 535.17 37.7795 532.17C35.8195 527.67 33.8495 523.17 31.8795 518.68C29.7095 511.99 27.3395 505.37 24.2695 499.02C23.9795 498.47 23.8095 497.79 23.3795 497.39C21.5695 495.72 20.6095 493.53 19.8595 491.31C18.8395 488.3 17.1195 485.71 15.1995 483.29C14.4395 482.33 14.6195 483.8 14.2895 484.07L14.2795 484.06Z" fill="#FFEBB7"/>
<path d="M100.51 767.24C92.3197 761.44 85.0997 754.66 79.1197 746.57C71.5397 736.32 65.5597 725.3 62.4897 712.85C60.7697 705.87 59.2797 698.84 57.6097 691.86C55.8197 684.36 53.7097 676.97 50.0397 670.13C48.4297 667.12 46.6997 664.18 44.4697 661.58C41.5797 658.21 38.3997 655.17 34.2197 653.41C29.1997 648.35 23.5597 644.52 16.2697 643.47C13.1997 643.03 10.3597 643.58 7.47969 644.34C5.48969 644.87 4.10969 646.42 2.42969 647.48C4.42969 639.63 8.55969 633.04 14.4897 627.61C17.2397 625.09 20.1597 622.72 23.5697 621.08C24.6997 622.07 25.9597 621.65 27.1597 621.35C30.9897 620.41 34.7697 621.08 38.2697 622.38C43.5297 624.33 48.0797 627.64 51.5897 632.06C57.2497 639.18 62.2197 646.72 65.3997 655.36C67.6697 661.51 70.0197 667.6 71.4497 674.02C72.6797 679.54 74.0797 685.02 75.4097 690.52C77.0997 697.49 79.0297 704.39 80.9497 711.3C83.7197 721.26 87.1997 730.97 90.6797 740.69C93.8597 749.57 97.2197 758.39 100.5 767.24H100.51Z" fill="#FFEBB7"/>
<path d="M174.1 820.81C173.42 820.08 173.61 819.17 173.58 818.3C173.5 815.66 173.65 813.01 172.97 810.41C172.7 809.4 172.95 808.42 173.32 807.46C174.36 804.76 175.29 802.02 176.42 799.36C179.42 792.28 182.91 785.46 186.93 778.89C192.2 770.28 198.25 762.27 204.64 754.47C211.92 745.58 220.14 737.6 228.21 729.47C231.49 726.16 234.78 722.85 238.06 719.54C246.62 710.93 253.85 701.28 260.35 691.06C260.55 690.75 260.62 690.36 260.74 690C261.24 689.44 261.75 688.89 262.25 688.33C262.46 688.08 262.68 687.83 262.89 687.57C263.13 687.31 263.38 687.04 263.62 686.77L263.57 686.72C264.9 687.23 265.02 688.53 265.52 689.6C265.76 690.11 266.3 690.72 266.78 690.79C267.19 690.85 267.7 690.2 268.17 689.86C267.52 694.48 266.33 698.98 265.12 703.46C263.08 711 260.8 718.46 257.62 725.63C253.71 734.44 248.73 742.59 242.98 750.28C237.4 757.75 231.65 765.1 225.45 772.08C220.5 777.65 215.13 782.81 209.26 787.4C199.83 794.79 190.65 802.47 181.85 810.6C179.91 812.4 178.13 814.37 176.18 816.15C174.78 817.43 174.12 818.94 174.11 820.79L174.1 820.81Z" fill="#FFEBB7"/>
<path d="M109.209 675.6C108.319 671.82 107.449 668.03 106.529 664.25C104.449 655.72 102.269 647.22 100.279 638.67C97.8895 628.4 95.2795 618.2 92.1295 608.13C90.6695 603.46 89.4895 598.69 87.8695 594.07C85.7095 587.91 83.5795 581.72 80.8895 575.76C79.4395 572.55 78.2595 569.22 76.6995 566.07C74.8095 562.24 72.6995 558.51 70.5795 554.8C68.8395 551.75 66.9795 548.75 65.0795 545.79C64.0695 544.21 63.1395 542.54 61.6895 541.28C61.2095 540.86 60.8295 540.36 60.7295 539.7C61.0695 539.56 61.5995 539.51 61.6995 539.27C61.8995 538.84 61.8895 538.29 61.8895 537.79C61.8995 530.35 62.2095 522.93 62.9195 515.52C63.6695 507.73 65.1195 500.08 67.0195 492.5C71.3995 475.04 76.3295 457.73 81.5095 440.49C83.7195 433.14 85.6395 425.7 87.3095 418.2C87.6095 416.86 88.0795 415.55 88.5595 414.26C88.6595 413.99 89.1195 413.68 89.4095 413.69C89.9895 413.71 90.1795 414.23 90.2495 414.75C89.9895 417.58 90.1395 420.4 89.5695 423.25C88.9995 426.12 89.4495 429.19 89.4095 432.18C89.3995 433.27 89.6695 434.44 88.7595 435.36C88.4795 433.63 88.9795 431.82 88.2395 430.11C87.7195 433.18 87.4295 436.26 87.0795 439.33C86.8295 441.55 86.1095 443.72 86.4295 445.99C85.9695 449.98 85.5095 453.98 85.0495 457.97C85.0195 458.22 84.9495 458.47 84.9595 458.72C85.0095 463.14 84.2795 467.52 84.2095 471.91C84.0395 483.14 84.0595 494.37 84.1595 505.6C84.1995 510.5 84.7795 515.38 85.4395 520.24C85.7795 522.73 85.9495 525.24 86.2395 527.74C87.0995 534.98 88.1795 542.18 89.2795 549.39C90.1695 555.23 90.8395 561.1 91.7395 566.94C92.8295 574.02 94.1595 581.06 95.2095 588.14C96.6795 598.1 98.8995 607.91 100.819 617.78C102.619 627.03 104.619 636.25 106.519 645.48C107.889 652.13 109.379 658.76 111.129 665.32C112.619 670.92 114.199 676.49 116.359 681.88C116.809 683.02 117.479 684.17 117.259 685.5C114.819 683.28 113.149 680.44 111.209 677.82C111.209 677.38 110.979 677.14 110.569 677.02C110.459 676.2 109.889 675.82 109.189 675.58L109.209 675.6Z" fill="#FFEBB7"/>
<path d="M14.2798 484.06C14.6098 483.79 14.4198 482.32 15.1898 483.28C17.1198 485.7 18.8298 488.29 19.8498 491.3C20.5998 493.52 21.5598 495.7 23.3698 497.38C23.7998 497.78 23.9698 498.46 24.2598 499.01C23.6298 499.45 23.7098 499.98 23.9398 500.64C26.1698 506.98 28.3698 513.33 30.5898 519.67C30.6598 519.88 30.9198 520.03 31.0898 520.21C31.7898 522.76 32.5598 525.27 33.6898 527.68C34.8698 530.19 36.0098 532.71 37.0298 535.29C41.1798 545.82 45.2198 556.39 49.8398 566.73C50.8698 569.03 51.8798 571.33 52.9098 573.63C54.3598 576.84 55.8498 580.04 57.2898 583.26C60.3798 590.15 63.4498 597.05 66.5398 603.93C67.9798 607.15 69.5498 610.31 70.9098 613.56C74.5898 622.38 77.8798 631.36 81.5098 640.2C84.4198 647.29 87.0598 654.5 89.9198 661.62C92.9298 669.1 96.4398 676.35 99.6598 683.72C100.71 686.13 102.24 688.33 103.44 690.68C106.36 696.41 109.22 702.17 112.1 707.93C112.49 708.71 112.97 709.48 112.84 710.43C111.09 709 109.34 707.57 107.6 706.13C104.11 703.24 100.8 700.13 97.0198 697.61C96.0398 692.94 94.9898 688.29 94.0898 683.6C91.4998 670.16 87.1498 657.35 80.7798 645.23C78.0598 640.06 74.5798 635.47 70.5598 631.26C68.8098 629.43 66.8398 627.87 64.8798 626.29C58.2898 620.96 50.9798 617.26 42.4198 616.35C41.6898 616.27 40.9998 615.9 40.2898 615.66C37.7798 606.81 36.0898 597.79 34.8198 588.69C33.7098 580.72 32.4898 572.76 31.3498 564.79C30.5198 558.94 29.7898 553.07 28.9598 547.21C27.1298 534.24 24.3598 521.46 20.8798 508.84C18.8798 501.56 16.8698 494.29 14.8798 487.01C14.6198 486.04 14.4598 485.05 14.2598 484.07L14.2798 484.06Z" fill="#FFCD7E"/>
<path d="M208.39 464.14C207.65 463.67 207.43 462.87 207.65 462.18C208.28 460.19 207.8 458.28 207.48 456.35C210.05 451.41 213.33 446.95 216.62 442.49C216.84 442.19 217.11 441.87 217.44 441.73C217.74 441.59 218.17 441.61 218.5 441.7C218.65 441.74 218.84 442.13 218.81 442.33C218.7 443.07 218.55 443.81 218.33 444.52C216.25 451.41 214.96 458.47 213.85 465.57C213.36 468.68 213.17 471.83 212.96 474.98C212.48 482.15 212.05 489.32 211.65 496.49C211.5 499.26 211.42 502.04 211.42 504.81C211.43 513.89 211.17 522.99 211.62 532.05C212.22 544.15 212.23 556.25 212.23 568.35C212.23 569.86 212.19 571.38 212.17 572.89C212.17 573.53 212.23 574.15 212.84 574.54C210.71 576.43 208.94 578.66 207.22 580.9C205.96 582.54 204.28 583.95 203.81 586.12C199.4 591.32 195.99 597.18 192.64 603.08C185.46 615.7 179.98 629.03 175.76 642.89C174.84 642.37 175.13 641.42 174.97 640.64C175.14 636.73 176.05 632.92 176.77 629.1C178.64 619.23 180.67 609.38 182.69 599.54C183.9 593.63 185.24 587.75 186.46 581.84C187.98 574.46 189.45 567.07 190.92 559.67C191.04 559.04 191.14 558.43 191.6 557.95C191.67 558.19 191.66 558.5 191.82 558.66C192.2 559.05 192.32 558.76 192.45 558.38C193.44 555.55 193.88 552.57 195.05 549.79C195.24 549.33 195.37 548.84 195.45 548.34C196.2 543.9 197.16 539.48 197.62 535.01C198.06 530.75 199.06 526.62 199.88 522.45C200.31 520.24 200.56 517.99 200.76 515.75C200.89 514.25 200.86 512.77 201.31 511.28C201.69 510.02 201.97 508.55 200.84 507.36C200.92 503.71 201.9 500.19 202.49 496.62C203.3 491.69 204.37 486.79 205.33 481.88C205.59 480.53 205.85 479.18 206.11 477.83C206.32 477.52 206.64 477.25 206.72 476.91C208.02 471.31 209.38 465.74 211.25 460.3C211.32 460.11 211.16 459.83 211.07 459.39C209.55 460.73 209.57 462.8 208.38 464.15L208.39 464.14Z" fill="#FFEBB7"/>
<path d="M203.81 586.09C204.28 583.92 205.96 582.51 207.22 580.87C208.94 578.63 210.71 576.4 212.84 574.51C221.64 564.24 232.57 557.3 245.6 553.68C245.83 553.62 246.09 553.68 246.34 553.68C246.78 553.89 247.2 554.2 247.67 554.28C250.5 554.8 253.33 555.31 256.17 555.76C260.48 556.43 263.92 558.85 266.78 561.82C270.01 565.18 272.31 569.31 274.01 573.67C276.84 580.93 278.89 588.43 280.28 596.1C281.18 601.05 282.2 605.97 284.1 610.63C286.04 615.39 288.05 620.16 291.68 623.98C293.02 626.16 294.94 627.84 296.84 629.44C299.81 631.95 303.09 634.06 306.81 635.36C306.95 635.88 307.94 636.05 307.41 636.86C306.02 636.86 304.63 636.76 303.26 636.88C298.37 637.28 293.81 635.82 289.39 634.12C283.26 631.76 278 627.94 273.27 623.4C272.07 622.25 271.1 620.98 270.46 619.45C270.21 619.2 269.96 618.94 269.71 618.69C269.46 618.44 269.21 618.18 268.96 617.93C268.96 617.68 268.95 617.43 268.95 617.18C268.7 616.93 268.45 616.67 268.2 616.42C268.19 615.79 268.06 615.23 267.44 614.91C267.19 614.66 266.94 614.4 266.69 614.15C265.93 611.47 264.29 609.23 263 606.82C262.8 606.45 262.5 606.32 262.24 606.77C262.12 606.98 262.12 607.26 262.07 607.5C261.14 605.74 261.01 603.77 260.6 601.87C260.27 600.35 260.32 598.7 259.21 597.42C260.13 595.49 259.15 593.73 258.6 592C257.06 587.12 254.18 582.98 250.87 579.18C249.65 577.78 248.05 576.65 246.47 575.66C238.47 570.66 230.15 570.41 221.61 574.18C215.44 576.9 210.04 580.76 205.06 585.26C204.69 585.59 204.24 585.83 203.83 586.11L203.81 586.09Z" fill="#FFEBB7"/>
<path d="M40.3 615.66C41.01 615.9 41.7 616.27 42.43 616.35C50.99 617.26 58.3 620.96 64.89 626.29C66.85 627.87 68.82 629.43 70.57 631.26C74.59 635.48 78.07 640.07 80.79 645.23C87.16 657.35 91.51 670.17 94.1 683.6C95 688.28 96.05 692.94 97.03 697.61C97.14 698.48 97.21 699.36 97.36 700.23C98.27 705.43 99.26 710.62 100.11 715.84C100.86 720.43 101.54 725.04 102.12 729.65C102.79 735.02 103.29 740.41 103.9 745.78C104.27 749.03 104.69 752.27 105.09 755.52C105.26 756.89 105.49 758.26 105.26 759.66C104.43 758.98 104.24 757.96 103.86 757.03C101.86 752.13 99.96 747.19 97.83 742.35C90.84 726.52 85.71 710.05 81.09 693.42C78.49 684.08 76.26 674.64 73.08 665.48C69.34 654.69 64.37 644.57 57.27 635.54C53.5 630.74 49.35 626.49 43.99 623.38C40.26 621.22 36.45 619.99 32.18 620.06C30.04 620.09 27.9 620.11 25.75 620.13C29.3 617.76 33.36 617.01 37.47 616.39C38.44 616.24 39.52 616.53 40.31 615.67L40.3 615.66Z" fill="#FFEBB7"/>
<path d="M2.43967 647.49C4.11967 646.43 5.49967 644.88 7.48967 644.35C10.3697 643.58 13.2097 643.03 16.2797 643.48C23.5697 644.53 29.2097 648.36 34.2297 653.42C29.0497 660.1 26.5197 667.72 25.6797 676.1C24.7297 685.47 25.5997 694.76 26.1897 704.07C26.6797 711.89 26.5797 719.71 26.3897 727.53C26.3897 727.66 26.3897 727.78 26.3697 727.91C26.1397 730.36 25.4897 731.8 24.8597 731.36C23.6897 730.55 23.7497 729.18 23.5997 727.97C22.4397 718.59 19.5397 709.79 15.0597 701.48C12.0097 695.82 9.05967 690.1 6.08967 684.4C3.21967 678.87 1.17967 673.06 0.379667 666.86C-0.470333 660.25 0.119667 653.78 2.44967 647.5L2.43967 647.49Z" fill="#EDB357"/>
<path d="M25.7393 620.12C27.8793 620.1 30.0193 620.08 32.1693 620.05C36.4393 619.98 40.2493 621.21 43.9793 623.37C49.3393 626.48 53.4793 630.73 57.2593 635.53C64.3593 644.56 69.3293 654.69 73.0693 665.47C76.2493 674.64 78.4793 684.08 81.0793 693.41C85.6993 710.04 90.8293 726.51 97.8193 742.34C99.9593 747.18 101.849 752.12 103.849 757.02C104.229 757.94 104.419 758.96 105.249 759.65C106.119 762.14 106.919 764.65 107.869 767.11C112.279 778.51 115.509 790.24 117.569 802.29C119.479 813.45 120.569 824.7 121.359 835.99C121.519 838.24 121.379 840.53 122.189 842.69C121.329 843.23 121.219 844.05 121.359 844.95C121.529 846.04 121.739 847.12 121.939 848.2C121.919 853.48 121.899 858.76 121.879 864.04C119.659 864.04 117.439 864.03 115.219 864.02C115.129 858.98 115.029 853.93 114.939 848.89C115.149 846.84 115.529 844.77 114.329 842.85C114.519 837.43 113.819 832.06 113.319 826.69C112.669 819.69 111.739 812.71 110.619 805.77C108.499 792.61 105.219 779.73 100.499 767.23C97.2193 758.38 93.8493 749.56 90.6793 740.68C87.2093 730.96 83.7193 721.25 80.9493 711.29C79.0293 704.38 77.0893 697.48 75.4093 690.51C74.0793 685.01 72.6793 679.53 71.4493 674.01C70.0193 667.59 67.6693 661.5 65.3993 655.35C62.2193 646.71 57.2493 639.17 51.5893 632.05C48.0893 627.64 43.5393 624.33 38.2693 622.37C34.7693 621.07 30.9893 620.41 27.1593 621.34C25.9593 621.63 24.6993 622.06 23.5693 621.07C23.7693 620.92 23.9893 620.84 24.2293 620.8C24.9093 620.96 25.4193 620.73 25.7693 620.13L25.7293 620.1L25.7393 620.12Z" fill="#EDB357"/>
<path d="M259.81 689.06C257.11 692.69 254.42 696.32 251.71 699.95C249.15 703.38 246.32 706.58 243.53 709.82C239.25 714.8 234.64 719.47 229.81 723.87C222.81 730.24 216.21 736.98 209.55 743.67C204.4 748.84 199.77 754.48 195.09 760.08C190.65 765.4 186.52 770.95 182.65 776.67C179.69 781.04 176.84 785.5 174.47 790.24C173.86 791.46 173.21 792.66 172.59 793.84C171.52 793.46 171.53 792.61 171.44 791.96C171.27 790.85 171.33 789.7 171.26 788.57C170.99 784.18 171.04 779.74 170.34 775.42C169.65 771.14 169.82 766.89 169.68 762.63C169.66 761.88 169.81 761.13 169.88 760.39C170.48 761.45 170.21 762.61 170.25 763.73C170.35 766.62 170.4 769.51 170.47 772.38C171.48 772.53 171.59 771.77 171.86 771.29C178.27 759.86 186.37 749.8 196 740.9C203.33 734.13 211.05 727.83 218.86 721.64C228.47 714.02 237.45 705.71 245.8 696.74C250.62 691.57 255.46 686.42 260.68 681.65C264.22 678.42 267.81 675.24 271.4 672.06C271.86 671.65 272.41 671.33 272.96 671.04C273.3 670.86 273.71 670.94 273.96 671.26C274.1 671.44 274.23 671.72 274.2 671.94C274.14 672.43 274.03 672.93 273.84 673.39C272.95 675.61 272.03 677.82 271.11 680.03C270.53 680.4 270.42 680.96 270.49 681.58H270.51C270.07 681.42 269.45 681.38 269.23 681.07C268.65 680.26 268.02 680.55 267.34 680.74C267.36 680.25 267.39 679.75 267.41 679.25C267.5 679.21 267.61 679.2 267.69 679.13C267.74 679.09 267.73 678.99 267.74 678.92C267.63 679.03 267.52 679.14 267.42 679.25C266.01 679.9 265.14 681.11 264.32 682.35C262.83 684.6 260.7 686.41 259.78 689.05L259.81 689.06Z" fill="#FFEBB7"/>
<path d="M101.42 840.8C100.62 840.31 100.32 839.45 99.8502 838.71C95.7202 832.18 90.9102 826.2 85.3702 820.8C79.5802 815.16 73.5602 809.8 67.2302 804.78C61.0802 799.9 55.5102 794.45 51.3902 787.64C48.0202 782.08 45.8502 776.05 44.0302 769.87C42.5302 764.79 41.3402 759.64 40.9102 754.34C41.1602 753.27 40.7102 752.12 41.3302 750.94C42.2302 751.2 42.7402 751.85 43.1802 752.62C43.6702 753.48 44.1302 754.36 44.7102 755.15C44.9502 755.48 45.3702 755.24 45.6102 754.91C46.5402 755.45 46.9102 756.41 47.3902 757.29C47.8702 758.17 48.2502 759.12 49.2002 759.64C52.6602 765.5 56.8902 770.83 61.0802 776.15C65.2002 781.37 69.7202 786.28 73.9202 791.45C77.0902 795.35 80.1002 799.37 83.0402 803.44C91.0502 814.56 96.4402 827.01 101.39 839.68C101.52 840.01 101.43 840.42 101.44 840.8H101.42Z" fill="#FFEBB7"/>
<path d="M45.5894 754.91C45.3494 755.24 44.9294 755.48 44.6894 755.15C44.1094 754.36 43.6494 753.48 43.1594 752.62C42.7294 751.86 42.2094 751.21 41.3094 750.94C40.6794 752.12 41.1394 753.27 40.8894 754.34C39.7394 750.59 39.4194 746.73 39.3594 742.83C39.3594 742.46 39.4794 742.03 39.9394 742C40.2894 741.98 40.7094 742.03 40.9894 742.22C41.5094 742.56 41.9794 742.99 42.4094 743.44C48.6294 749.91 55.7894 755.27 62.7094 760.93C66.5094 764.04 70.4194 767.04 73.9694 770.41C84.3894 780.3 92.9794 791.58 98.7694 804.8C102.459 813.24 105.009 822.05 106.169 831.24C106.529 834.11 107.109 836.95 106.849 839.86C105.409 837.62 104.829 835.01 103.839 832.58C99.5194 822.04 94.3594 811.99 87.1694 803.06C80.5394 794.82 73.7994 786.66 66.6994 778.81C64.2494 776.1 61.9394 773.27 59.6094 770.46C56.3894 766.59 53.2094 762.69 50.0094 758.8C49.0094 757.12 48.0394 755.4 46.5094 754.15C45.6394 753.44 45.6194 754.3 45.5894 754.9V754.91Z" fill="#FFEBB7"/>
<path d="M252.22 552.68C252.33 552.62 252.43 552.51 252.55 552.49C259.57 551.38 266.34 551.95 272.67 555.48C276.16 557.43 278.89 560.17 280.89 563.63C283.05 567.36 284.63 571.31 285.67 575.5C287.25 581.86 288.21 588.34 289.41 594.77C290.58 601.1 292.21 607.3 294.83 613.2C296.26 616.43 298.01 619.49 300 622.41C302.9 626.65 306.67 629.93 311.1 632.48C312.19 633.11 313.31 633.7 314.34 634.41C315.48 635.2 315.45 635.86 314.41 637.52C314.28 636.71 313.91 636.15 313 636.1C311.41 636.01 309.77 636.3 308.33 635.31C307.95 635 307.62 634.61 307.2 634.4C302.36 632 298.07 628.88 294.44 624.86C293.86 624.22 293.14 623.71 292.49 623.14C291.9 622.03 291.37 620.87 290.7 619.82C287.28 614.43 285.37 608.49 284.11 602.29C283.21 597.87 282.34 593.45 281.42 589.03C279.74 580.97 276.75 573.42 272.72 566.25C270.85 562.92 268.6 559.87 265.65 557.5C261.99 554.57 258.07 552 252.97 552.78C252.73 552.82 252.48 552.71 252.23 552.67L252.22 552.68Z" fill="#FFEBB7"/>
<path d="M50.0199 758.82C53.2199 762.71 56.3999 766.61 59.6199 770.48C61.9599 773.29 64.2599 776.12 66.7099 778.83C73.8099 786.68 80.5399 794.84 87.1799 803.08C94.3599 812.01 99.5199 822.06 103.85 832.6C104.85 835.03 105.42 837.64 106.86 839.88C106.94 840.37 106.98 840.87 107.12 841.35C107.61 843.02 107.66 843.04 109.43 843.07C110.05 843.07 110.67 843.1 111.28 843.11C110.47 843.82 109.4 843.41 108.5 843.73C108.14 843.86 107.75 844.14 107.89 844.49C108.47 845.94 107.92 847.68 109.06 848.97C109.17 850.1 109.27 851.23 109.38 852.36C109.76 856.23 110.15 860.1 110.54 863.98C108.7 863.98 106.8 864.52 105.08 863.38C105.12 862.76 105.33 862.1 105.17 861.53C104.54 859.21 104.63 856.84 104.61 854.48C104.6 852.6 104.43 850.75 103.81 848.97C103.92 847.01 103.5 845.21 102.26 843.64C102.42 842.57 101.61 841.78 101.41 840.82C101.4 840.45 101.49 840.03 101.36 839.7C96.4099 827.03 91.0099 814.57 83.0099 803.46C80.0799 799.39 77.0599 795.36 73.8899 791.47C69.6899 786.3 65.1699 781.4 61.0499 776.17C56.8499 770.85 52.6299 765.52 49.1699 759.66C49.4499 759.38 49.7299 759.11 50.0099 758.83L50.0199 758.82Z" fill="#EDB357"/>
<path d="M308.32 635.33C309.75 636.32 311.4 636.04 312.99 636.12C313.89 636.17 314.27 636.73 314.4 637.54C313.24 639.15 311.5 639.91 309.73 640.52C302.36 643.06 295.04 643.29 287.72 640.14C283.31 638.24 279.07 636.11 275.5 632.86C272.05 629.72 268.93 626.3 267.42 621.74C267.47 621.09 267.33 620.52 266.71 620.18V620.16C266.7 619.31 266.85 618.39 265.79 617.97L265.82 618.02C265.94 617.33 265.83 616.73 265.1 616.42L265.12 616.45C265.19 615.79 265.06 615.22 264.42 614.88C264.88 613.36 264.9 613.36 266.36 613.99C266.47 614.04 266.58 614.08 266.69 614.13C266.94 614.38 267.19 614.64 267.44 614.89C267.46 615.51 267.59 616.08 268.2 616.4C268.45 616.66 268.7 616.91 268.95 617.16C268.95 617.41 268.95 617.66 268.96 617.91C269.21 618.16 269.46 618.42 269.71 618.67C269.96 618.92 270.21 619.18 270.46 619.43C271.1 620.96 272.08 622.23 273.27 623.38C278 627.93 283.26 631.74 289.39 634.1C293.81 635.81 298.37 637.27 303.26 636.86C304.63 636.75 306.02 636.84 307.41 636.84C307.94 636.03 306.95 635.86 306.81 635.34C307.31 635.34 307.82 635.32 308.32 635.31V635.33Z" fill="#FFCD7E"/>
<path d="M252.22 552.68C252.47 552.72 252.73 552.83 252.96 552.79C258.06 552 261.99 554.58 265.64 557.51C268.59 559.88 270.84 562.93 272.71 566.26C276.74 573.43 279.73 580.98 281.41 589.04C282.33 593.45 283.2 597.88 284.1 602.3C285.37 608.49 287.27 614.44 290.69 619.83C291.36 620.89 291.89 622.04 292.48 623.15C292.21 623.42 291.94 623.69 291.68 623.96C288.05 620.14 286.05 615.37 284.1 610.61C282.2 605.95 281.17 601.03 280.28 596.08C278.89 588.41 276.85 580.91 274.01 573.65C272.31 569.29 270 565.16 266.78 561.8C263.92 558.82 260.48 556.41 256.17 555.74C253.33 555.3 250.5 554.79 247.67 554.26C247.21 554.17 246.78 553.86 246.34 553.66C248.27 553.17 250.19 552.59 252.22 552.66V552.68Z" fill="#FFCD7E"/>
<path d="M267.36 680.74C268.04 680.55 268.67 680.25 269.25 681.07C269.47 681.38 270.09 681.42 270.53 681.58C270.05 684.43 269.09 687.15 268.15 689.87C267.68 690.21 267.17 690.86 266.76 690.8C266.28 690.73 265.74 690.12 265.5 689.61C264.99 688.53 264.88 687.23 263.55 686.73C264.29 684.4 265.66 682.46 267.36 680.74Z" fill="#FFEBB7"/>
<path d="M266.68 614.12C266.57 614.07 266.46 614.03 266.35 613.98C264.89 613.36 264.87 613.35 264.41 614.87C262.97 612.61 262.3 610.11 262.06 607.47C262.11 607.22 262.12 606.95 262.23 606.74C262.48 606.29 262.79 606.42 262.99 606.79C264.28 609.2 265.92 611.44 266.68 614.12Z" fill="#FFCD7E"/>
<path d="M265.779 617.97C266.839 618.38 266.689 619.3 266.689 620.16C265.989 619.6 265.789 618.82 265.779 617.97Z" fill="#FFCD7E"/>
<path d="M270.52 681.59C270.45 680.96 270.56 680.4 271.14 680.04C271.21 680.67 271.07 681.21 270.52 681.59Z" fill="#FFEBB7"/>
<path d="M266.7 620.18C267.32 620.53 267.46 621.09 267.41 621.74C266.85 621.36 266.65 620.83 266.7 620.18Z" fill="#FFCD7E"/>
<path d="M25.7793 620.16C25.4293 620.76 24.9193 620.98 24.2393 620.83C24.5793 620.22 25.1293 620.07 25.7793 620.16Z" fill="#FFEBB7"/>
<path d="M264.41 614.88C265.05 615.22 265.19 615.79 265.11 616.45C264.51 616.09 264.37 615.52 264.41 614.88Z" fill="#FFCD7E"/>
<path d="M265.089 616.42C265.819 616.73 265.929 617.32 265.809 618.02C265.199 617.66 265.079 617.07 265.089 616.42Z" fill="#FFCD7E"/>
<path d="M112.85 710.43C112.98 709.49 112.5 708.72 112.11 707.93C109.23 702.18 106.37 696.41 103.45 690.68C102.25 688.33 100.72 686.13 99.6696 683.72C96.4496 676.34 92.9296 669.1 89.9296 661.62C87.0696 654.5 84.4296 647.29 81.5196 640.2C77.8896 631.35 74.5996 622.38 70.9196 613.56C69.5596 610.31 67.9996 607.14 66.5496 603.93C63.4596 597.04 60.3896 590.14 57.2996 583.26C55.8596 580.04 54.3696 576.85 52.9196 573.63C51.8796 571.34 50.8696 569.03 49.8496 566.73C45.2296 556.39 41.1896 545.82 37.0396 535.29C36.0196 532.72 34.8796 530.19 33.6996 527.68C32.5696 525.27 31.7996 522.76 31.0996 520.21C31.1296 519.58 31.2596 519 31.8796 518.67C33.8496 523.17 35.8296 527.66 37.7796 532.16C39.0796 535.16 40.3396 538.18 41.6396 541.18C43.4896 545.45 45.4296 549.69 47.2096 554C49.9996 560.76 53.1996 567.33 56.3896 573.9C58.5296 578.31 60.4396 582.85 62.4696 587.31C63.1996 588.92 64.0096 590.49 64.7796 592.08C67.9496 598.67 71.2196 605.21 74.2396 611.86C76.6896 617.24 78.8396 622.76 81.1296 628.21C84.0996 635.29 87.0796 642.36 90.0696 649.44C92.6596 655.59 95.1496 661.78 97.9096 667.85C100.15 672.78 102.72 677.57 105.16 682.4C105.73 683.52 106.41 684.58 107.01 685.69C109.45 690.25 111.86 694.81 114.31 699.36C114.53 699.77 114.98 700.07 115.32 700.42C116.33 702.58 117.29 704.77 118.37 706.9C120.14 710.39 121.59 714.02 122.79 717.74C125.85 727.25 127.74 736.99 128.98 746.9C130.76 761.18 131.92 775.49 131.97 789.88C132.02 805.64 131.97 821.4 131.96 837.16C131.96 843.13 131.22 842.1 136.87 842.18C139.21 842.21 139.29 842.12 139.23 839.9C139.1 835.24 138.86 830.58 138.78 825.91C138.55 812.17 138.18 798.43 137.12 784.72C136.45 776.05 135.5 767.4 134.61 758.75C134.4 756.75 133.92 754.78 134.02 752.75C134.2 752.92 134.51 753.06 134.55 753.26C134.93 755.47 135.29 757.68 135.62 759.9C135.69 760.39 135.67 760.9 135.68 761.41C135.71 762.78 137.62 763.36 137.34 764.61C137.08 765.78 136.27 766.82 136.37 768.15C136.44 769.1 136.69 769.83 137.52 770.37C138.57 771.06 138.54 771.84 137.87 772.91C136.61 774.94 136.75 776.95 138.5 778.73C139.42 779.67 139.65 780.62 138.57 781.66C137.51 782.67 138.03 784.03 137.91 785.25C137.79 786.51 138.39 787.33 139.36 788.1C140.39 788.91 140.51 790.22 139.75 791.16C138.58 792.6 138.66 794.18 138.66 795.81C138.66 797.82 138.67 799.84 138.66 801.85C138.66 802.9 138.86 803.76 139.78 804.47C141.36 805.68 141.28 807.33 140.35 808.85C139.73 809.87 139.4 810.85 139.4 812.02C139.42 817.18 139.43 822.34 139.4 827.5C139.4 828.71 139.81 829.53 140.72 830.41C142.39 832.04 142.72 834.38 141.33 836.21C140.3 837.57 140.14 838.88 140.16 840.39C140.16 841.26 140.28 842.17 139.51 842.85C138.63 842.82 137.75 842.76 136.88 842.77C131.53 842.82 131.6 842.09 131.92 848.16L131.81 864.07C130.21 864.92 128.51 864.8 126.81 864.52C125.97 864.38 125.13 864.21 124.29 864.05C124.32 858.77 124.35 853.49 124.38 848.2C125.38 846.79 124.98 845.21 124.83 843.7C124.77 843.04 124.07 842.86 123.48 842.72C124.01 842.38 124.58 842.03 124.64 841.33C124.72 840.33 124.74 839.32 124.77 838.31C125.22 816.61 124.88 794.93 124.13 773.24C124.1 772.23 124.03 771.22 123.95 770.22C123.13 759.28 122.09 748.36 120.48 737.51C119.33 729.77 117.63 722.15 115.09 714.73C114.56 713.17 113.89 711.69 112.83 710.42L112.85 710.43Z" fill="#EDB357"/>
<path d="M161.619 823.08C161.159 815.31 161.249 807.55 162.259 799.82C162.599 797.22 163.099 794.62 163.779 792.08C164.509 789.37 164.739 786.67 164.509 783.9C164.429 782.91 164.56 781.91 164.6 780.91C165.08 781.4 165.119 782.03 165.119 782.66C165.149 784.79 165.179 786.93 165.199 789.06C165.229 791.94 165.06 794.82 165.74 797.68C166.03 798.88 165.879 800.18 165.929 801.43C165.979 802.56 165.769 803.77 166.119 804.8C166.879 807.01 166.37 809 165.52 810.99C163.94 814.69 162.779 818.52 162.009 822.47C161.969 822.69 161.74 822.88 161.6 823.08H161.619Z" fill="#FFCD7E"/>
<path d="M200.84 507.35C201.97 508.54 201.69 510 201.31 511.27C200.86 512.76 200.89 514.24 200.76 515.74C200.56 517.98 200.31 520.23 199.88 522.44C199.06 526.62 198.06 530.74 197.62 535C197.16 539.47 196.2 543.89 195.45 548.33C195.37 548.82 195.24 549.32 195.05 549.78C193.88 552.55 193.44 555.54 192.45 558.37C192.32 558.74 192.2 559.04 191.82 558.65C191.67 558.49 191.67 558.18 191.6 557.94C191.67 557.22 191.73 556.5 191.8 555.78C192.38 555.37 192.44 554.79 192.36 554.15C192.39 550.49 193.51 547 194.2 543.46C196.03 534.15 197.93 524.86 199.33 515.47C199.74 512.76 200.33 510.07 200.84 507.37V507.35Z" fill="#FFCD7E"/>
<path d="M208.39 464.14C209.58 462.79 209.56 460.71 211.08 459.38C211.17 459.82 211.33 460.09 211.26 460.29C209.39 465.73 208.03 471.31 206.73 476.9C206.65 477.24 206.33 477.51 206.12 477.82C206.02 476.99 206.25 476.05 205.32 475.5C205.21 473.94 205.99 472.59 206.37 471.14C206.78 469.57 207.58 468.11 207.63 466.44C208.19 466.07 208.32 465.53 208.27 464.91C208.31 464.66 208.35 464.4 208.39 464.15V464.14Z" fill="#FFCD7E"/>
<path d="M86.4497 446C86.1297 443.73 86.8497 441.56 87.0997 439.34C87.4497 436.27 87.7297 433.2 88.2597 430.12C88.9997 431.83 88.4997 433.64 88.7797 435.37C88.5097 440.12 87.6897 444.84 87.8297 449.62C87.8497 450.26 87.6597 450.86 87.2197 451.35C87.1997 450.24 87.1597 449.12 87.1497 448.01C87.1397 447.26 87.1397 446.51 86.4497 446Z" fill="#FFCD7E"/>
<path d="M267.36 680.74C265.66 682.46 264.29 684.39 263.55 686.73L263.6 686.78C263.36 687.05 263.11 687.32 262.87 687.59C262.66 687.84 262.44 688.09 262.23 688.35C261.73 688.91 261.22 689.46 260.72 690.02C260.41 689.71 260.1 689.39 259.79 689.08C260.7 686.44 262.84 684.63 264.33 682.38C265.15 681.14 266.02 679.94 267.43 679.28C267.41 679.77 267.38 680.26 267.36 680.76V680.74Z" fill="#FFCD7E"/>
<path d="M145.43 763.34C145.21 762.91 144.81 762.48 144.8 762.05C144.75 755.84 144.46 749.64 144.83 743.43C144.95 743.78 145.16 744.14 145.17 744.49C145.37 750.77 145.64 757.05 145.42 763.33L145.43 763.34Z" fill="#EDB357"/>
<path d="M145.38 773.1C145.45 771.57 145.53 770.03 145.6 768.5C145.75 768.97 146 769.44 146.03 769.91C146.27 774.53 146.52 779.14 146.19 783.77C146 783.75 145.8 783.74 145.61 783.74C145.55 780.7 144.54 777.75 144.8 774.68C145.41 774.31 145.48 773.74 145.38 773.1Z" fill="#EDB357"/>
<path d="M174.96 640.6C175.12 641.39 174.83 642.33 175.75 642.85C175.48 644.54 175.09 646.18 173.91 647.83C173.23 646.31 174.32 645.28 174.27 644.1C174.21 642.92 173.92 641.6 174.96 640.6Z" fill="#FFCD7E"/>
<path d="M143.989 765.62C144.489 766.02 144.729 766.56 144.719 767.18C144.699 768.49 144.659 769.8 144.619 771.11C143.819 769.35 143.899 767.48 143.989 765.62Z" fill="#EDB357"/>
<path d="M145.61 783.73C145.8 783.73 146 783.75 146.19 783.76C146.42 784.84 146.38 785.88 145.96 787.11C145.35 785.87 145.44 784.8 145.6 783.72L145.61 783.73Z" fill="#EDB357"/>
<path d="M192.36 554.13C192.44 554.76 192.39 555.35 191.8 555.76C191.7 555.12 191.86 554.57 192.36 554.13Z" fill="#FFEBB7"/>
<path d="M145.38 773.1C145.47 773.73 145.41 774.3 144.8 774.68C144.8 774.18 144.8 773.68 144.79 773.18C144.99 773.18 145.19 773.15 145.38 773.1Z" fill="#EDB357"/>
<path d="M206.08 885.39C206.08 885.62 206.08 885.85 206.07 886.08C205.3 886.04 204.53 885.99 203.77 885.95C204.42 885.25 205.24 885.27 206.08 885.4V885.39Z" fill="#C1D0B6"/>
<path d="M208.26 464.9C208.32 465.52 208.18 466.07 207.62 466.43C207.59 465.82 207.7 465.26 208.26 464.9Z" fill="#FFEBB7"/>
<path d="M31.8695 518.67C31.2495 519 31.1195 519.58 31.0895 520.21C30.9195 520.03 30.6695 519.88 30.5895 519.67C28.3695 513.33 26.1695 506.98 23.9395 500.64C23.7095 499.98 23.6295 499.45 24.2595 499.01C27.3295 505.36 29.6995 511.97 31.8695 518.67Z" fill="#FFCD7E"/>
<path d="M110.59 677.04C110.36 677.04 110.12 677.03 109.89 677C109.28 676.72 109.23 676.17 109.21 675.61C109.91 675.85 110.48 676.23 110.59 677.04Z" fill="#FFEBB7"/>
<path d="M110.01 678.46C110.56 678.9 110.68 679.47 110.5 680.12C109.98 679.67 109.84 679.11 110.01 678.46Z" fill="#FFEBB7"/>
<path d="M262.25 688.33C262.46 688.08 262.68 687.83 262.89 687.57C262.68 687.82 262.46 688.07 262.25 688.33Z" fill="#FFEBB7"/>
<path d="M111.24 677.84C110.87 677.7 110.64 677.44 110.6 677.04C111 677.16 111.24 677.4 111.24 677.84Z" fill="#FFEBB7"/>
<path d="M291.68 623.97C291.95 623.7 292.22 623.43 292.48 623.16C293.13 623.73 293.85 624.24 294.43 624.88C298.06 628.9 302.35 632.03 307.19 634.42C307.61 634.63 307.95 635.02 308.32 635.33C307.82 635.33 307.31 635.35 306.81 635.36C303.09 634.06 299.81 631.95 296.84 629.44C294.94 627.83 293.01 626.16 291.68 623.98V623.97Z" fill="#FFCD7E"/>
<path d="M268.19 616.39C267.58 616.07 267.45 615.5 267.43 614.88C268.05 615.2 268.18 615.77 268.19 616.39Z" fill="#FFCD7E"/>
<path d="M267.44 679.27C267.55 679.16 267.66 679.05 267.76 678.94C267.74 679.01 267.76 679.11 267.71 679.15C267.64 679.21 267.53 679.23 267.43 679.27H267.44Z" fill="#FFCD7E"/>
<path d="M50.0198 758.82C49.7398 759.1 49.4598 759.37 49.1798 759.65C48.2298 759.13 47.8498 758.18 47.3698 757.3C46.8898 756.42 46.5198 755.46 45.5898 754.92C45.6298 754.32 45.6398 753.47 46.5098 754.17C48.0398 755.41 49.0198 757.14 50.0098 758.82H50.0198Z" fill="#FFCD7E"/>
<path d="M81.9401 839.87H206.72C215.59 839.87 222.79 847.07 222.79 855.94V960.66H65.8701V855.94C65.8701 847.07 73.0701 839.87 81.9401 839.87Z" fill="#8086FF"/>
</g>
<g clip-path="url(#clip5_428_175)">
<path d="M526.68 562L445 612.22H1475.67L1377.14 562H526.68Z" fill="#FFEAC9"/>
<path d="M1475.67 612.22H445V638.65H1475.67V612.22Z" fill="#C6A26A"/>
<path d="M624.1 658.13L580.65 960.19H598.8L636.25 658.13H624.1Z" fill="#C6A26A"/>
<path d="M1282.67 658.13L1326.12 960.19H1307.98L1270.52 658.13H1282.67Z" fill="#C6A26A"/>
<path d="M1348.1 658.13H1348.12V638.65H572.56V658.13L517.16 960.19H549.38L593.23 658.13H1327.42L1371.27 960.19H1403.49L1348.1 658.13Z" fill="#E8CA9B"/>
<g clip-path="url(#clip6_428_175)">
<path d="M933 562L995.81 612.22H1326.32L1225.41 562H933Z" fill="#4A51EF"/>
<path d="M995.81 612.22L954.9 925.9L1129.66 917.66L1176.15 931.79L1313.14 936.41L1326.32 612.22H995.81Z" fill="#1A1F90"/>
<path d="M1129.66 917.66L1165.71 612.22H1192.42L1176.15 931.79L1129.66 917.66Z" fill="#000356"/>
</g>
<g clip-path="url(#clip7_428_175)">
<path d="M843.46 562L862.71 612.22H1053.18L976.43 562H843.46Z" fill="#BEBBFF"/>
<path d="M862.71 612.22L820.16 947.11L1016.79 936.41L1053.18 612.22H862.71Z" fill="#9D9DEA"/>
<mask id="mask0_428_175" style="mask-type:luminance" maskUnits="userSpaceOnUse" x="820" y="612" width="234" height="336">
<path d="M862.71 612.22L820.16 947.11L1016.79 936.41L1053.18 612.22H862.71Z" fill="white"/>
</mask>
<g mask="url(#mask0_428_175)">
<path d="M842.11 798.86L819.56 828.51L832.53 859.16L823.54 862.96L794 793.14L842.11 798.86ZM823.99 806.53L809.53 804.81L815.17 818.15L823.99 806.53Z" fill="white"/>
<path d="M915.56 797.45L885.16 840.75L853.83 766.69L902.75 769.76L887.65 796.54L915.56 797.46V797.45ZM887.07 778.24L868.49 777.07L876.74 796.56L887.07 778.23V778.24ZM897.84 806.32L880.62 805.76L887.22 821.37L897.84 806.33V806.32Z" fill="white"/>
<path d="M988.86 793.03L979.87 796.83L971.19 776.3L943.1 764.81L960.17 805.16L951.18 808.96L921.59 739.01L930.58 735.21L937.76 752.17L965.85 763.66L950.29 726.87L959.28 723.07L988.87 793.02L988.86 793.03Z" fill="white"/>
<path d="M1056.39 761.53L1050.1 768.93L1025.33 748.08L1023.08 780.37L1013.35 779.73L1016.14 740.31L985.89 714.77L992.18 707.31L1016.93 728.21L1019.18 695.89L1028.91 696.57L1026.16 736.01L1056.38 761.52L1056.39 761.53Z" fill="white"/>
<path d="M910.98 936.7L907.88 945.67L850.06 925.67L878 874.04L886.28 878.5L863.66 920.38L910.97 936.7H910.98Z" fill="white"/>
<path d="M949.38 919.28L945.69 928.31L906.07 912.25L917.98 882.8L927.06 886.48L918.73 906.86L949.39 919.29L949.38 919.28ZM948.57 877.31L936.6 906.74L927.6 903.09L935.89 882.6L905.26 870.18L908.89 861.22L948.57 877.31Z" fill="white"/>
<path d="M1030.57 891.64L1021.58 895.44L1012.9 874.91L984.81 863.42L1001.88 903.77L992.89 907.57L963.3 837.62L972.29 833.82L979.47 850.78L1007.56 862.27L992 825.48L1000.99 821.68L1030.58 891.63L1030.57 891.64Z" fill="white"/>
<path d="M1099.15 862.63L1090.17 866.43L1075.67 832.16L1056.3 828.88L1045.17 844.96L1059.71 879.33L1050.72 883.13L1021.08 813.06L1051.81 818.27L1069.51 792.57L1099.15 862.64V862.63ZM1045.68 827.12L1036.98 825.6L1040.7 834.39L1045.68 827.11V827.12ZM1071.18 821.55L1067.42 812.66L1062.36 820.01L1071.19 821.55H1071.18Z" fill="white"/>
</g>
</g>
</g>
<defs>
<clipPath id="clip0_428_175">
<rect width="1920" height="960" fill="white" transform="translate(0 1)"/>
</clipPath>
<clipPath id="clip1_428_175">
<rect width="251.61" height="377.41" fill="white" transform="translate(1706 75)"/>
</clipPath>
<clipPath id="clip2_428_175">
<rect width="1168.04" height="612.03" fill="white" transform="translate(376)"/>
</clipPath>
<clipPath id="clip3_428_175">
<rect width="1379.62" height="961" fill="white" transform="translate(270 1)"/>
</clipPath>
<clipPath id="clip4_428_175">
<rect width="315.18" height="579.66" fill="white" transform="translate(0 381)"/>
</clipPath>
<clipPath id="clip5_428_175">
<rect width="1030.67" height="398.19" fill="white" transform="translate(445 562)"/>
</clipPath>
<clipPath id="clip6_428_175">
<rect width="393.32" height="374.41" fill="white" transform="translate(933 562)"/>
</clipPath>
<clipPath id="clip7_428_175">
<rect width="305.15" height="385.11" fill="white" transform="translate(794 562)"/>
</clipPath>
</defs>
</svg>
