<svg width="1215" height="104" viewBox="0 0 1215 104" fill="none" xmlns="http://www.w3.org/2000/svg">
<g clip-path="url(#clip0_170_1241)">
<path d="M175.66 55.22H1206.27L1166.89 87.78" stroke="#BBAFFF" stroke-width="6.15" stroke-miterlimit="10"/>
<path d="M1135.59 87.7799L1167.8 55.5699" stroke="#BBAFFF" stroke-width="6.15" stroke-miterlimit="10"/>
<path d="M1114.31 87.78L980.44 24.12H1114.31L980.44 87.78H1114.31Z" stroke="#BBAFFF" stroke-width="6.15" stroke-miterlimit="10"/>
<path d="M962.49 24.12H878.02L827.67 55.57L880.34 87.78H962.49" stroke="#BBAFFF" stroke-width="6.15" stroke-miterlimit="10"/>
<path d="M725.76 24.12H851.66L808.62 55.22L851.66 87.78H725.76" stroke="#BBAFFF" stroke-width="6.15" stroke-miterlimit="10"/>
<path d="M237.061 24.12H362.961L319.931 55.22L362.961 87.78H237.061" stroke="#BBAFFF" stroke-width="6.15" stroke-miterlimit="10"/>
<path d="M710.76 30.41L657.86 83.3" stroke="#BBAFFF" stroke-width="6.15" stroke-miterlimit="10"/>
<path d="M615.46 24.12L651.35 55.95L618.66 88.63" stroke="#BBAFFF" stroke-width="6.15" stroke-miterlimit="10"/>
<path d="M486.9 33.03H565.25L607.93 75.71H486.9" stroke="#BBAFFF" stroke-width="6.15" stroke-miterlimit="10"/>
<path d="M468.38 55.22L436.63 86.96L407.42 57.76L374.63 90.55" stroke="#BBAFFF" stroke-width="6.15" stroke-miterlimit="10"/>
<path d="M137.484 55.4532C145.365 65.2327 158.608 69.7181 170.982 67.9457C175.263 67.3951 179.513 66.2571 183.609 64.6702C175.76 68.819 166.858 71.353 157.843 70.6784C148.578 70.0033 139.343 66.0043 132.724 59.3557L137.476 55.4484L137.484 55.4532Z" fill="#BBAFFF"/>
<path d="M136.46 53.35L0 67.93L137.04 60.61C138.97 60.51 140.49 58.91 140.49 56.97C140.49 54.81 138.61 53.12 136.46 53.35Z" fill="#E6E6E6"/>
<path d="M133.34 58.8772C136.139 58.5584 138.328 57.6059 138.231 56.7499C138.133 55.8939 135.786 55.4584 132.987 55.7773C130.189 56.0961 127.999 57.0486 128.097 57.9046C128.194 58.7606 130.542 59.1961 133.34 58.8772Z" fill="#000356"/>
<path d="M132.999 58C130.999 47.5001 142.786 41.9783 144 42.8601C161 55.2099 175.66 55.21 175.66 55.21" stroke="#BBAFFF" stroke-width="6.15" stroke-miterlimit="10"/>
</g>
<defs>
<clipPath id="clip0_170_1241">
<rect width="1214.81" height="103.36" fill="white"/>
</clipPath>
</defs>
</svg>
