<svg width="320" height="116" viewBox="0 0 320 116" fill="none" xmlns="http://www.w3.org/2000/svg">
<g clip-path="url(#clip0_168_914)">
<path d="M231.396 15.2397L222.547 0H207.189L198.341 15.2397L187.999 31.281V116H200.909V85.8471H228.828V116H241.737V31.2711L231.396 15.2298V15.2397ZM200.909 73.022V36.4764L214.863 12.4392L228.818 36.4764V73.0121H200.899L200.909 73.022Z" fill="white"/>
<path d="M295.992 0H283.083H259.075V12.835H283.083V116H295.992V12.835H320V0H295.992Z" fill="white"/>
<path d="M121.73 0H108.83V103.175V116H121.73H169.755V103.175H121.73V0Z" fill="white"/>
<path d="M48.0249 30.0341H12.9095V0H0V42.8691H8.90824H12.9095H17.5577L0 116H12.9095L30.4672 42.8691L48.0249 116H60.9244L43.3667 42.8691H48.0249H52.0261H60.9244V0H48.0249V30.0341Z" fill="white"/>
<path d="M133.136 49.9447V51.2609C132.947 55.8625 127.841 63.2349 121.53 58.9797L121.401 59.2073L119.36 57.8911V74.1303L121.52 75.4465C131.424 75.4465 143.696 71.0329 144.353 55.3875L144.493 49.9546H133.146L133.136 49.9447Z" fill="white"/>
<path d="M110.263 52.0328L110.134 51.9536C97.5328 48.6385 85.2106 58.6532 84.5039 73.22C84.4641 73.9424 84.4541 74.6846 84.4541 75.4465H95.8009C95.8009 71.508 97.7617 68.1631 100.748 66.8569C103.087 65.8376 105.973 65.7683 110.144 68.4996L110.273 68.5788V52.0328H110.263Z" fill="white"/>
</g>
<defs>
<clipPath id="clip0_168_914">
<rect width="320" height="116" fill="white"/>
</clipPath>
</defs>
</svg>
