<svg width="1920" height="963" viewBox="0 0 1920 963" fill="none" xmlns="http://www.w3.org/2000/svg">
<g clip-path="url(#clip0_682_849)">
<path d="M1544.02 2V614.03H375.98V2H0V962H1920V2H1544.02Z" fill="#DCE9FF"/>
<g clip-path="url(#clip1_682_849)">
<path d="M1957.61 76H1706V453.41H1957.61V76Z" fill="#1E24A6"/>
<path d="M1941.6 93.41H1722.01V435.99H1941.6V93.41Z" fill="white"/>
<path d="M1763 122C1763 122 1748.55 127.91 1743.3 162.72C1738.05 197.53 1731.48 245.83 1751.18 264.7C1770.88 283.57 1776.8 277 1814.24 207.38C1851.68 137.76 1849.71 168.63 1868.1 154.18C1886.49 139.73 1857.59 110.83 1827.38 110.83C1797.17 110.83 1763.01 122 1763.01 122H1763Z" fill="#BBAFFF"/>
<path d="M1861.44 237.6C1889.05 237.6 1911.44 214.368 1911.44 185.71C1911.44 157.052 1889.05 133.82 1861.44 133.82C1833.83 133.82 1811.44 157.052 1811.44 185.71C1811.44 214.368 1833.83 237.6 1861.44 237.6Z" fill="#9086EF"/>
<path d="M1908.86 281.54C1930.12 322.14 1915.64 371.65 1876.52 392.14C1837.4 412.63 1788.45 396.32 1767.19 355.73C1745.93 315.13 1803.38 347.68 1842.5 327.19C1881.62 306.7 1887.6 240.95 1908.85 281.54H1908.86Z" fill="#C9DCFF"/>
</g>
</g>
<g clip-path="url(#clip2_682_849)">
<path d="M1499.85 1V252.53H1170.7V1H1126.51V252.53H795.44V1H751.25V252.53H420.19V1H376V613.03H1544.04V1H1499.85ZM751.26 568.85H420.19V296.71H751.26V568.84V568.85ZM1126.52 568.85H795.44V296.71H1126.51V568.84L1126.52 568.85ZM1499.86 568.85H1170.71V296.71H1499.86V568.84V568.85Z" fill="white"/>
</g>
<g clip-path="url(#clip3_682_849)">
<path d="M636.23 2C636.23 2 408.86 541.24 359.01 587.65C309.16 634.06 274.78 605.1 274.78 605.1V2H636.23Z" fill="#BBAFFF"/>
<path d="M549.161 2C549.161 2 422.101 431.09 373.441 508.14C338.111 564.09 302.061 589.91 284.971 599.86C278.521 603.61 274.771 605.11 274.771 605.11C274.771 605.11 282.701 613.4 305.911 614.04C329.121 614.68 359.001 587.66 359.001 587.66C359.001 587.66 367.76 579.95 409.79 503.47C451.82 426.99 636.231 2 636.231 2H549.161Z" fill="#9086EF"/>
<path d="M302.181 602.77C302.181 602.77 375.581 405.98 405.361 249.61C435.141 93.24 433.301 2 433.301 2H455.511C455.511 2 409.331 328.23 371.331 444.27C333.331 560.31 302.191 602.77 302.191 602.77H302.181Z" fill="#9086EF"/>
<path d="M316.37 2C316.37 2 301.86 478.02 296.89 545.26C291.92 612.5 284.98 599.86 284.98 599.86L300.63 593.64C300.63 593.64 314.1 275.74 319.43 154.06C324.76 32.38 336.41 2 336.41 2H316.37Z" fill="#9086EF"/>
<path d="M274.78 605.11V963H470.27C470.27 963 442.07 857.09 406.82 756.37C371.57 655.65 333.93 598.19 333.93 598.19L274.78 605.11Z" fill="#9086EF"/>
<path d="M331.891 614.04C331.891 614.04 382.161 776.16 391.671 831.18C401.181 886.2 410.011 963 410.011 963L452.131 961.61C452.131 961.61 399.571 763.26 372.531 701.44C345.491 639.62 331.901 614.04 331.901 614.04H331.891Z" fill="#BBAFFF"/>
<path d="M314.91 622.64C314.91 622.64 376.81 825.95 387.49 904.07C391.18 931.05 396.03 963 396.03 963H302.05L314.91 622.64Z" fill="#BBAFFF"/>
<path d="M270.24 600.8C270.24 600.8 299.45 598.92 329.12 589.33C358.79 579.74 366.31 577.76 366.31 577.76C366.31 577.76 371.11 608.96 354.68 612.15C338.25 615.34 281.13 622.19 274.77 619C268.41 615.81 270.24 600.8 270.24 600.8Z" fill="#FFEBB7"/>
<path d="M1283.39 2C1283.39 2 1510.76 541.24 1560.61 587.65C1610.46 634.06 1644.84 605.1 1644.84 605.1V2H1283.39Z" fill="#BBAFFF"/>
<path d="M1370.46 2C1370.46 2 1497.52 431.09 1546.18 508.14C1581.51 564.09 1617.56 589.91 1634.65 599.86C1641.1 603.61 1644.85 605.11 1644.85 605.11C1644.85 605.11 1636.92 613.4 1613.71 614.04C1590.5 614.68 1560.62 587.66 1560.62 587.66C1560.62 587.66 1551.86 579.95 1509.83 503.47C1467.79 426.98 1283.39 2 1283.39 2H1370.46Z" fill="#9086EF"/>
<path d="M1617.44 602.77C1617.44 602.77 1544.04 405.98 1514.26 249.61C1484.48 93.24 1486.32 2 1486.32 2H1464.11C1464.11 2 1510.29 328.23 1548.29 444.27C1586.3 560.31 1617.43 602.77 1617.43 602.77H1617.44Z" fill="#9086EF"/>
<path d="M1603.25 2C1603.25 2 1617.76 478.02 1622.73 545.26C1627.7 612.5 1634.64 599.86 1634.64 599.86L1618.99 593.64C1618.99 593.64 1605.52 275.74 1600.19 154.06C1594.88 32.38 1583.21 2 1583.21 2H1603.25Z" fill="#9086EF"/>
<path d="M1644.84 605.11V963H1449.35C1449.35 963 1477.55 857.09 1512.8 756.37C1548.05 655.65 1585.69 598.19 1585.69 598.19L1644.84 605.11Z" fill="#9086EF"/>
<path d="M1587.73 614.04C1587.73 614.04 1537.46 776.16 1527.95 831.18C1518.44 886.2 1509.61 963 1509.61 963L1467.49 961.61C1467.49 961.61 1520.05 763.26 1547.09 701.44C1574.13 639.62 1587.72 614.04 1587.72 614.04H1587.73Z" fill="#BBAFFF"/>
<path d="M1604.71 622.64C1604.71 622.64 1542.81 825.95 1532.13 904.07C1528.44 931.05 1523.59 963 1523.59 963H1617.57L1604.71 622.64Z" fill="#BBAFFF"/>
<path d="M1649.38 600.8C1649.38 600.8 1620.17 598.92 1590.5 589.33C1560.83 579.74 1553.31 577.76 1553.31 577.76C1553.31 577.76 1548.51 608.96 1564.94 612.15C1581.37 615.35 1638.49 622.19 1644.85 619C1651.21 615.81 1649.38 600.8 1649.38 600.8Z" fill="#FFEBB7"/>
</g>
<g clip-path="url(#clip4_682_849)">
<path d="M259.19 598.4C251.32 603.03 245.13 609.41 239.96 616.85C233.25 626.5 227.4 636.64 222.73 647.44C217.68 659.12 212.68 670.82 207.72 682.54C202.3 695.34 195.71 707.53 188.42 719.34C183.7 726.98 178.22 734.06 171.59 740.17C170.18 741.47 169.53 742.78 169.6 744.75C169.8 750.29 169.79 755.85 169.87 761.39C169.8 762.14 169.65 762.89 169.67 763.63C169.81 767.89 169.64 772.14 170.33 776.42C171.03 780.74 170.98 785.18 171.25 789.57C171.32 790.7 171.25 791.85 171.43 792.96C171.53 793.61 171.51 794.46 172.58 794.84C173.2 793.65 173.85 792.45 174.46 791.24C176.83 786.5 179.69 782.04 182.64 777.67C186.51 771.94 190.64 766.4 195.08 761.08C199.75 755.47 204.39 749.83 209.54 744.67C216.2 737.98 222.81 731.23 229.8 724.87C234.63 720.47 239.23 715.8 243.52 710.82C246.31 707.58 249.14 704.38 251.7 700.95C254.41 697.33 257.1 693.69 259.8 690.06C260.11 690.37 260.42 690.69 260.73 691C260.6 691.35 260.53 691.75 260.34 692.05C253.84 702.27 246.6 711.92 238.05 720.53C234.76 723.84 231.48 727.14 228.2 730.46C220.13 738.6 211.91 746.58 204.63 755.46C198.24 763.26 192.19 771.27 186.92 779.88C182.9 786.45 179.42 793.27 176.41 800.35C175.28 803.01 174.35 805.75 173.31 808.45C172.94 809.41 172.7 810.39 172.96 811.4C173.65 814 173.49 816.65 173.57 819.29C173.6 820.16 173.41 821.07 174.09 821.8C174.62 828.93 175.15 836.05 175.69 843.18C175.73 843.68 175.85 844.17 175.94 844.66C175.61 846.67 175.75 848.68 175.97 850.68C175.94 851.42 175.75 852.19 175.91 852.88C176.72 856.41 176.38 859.98 176.47 863.54C174.54 864.67 172.43 864.21 170.37 864.28C169.65 860.93 169.8 857.52 169.75 854.13C169.73 852.74 169.7 851.36 169.67 849.97C169.68 848.97 169.57 847.95 169.74 846.99C170.07 845.16 168.88 844.62 167.56 844.1C169.38 843.62 169.38 843.62 169.32 842.36C169.21 839.97 169.1 837.59 168.96 835.2C168.83 833.07 168.68 830.94 168.49 828.81C168.44 828.31 168.52 827.61 167.45 827.42C165.89 832.81 165.6 838.29 165.46 843.79C164.94 845.83 165.14 847.89 165.25 849.95C165.28 852.41 165.03 854.91 165.41 857.32C165.78 859.66 165.82 861.96 165.81 864.29C164.44 865.19 162.92 865.04 161.4 864.93C160.35 859.97 160.6 854.89 159.87 849.9C159.88 847.83 160.16 845.75 159.62 843.7C159.7 842.34 159.84 840.97 159.85 839.61C159.89 834.37 160.47 829.2 161.59 824.09C161.73 823.89 161.96 823.7 162 823.48C162.77 819.53 163.93 815.7 165.51 812C166.36 810.01 166.87 808.02 166.11 805.81C165.76 804.79 165.96 803.57 165.92 802.44C165.87 801.19 166.01 799.89 165.73 798.69C165.05 795.83 165.22 792.95 165.19 790.07C165.17 787.94 165.13 785.8 165.11 783.67C165.11 783.04 165.06 782.42 164.59 781.92C164.57 781.8 164.55 781.67 164.54 781.54C164.51 781.16 164.47 780.79 164.46 780.41C164.35 777.01 164.15 773.61 164.15 770.21C164.13 763.53 164.22 756.86 164.27 750.18C164.27 749.68 164.25 749.17 164.23 748.67C164.23 748.55 164.22 748.39 164.15 748.33C164.07 748.26 163.91 748.29 163.78 748.27C163 748.46 163.03 749.16 162.89 749.74C160.72 758.17 159.37 766.74 158.43 775.39C157.54 783.54 157.39 791.74 157.18 799.92C156.84 813.4 156.82 826.88 156.66 840.36C156.65 841.49 156.52 842.63 157.04 843.7C156.47 844.05 156.16 844.57 156.16 845.22C156.16 846.57 156.22 847.92 156.25 849.28C156.21 854.53 156.17 859.77 156.13 865.02C150.56 865.05 145 865.07 139.43 865.1C139.42 859.8 139.41 854.5 139.4 849.2C139.45 847.42 139.5 845.65 139.55 843.87C140.31 843.2 140.21 842.29 140.2 841.41C140.18 839.9 140.34 838.59 141.37 837.23C142.76 835.4 142.42 833.06 140.76 831.43C139.85 830.54 139.43 829.72 139.44 828.52C139.46 823.36 139.46 818.2 139.44 813.04C139.44 811.87 139.77 810.88 140.39 809.87C141.32 808.35 141.39 806.71 139.82 805.49C138.89 804.78 138.69 803.92 138.7 802.87C138.72 800.86 138.7 798.84 138.7 796.83C138.7 795.2 138.62 793.62 139.79 792.18C140.55 791.24 140.42 789.94 139.4 789.12C138.43 788.35 137.83 787.53 137.95 786.27C138.07 785.05 137.55 783.7 138.61 782.68C139.69 781.64 139.46 780.69 138.54 779.75C136.79 777.97 136.65 775.97 137.91 773.93C138.58 772.86 138.61 772.07 137.56 771.39C136.73 770.85 136.48 770.12 136.41 769.17C136.31 767.83 137.12 766.8 137.38 765.63C137.65 764.39 135.75 763.81 135.72 762.43C135.71 761.93 135.74 761.42 135.66 760.92C135.33 758.7 134.97 756.49 134.59 754.28C134.56 754.09 134.24 753.94 134.06 753.77C133.89 753.3 133.63 752.85 133.56 752.37C132.2 742.38 130.08 732.53 127.91 722.69C125.66 712.48 123.2 702.33 119.74 692.45C119.03 690.43 118.4 688.39 117.31 686.52C117.52 685.19 116.86 684.04 116.41 682.9C114.26 677.51 112.68 671.94 111.18 666.34C109.43 659.77 107.94 653.15 106.57 646.5C104.67 637.27 102.67 628.05 100.87 618.8C98.9498 608.93 96.7298 599.12 95.2598 589.16C94.2098 582.08 92.8798 575.04 91.7898 567.96C90.8898 562.12 90.2198 556.25 89.3298 550.41C88.2298 543.21 87.1498 536 86.2898 528.76C85.9898 526.26 85.8298 523.75 85.4898 521.26C84.8298 516.4 84.2498 511.52 84.2098 506.62C84.1098 495.39 84.0998 484.15 84.2598 472.93C84.3298 468.54 85.0598 464.16 85.0098 459.74C85.0098 459.49 85.0698 459.24 85.0998 458.99C85.5598 455 86.0198 451 86.4798 447.01C87.1698 447.52 87.1698 448.27 87.1798 449.02C87.1998 450.13 87.2298 451.25 87.2498 452.36C87.3098 457.03 86.6998 461.67 86.5998 466.32C86.3598 477.17 86.4898 488.03 86.4798 498.88C86.4798 499.89 86.4098 500.93 86.6198 501.9C87.5698 506.37 86.9998 510.95 87.8498 515.44C88.4498 518.64 88.4098 521.96 88.8498 525.2C89.7798 532.06 90.7798 538.9 91.8698 545.74C93.3398 554.93 94.8598 564.12 96.4498 573.29C97.8698 581.47 99.2998 589.65 100.91 597.8C102.74 607.06 104.73 616.28 106.73 625.51C107.96 631.17 109.33 636.8 110.63 642.44C113.27 653.86 116.22 665.19 120.68 676.07C121.58 678.27 122.12 680.63 123.52 682.61C123.76 683.45 123.93 684.33 124.26 685.13C129.45 697.85 133.06 711.05 136.14 724.41C138.37 734.08 140.59 743.76 141.99 753.6C142.61 757.95 143.35 762.29 144.03 766.63C143.95 768.5 143.86 770.36 144.66 772.12C144.71 772.81 144.77 773.5 144.82 774.19C144.82 774.69 144.82 775.19 144.83 775.69C144.57 778.76 145.58 781.71 145.64 784.75C145.48 785.83 145.38 786.9 146 788.14C146.41 786.91 146.46 785.86 146.22 784.79C146.55 780.17 146.3 775.55 146.06 770.93C146.04 770.45 145.78 769.99 145.63 769.52C145.57 767.8 145.52 766.09 145.46 764.37C145.68 758.08 145.41 751.8 145.21 745.53C145.2 745.17 144.99 744.82 144.87 744.47C144.89 743.47 144.94 742.46 144.93 741.46C144.83 734.54 144.48 727.64 144.16 720.73C143.64 709.68 143.38 698.62 143.03 687.56C142.95 684.92 142.85 682.28 142.38 679.68C143 673.36 141.37 667.14 141.61 660.84C141.61 660.72 141.59 660.58 141.55 660.47C140.86 658.78 141.04 656.99 140.98 655.24C140.94 654.23 141.08 653.16 140.78 652.23C140.23 650.5 140.28 648.75 140.22 646.99C140.19 646.11 140.33 645.17 140.09 644.35C139.31 641.75 139.54 639.1 139.45 636.46C139.42 635.58 139.58 634.64 139.34 633.82C138.5 630.97 138.8 628.06 138.69 625.18C138.65 624.17 138.82 623.1 138.53 622.17C137.85 619.94 138 617.67 137.97 615.41C137.93 612.26 137.93 609.1 137.91 605.94C137.91 605.06 138.04 604.12 137.79 603.3C137.07 600.95 137.26 598.55 137.25 596.16C137.23 592.37 137.25 588.59 137.26 584.8C137.26 583.92 137.12 582.98 137.36 582.16C138.12 579.56 137.88 576.9 137.91 574.27C137.96 569.47 137.96 564.68 137.99 559.88C137.99 558.87 137.87 557.8 138.16 556.87C138.74 555.01 138.77 553.13 138.68 551.25C138.42 545.82 139.79 540.47 139.54 535.04C139.52 534.67 139.64 534.29 139.68 533.92C140.11 529.8 140.76 525.7 140.92 521.57C141.07 517.79 142.09 514.1 141.85 510.3C141.85 510.18 141.87 510.05 141.9 509.93C142.91 506.78 142.76 503.45 143.08 500.23C143.45 496.49 144.35 492.77 144.07 488.97C144.04 488.6 144.1 488.21 144.19 487.84C145.16 483.91 145 479.85 145.4 475.86C145.85 471.37 146.7 466.88 146.35 462.32C146.33 462.07 146.35 461.8 146.43 461.57C147.22 459.37 146.99 457.08 147.04 454.82C147.09 452.8 146.82 450.72 147.25 448.78C147.8 446.27 147.72 443.77 147.8 441.26C147.86 439.24 147.58 437.16 147.99 435.22C148.56 432.58 148.5 429.96 148.53 427.32C148.58 423.03 148.58 418.74 148.61 414.45C149.49 413.67 149.3 412.61 149.3 411.62C149.32 407.21 149.32 402.79 149.36 398.38C149.36 397.67 149.1 396.89 149.74 396.27C150.33 397.07 150.06 397.98 150.07 398.84C150.1 404.77 150.09 410.69 150.12 416.62C150.12 417.87 150.1 419.12 150.42 420.37C151.24 423.59 151.09 426.92 150.63 430.13C150.31 432.39 150.13 434.61 150.11 436.87C150.08 440.78 150.1 444.69 150.07 448.6C150.07 449.61 150.21 450.69 149.88 451.6C149.23 453.45 149.37 455.33 149.33 457.21C149.28 459.73 149.62 462.32 149.14 464.75C148.62 467.39 148.61 469.99 148.57 472.63C148.49 477.03 147.42 481.36 147.75 485.78C147.77 486.02 147.72 486.3 147.63 486.52C146.88 488.2 147.1 489.99 147.06 491.74C147.03 492.87 147.24 494.08 146.92 495.13C146.16 497.61 146.37 500.12 146.29 502.62C146.26 503.5 146.41 504.45 146.12 505.25C145.46 507.09 145.57 508.97 145.53 510.86C145.51 511.74 145.66 512.69 145.38 513.49C144.65 515.58 144.83 517.72 144.77 519.85C144.75 520.73 144.91 521.68 144.63 522.48C143.82 524.82 144.08 527.21 144.01 529.6C143.98 530.61 144.2 531.68 143.93 532.61C142.89 536.21 143.38 539.87 143.25 543.5C143.19 545.13 143.25 546.75 142.72 548.36C142.41 549.28 142.52 550.35 142.52 551.36C142.51 570.4 142.51 589.44 142.52 608.49C142.52 609.61 142.54 610.78 142.83 611.85C143.17 613.1 143.21 614.33 143.25 615.59C143.36 618.97 142.9 622.4 143.95 625.72C144.1 626.18 144.04 626.73 144 627.23C143.68 630.9 144.57 634.5 144.96 638.09C145.44 642.42 145.91 646.79 146.85 651.09C147.27 653.01 147.69 655 147.82 657.02C147.98 659.52 148.32 662.01 148.72 664.48C149.31 668.19 150.01 671.88 150.08 675.65C150.08 676.15 150.03 676.7 150.21 677.15C151.02 679.22 150.8 681.37 150.83 683.5C150.85 685.27 150.83 687.03 150.83 688.8C150.83 689.56 150.86 690.32 151.49 690.88C151.71 695 152.05 699.11 152.14 703.23C152.31 710.98 152.34 718.73 152.43 726.48C152.36 727.73 152.23 728.98 152.23 730.23C152.27 740.92 152.33 751.61 152.4 762.3C152.42 765.95 152.49 769.59 152.56 773.24C152.57 773.96 152.44 774.8 153.4 775.16C154 774.13 153.97 773.02 153.8 771.9C155.11 764.21 156.36 756.51 158.9 749.09C159.26 748.03 159.38 746.88 159.5 745.75C159.98 741.37 160.36 736.98 160.88 732.61C161.94 723.61 163.16 714.63 164.1 705.62C164.58 701 165.33 696.38 165.07 691.7C165.42 688.07 165.54 684.42 165.8 680.78C166.22 675 166.64 669.24 167.39 663.49C168.28 656.63 168.92 649.74 169.92 642.9C171.32 633.32 173.46 623.86 175.51 614.4C177 607.51 178.69 600.67 180.21 593.79C182.84 581.88 185.41 569.95 187.98 558.02C189.79 549.66 191.61 541.31 193.34 532.93C195.09 524.43 196.74 515.91 198.43 507.4C199.78 500.62 201.09 493.82 202.51 487.05C203.26 483.48 204.08 479.93 205.36 476.5C206.29 477.05 206.06 477.99 206.16 478.82C205.9 480.17 205.64 481.52 205.38 482.87C204.42 487.78 203.36 492.67 202.54 497.61C201.95 501.18 200.97 504.7 200.89 508.35C200.38 511.05 199.79 513.73 199.38 516.45C197.98 525.84 196.08 535.13 194.25 544.44C193.55 547.98 192.44 551.47 192.41 555.13C191.92 555.57 191.76 556.12 191.85 556.76C191.78 557.48 191.72 558.2 191.65 558.92C191.19 559.4 191.09 560.01 190.97 560.64C189.5 568.03 188.03 575.42 186.51 582.81C185.29 588.72 183.95 594.6 182.74 600.51C180.72 610.35 178.68 620.2 176.82 630.07C176.1 633.89 175.19 637.7 175.02 641.61C173.97 642.61 174.27 643.93 174.33 645.11C174.39 646.29 173.29 647.32 173.97 648.84C175.15 647.2 175.54 645.55 175.81 643.86C180.04 630 185.52 616.66 192.69 604.05C196.04 598.15 199.45 592.29 203.86 587.09C204.27 586.81 204.73 586.57 205.09 586.24C210.07 581.74 215.47 577.89 221.64 575.16C230.18 571.39 238.5 571.64 246.5 576.64C248.09 577.63 249.69 578.76 250.9 580.16C254.21 583.97 257.09 588.1 258.63 592.98C259.18 594.71 260.17 596.47 259.24 598.4H259.19Z" fill="#EDB357"/>
<path d="M151.45 690.85C150.82 690.29 150.79 689.53 150.79 688.77C150.79 687 150.81 685.24 150.79 683.47C150.76 681.34 150.98 679.18 150.17 677.12C150 676.67 150.05 676.12 150.04 675.62C149.97 671.85 149.27 668.16 148.68 664.45C148.29 661.98 147.95 659.48 147.78 656.99C147.65 654.97 147.23 652.98 146.81 651.06C145.87 646.76 145.39 642.39 144.92 638.06C144.52 634.47 143.63 630.87 143.96 627.2C144 626.7 144.06 626.16 143.91 625.69C142.86 622.36 143.31 618.94 143.21 615.56C143.17 614.3 143.13 613.07 142.79 611.82C142.5 610.75 142.48 609.58 142.48 608.46C142.46 589.42 142.47 570.38 142.48 551.33C142.48 550.32 142.38 549.25 142.68 548.33C143.22 546.72 143.16 545.11 143.21 543.47C143.33 539.84 142.85 536.17 143.89 532.58C144.16 531.65 143.94 530.57 143.97 529.57C144.03 527.19 143.78 524.79 144.59 522.45C144.86 521.65 144.7 520.7 144.73 519.82C144.78 517.69 144.61 515.55 145.34 513.46C145.62 512.66 145.47 511.71 145.49 510.83C145.53 508.95 145.42 507.07 146.08 505.22C146.36 504.43 146.22 503.47 146.25 502.59C146.33 500.08 146.11 497.57 146.88 495.1C147.2 494.06 146.99 492.85 147.02 491.71C147.07 489.95 146.85 488.17 147.59 486.49C147.69 486.27 147.73 485.99 147.71 485.75C147.38 481.33 148.45 477 148.53 472.6C148.58 469.97 148.58 467.36 149.1 464.72C149.58 462.29 149.24 459.7 149.29 457.18C149.33 455.3 149.18 453.42 149.84 451.57C150.16 450.66 150.02 449.57 150.03 448.57C150.05 444.66 150.03 440.75 150.07 436.84C150.09 434.58 150.26 432.36 150.59 430.1C151.05 426.89 151.19 423.56 150.38 420.34C150.06 419.09 150.09 417.84 150.08 416.59C150.06 410.66 150.07 404.74 150.03 398.81C150.03 397.96 150.29 397.04 149.7 396.24C149.06 396.86 149.33 397.64 149.32 398.35C149.28 402.76 149.29 407.18 149.26 411.59C149.26 412.58 149.44 413.63 148.56 414.42C148.55 411.15 148.6 407.88 148.51 404.62C148.38 400 149.04 395.33 147.82 390.75C147.63 390.04 147.78 389.25 147.77 388.49C147.75 386.98 147.73 385.48 147.7 383.97C147.7 383.31 147.88 382.73 148.42 382.31C148.86 381.97 149.39 381.85 149.78 382.26C150.29 382.8 150.82 383.39 151.09 384.06C151.8 385.81 152.44 387.59 152.98 389.39C154.78 395.42 156.5 401.48 158.29 407.52C160.8 415.98 162.49 424.64 164.39 433.25C167.36 446.66 169.59 460.21 171.44 473.82C173.92 492.08 175.61 510.39 175.28 528.84C175.21 533.13 175.03 537.41 174.9 541.69C174.11 542.52 174.24 543.59 174.31 544.56C174.61 548.8 173.46 552.75 172.15 556.72C169.31 565.32 166.28 573.84 163.13 582.33C159.9 591.05 157.31 599.99 155.48 609.12C153.9 617 152.72 624.95 152.99 633.04C153.09 636.06 153.11 639.09 153.02 642.11C152.93 645.41 153.68 648.6 154.1 651.83C154.55 655.31 155.43 658.73 155.48 662.26C155.04 664.72 154.57 667.18 154.17 669.65C153.03 676.68 151.71 683.7 151.43 690.84L151.45 690.85Z" fill="#FFCD7E"/>
<path d="M123.48 682.6C122.09 680.61 121.54 678.26 120.64 676.06C116.18 665.18 113.24 653.85 110.59 642.43C109.29 636.79 107.91 631.16 106.69 625.5C104.69 616.28 102.7 607.05 100.87 597.79C99.2602 589.65 97.8302 581.47 96.4102 573.28C94.8202 564.11 93.2902 554.92 91.8302 545.73C90.7402 538.9 89.7402 532.05 88.8102 525.19C88.3702 521.95 88.4102 518.63 87.8102 515.43C86.9602 510.94 87.5302 506.35 86.5802 501.89C86.3702 500.92 86.4402 499.88 86.4402 498.87C86.4402 488.02 86.3202 477.16 86.5602 466.31C86.6602 461.66 87.2702 457.02 87.2102 452.35C87.6502 451.86 87.8402 451.26 87.8202 450.62C87.6802 445.84 88.4902 441.12 88.7702 436.37C89.6802 435.45 89.4102 434.28 89.4202 433.19C89.4602 430.21 89.0102 427.14 89.5802 424.26C90.1402 421.4 90.0002 418.58 90.2602 415.76C91.2702 417.14 91.3302 418.83 91.5802 420.41C92.4602 425.99 93.1602 431.61 94.0202 437.19C96.7502 454.95 99.4902 472.71 103.89 490.15C106.38 500.02 109.29 509.78 112.01 519.59C113.14 523.65 114.27 527.7 115.5 532.11C115.94 530.96 116.25 530.17 116.55 529.38C116.6 530.01 116.81 530.67 116.67 531.25C116.1 533.78 116.58 536.15 117.28 538.6C118.93 544.4 120.3 550.26 121.44 556.19C122.27 560.5 123.07 564.8 123.62 569.17C124.18 573.65 125.06 578.09 125.04 582.63C125.04 582.88 125.01 583.15 125.08 583.38C126.17 586.83 125.64 590.39 125.8 593.9C125.85 595.03 125.77 596.21 126.07 597.27C126.46 598.64 126.51 600 126.51 601.39C126.51 611.11 126.51 620.83 126.51 630.55C126.51 631.81 126.34 633.04 126.12 634.29C125.6 637.27 125.41 640.29 126.43 643.24C126.21 643.54 125.85 643.81 125.8 644.13C125.54 646.13 125.25 648.13 125.14 650.13C124.76 657.3 124.46 664.47 124.1 671.65C123.92 675.29 123.67 678.93 123.46 682.57L123.48 682.6Z" fill="#FFEBB7"/>
<path d="M126.45 643.26C125.43 640.31 125.62 637.29 126.14 634.31C126.36 633.06 126.53 631.83 126.53 630.57C126.53 620.85 126.53 611.13 126.53 601.41C126.53 600.02 126.48 598.66 126.09 597.29C125.79 596.22 125.87 595.05 125.82 593.92C125.66 590.41 126.19 586.85 125.1 583.4C125.03 583.17 125.06 582.9 125.06 582.65C125.08 578.11 124.2 573.67 123.64 569.19C123.09 564.82 122.29 560.53 121.46 556.21C120.32 550.28 118.94 544.42 117.3 538.62C116.61 536.17 116.13 533.8 116.69 531.27C116.82 530.68 116.62 530.02 116.57 529.4C116.89 521.83 118.02 514.34 119.43 506.92C122.95 488.34 127.59 470.02 132.22 451.7C135.86 437.29 139.76 422.94 142.78 408.37C144.31 400.97 145.62 393.52 147.02 386.1C147.16 385.36 147.15 384.58 147.71 383.99C147.73 385.5 147.76 387 147.78 388.51C147.79 389.26 147.64 390.06 147.83 390.77C149.05 395.35 148.4 400.01 148.52 404.64C148.61 407.91 148.56 411.18 148.57 414.44C148.55 418.73 148.55 423.02 148.5 427.31C148.47 429.95 148.53 432.57 147.96 435.21C147.54 437.15 147.83 439.23 147.77 441.25C147.7 443.76 147.77 446.25 147.22 448.77C146.79 450.7 147.06 452.79 147.01 454.81C146.95 457.07 147.19 459.36 146.4 461.56C146.32 461.79 146.3 462.06 146.32 462.31C146.66 466.87 145.81 471.36 145.37 475.85C144.97 479.84 145.13 483.9 144.16 487.83C144.07 488.19 144.01 488.58 144.04 488.96C144.31 492.76 143.42 496.49 143.05 500.22C142.73 503.44 142.88 506.77 141.87 509.92C141.83 510.04 141.81 510.17 141.82 510.29C142.06 514.09 141.03 517.78 140.89 521.56C140.73 525.69 140.09 529.8 139.65 533.91C139.61 534.29 139.5 534.66 139.51 535.03C139.76 540.46 138.39 545.8 138.65 551.24C138.74 553.12 138.71 555 138.13 556.86C137.84 557.79 137.97 558.86 137.96 559.87C137.93 564.67 137.93 569.46 137.88 574.26C137.85 576.9 138.09 579.55 137.33 582.15C137.09 582.97 137.23 583.91 137.23 584.79C137.22 588.58 137.2 592.36 137.22 596.15C137.23 598.54 137.04 600.93 137.76 603.29C138.01 604.1 137.87 605.04 137.88 605.93C137.91 609.09 137.9 612.24 137.94 615.4C137.97 617.66 137.82 619.92 138.5 622.16C138.78 623.09 138.62 624.16 138.66 625.17C138.77 628.06 138.47 630.97 139.31 633.81C139.55 634.63 139.39 635.57 139.42 636.45C139.51 639.09 139.28 641.74 140.06 644.34C140.31 645.16 140.16 646.09 140.19 646.98C140.24 648.74 140.19 650.49 140.75 652.22C141.05 653.15 140.91 654.22 140.95 655.23C141.01 656.99 140.83 658.77 141.52 660.46C141.57 660.57 141.59 660.71 141.58 660.83C141.34 667.13 142.97 673.36 142.35 679.67C141.97 679.04 141.51 678.44 141.21 677.77C138.53 671.85 135.83 665.92 133.21 659.97C130.79 654.48 128.29 649.02 126.45 643.29V643.26Z" fill="#FFEBB7"/>
<path d="M155.499 662.26C155.449 658.73 154.569 655.31 154.119 651.83C153.699 648.6 152.949 645.41 153.039 642.11C153.129 639.09 153.109 636.06 153.009 633.04C152.739 624.95 153.919 617 155.499 609.12C157.329 600 159.909 591.05 163.149 582.33C166.299 573.84 169.329 565.31 172.169 556.72C173.479 552.75 174.629 548.81 174.329 544.56C174.259 543.59 174.129 542.52 174.919 541.69C175.039 542.68 175.149 543.66 175.359 545.41C176.859 539.5 178.259 534.33 179.489 529.13C183.509 512.18 188.979 495.7 195.629 479.62C198.659 472.28 202.399 465.26 206.489 458.44C206.739 458.02 207.149 457.7 207.489 457.33C207.809 459.26 208.289 461.17 207.659 463.16C207.439 463.86 207.659 464.66 208.399 465.12C208.359 465.37 208.319 465.63 208.279 465.88C207.719 466.25 207.609 466.8 207.639 467.41C207.599 469.08 206.789 470.54 206.379 472.11C205.999 473.55 205.219 474.9 205.329 476.47C204.049 479.9 203.219 483.45 202.479 487.02C201.059 493.79 199.749 500.58 198.399 507.37C196.709 515.88 195.059 524.4 193.309 532.9C191.579 541.28 189.759 549.63 187.949 557.99C185.369 569.92 182.799 581.84 180.179 593.76C178.659 600.64 176.969 607.48 175.479 614.37C173.439 623.83 171.299 633.29 169.889 642.87C168.889 649.71 168.249 656.61 167.359 663.46C166.609 669.21 166.189 674.97 165.769 680.75C165.509 684.39 165.389 688.04 165.039 691.67C164.889 691.47 164.669 691.3 164.599 691.08C161.909 682.52 158.759 674.11 156.749 665.34C156.499 664.27 156.289 663.13 155.509 662.25L155.499 662.26Z" fill="#FFEBB7"/>
<path d="M14.2795 485.06C14.1095 484.74 13.8495 484.43 13.7795 484.08C13.6695 483.6 13.6495 483.05 14.1595 482.74C14.6295 482.45 15.1595 482.49 15.5495 482.86C16.4495 483.73 17.3395 484.62 18.1695 485.56C25.5495 493.98 32.3695 502.84 39.4295 511.52C46.5695 520.3 53.4295 529.28 59.6595 538.74C60.0695 539.36 60.3795 540.05 60.7395 540.71C60.8495 541.37 61.2195 541.87 61.6995 542.29C63.1495 543.55 64.0795 545.22 65.0895 546.8C66.9795 549.76 68.8395 552.76 70.5895 555.81C72.7095 559.52 74.8195 563.25 76.7095 567.08C78.2695 570.23 79.4495 573.56 80.8995 576.77C83.5895 582.74 85.7195 588.92 87.8795 595.08C89.4895 599.7 90.6795 604.46 92.1395 609.14C95.2895 619.21 97.8895 629.41 100.29 639.68C102.28 648.23 104.46 656.73 106.54 665.26C107.46 669.04 108.33 672.83 109.22 676.61C109.25 677.17 109.29 677.72 109.9 678C109.94 678.49 109.98 678.98 110.02 679.46C109.85 680.11 109.99 680.68 110.51 681.12C111.41 684.87 112.33 688.62 113.2 692.37C113.9 695.39 115.07 698.31 115.32 701.43C114.98 701.08 114.53 700.79 114.31 700.37C111.86 695.82 109.44 691.25 107.01 686.7C106.42 685.59 105.73 684.53 105.16 683.41C102.71 678.57 100.15 673.79 97.9095 668.86C95.1495 662.79 92.6595 656.6 90.0695 650.45C87.0795 643.38 84.0995 636.3 81.1295 629.22C78.8395 623.77 76.6895 618.25 74.2395 612.87C71.2095 606.22 67.9495 599.67 64.7795 593.09C64.0095 591.5 63.1995 589.93 62.4695 588.32C60.4295 583.85 58.5295 579.32 56.3895 574.91C53.1995 568.34 49.9995 561.77 47.2095 555.01C45.4295 550.7 43.4895 546.47 41.6395 542.19C40.3395 539.19 39.0795 536.17 37.7795 533.17C35.8195 528.67 33.8495 524.17 31.8795 519.68C29.7095 512.99 27.3395 506.37 24.2695 500.02C23.9795 499.47 23.8095 498.79 23.3795 498.39C21.5695 496.72 20.6095 494.53 19.8595 492.31C18.8395 489.3 17.1195 486.71 15.1995 484.29C14.4395 483.33 14.6195 484.8 14.2895 485.07L14.2795 485.06Z" fill="#FFEBB7"/>
<path d="M100.51 768.24C92.3197 762.44 85.0997 755.66 79.1197 747.57C71.5397 737.32 65.5597 726.3 62.4897 713.85C60.7697 706.87 59.2797 699.84 57.6097 692.86C55.8197 685.36 53.7097 677.97 50.0397 671.13C48.4297 668.12 46.6997 665.18 44.4697 662.58C41.5797 659.21 38.3997 656.17 34.2197 654.41C29.1997 649.35 23.5597 645.52 16.2697 644.47C13.1997 644.03 10.3597 644.58 7.47969 645.34C5.48969 645.87 4.10969 647.42 2.42969 648.48C4.42969 640.63 8.55969 634.04 14.4897 628.61C17.2397 626.09 20.1597 623.72 23.5697 622.08C24.6997 623.07 25.9597 622.65 27.1597 622.35C30.9897 621.41 34.7697 622.08 38.2697 623.38C43.5297 625.33 48.0797 628.64 51.5897 633.06C57.2497 640.18 62.2197 647.72 65.3997 656.36C67.6697 662.51 70.0197 668.6 71.4497 675.02C72.6797 680.54 74.0797 686.02 75.4097 691.52C77.0997 698.49 79.0297 705.39 80.9497 712.3C83.7197 722.26 87.1997 731.97 90.6797 741.69C93.8597 750.57 97.2197 759.39 100.5 768.24H100.51Z" fill="#FFEBB7"/>
<path d="M174.1 821.81C173.42 821.08 173.61 820.17 173.58 819.3C173.5 816.66 173.65 814.01 172.97 811.41C172.7 810.4 172.95 809.42 173.32 808.46C174.36 805.76 175.29 803.02 176.42 800.36C179.42 793.28 182.91 786.46 186.93 779.89C192.2 771.28 198.25 763.27 204.64 755.47C211.92 746.58 220.14 738.6 228.21 730.47C231.49 727.16 234.78 723.85 238.06 720.54C246.62 711.93 253.85 702.28 260.35 692.06C260.55 691.75 260.62 691.36 260.74 691C261.24 690.44 261.75 689.89 262.25 689.33C262.46 689.08 262.68 688.83 262.89 688.57C263.13 688.31 263.38 688.04 263.62 687.77L263.57 687.72C264.9 688.23 265.02 689.53 265.52 690.6C265.76 691.11 266.3 691.72 266.78 691.79C267.19 691.85 267.7 691.2 268.17 690.86C267.52 695.48 266.33 699.98 265.12 704.46C263.08 712 260.8 719.46 257.62 726.63C253.71 735.44 248.73 743.59 242.98 751.28C237.4 758.75 231.65 766.1 225.45 773.08C220.5 778.65 215.13 783.81 209.26 788.4C199.83 795.79 190.65 803.47 181.85 811.6C179.91 813.4 178.13 815.37 176.18 817.15C174.78 818.43 174.12 819.94 174.11 821.79L174.1 821.81Z" fill="#FFEBB7"/>
<path d="M109.209 676.6C108.319 672.82 107.449 669.03 106.529 665.25C104.449 656.72 102.269 648.22 100.279 639.67C97.8895 629.4 95.2795 619.2 92.1295 609.13C90.6695 604.46 89.4895 599.69 87.8695 595.07C85.7095 588.91 83.5795 582.72 80.8895 576.76C79.4395 573.55 78.2595 570.22 76.6995 567.07C74.8095 563.24 72.6995 559.51 70.5795 555.8C68.8395 552.75 66.9795 549.75 65.0795 546.79C64.0695 545.21 63.1395 543.54 61.6895 542.28C61.2095 541.86 60.8295 541.36 60.7295 540.7C61.0695 540.56 61.5995 540.51 61.6995 540.27C61.8995 539.84 61.8895 539.29 61.8895 538.79C61.8995 531.35 62.2095 523.93 62.9195 516.52C63.6695 508.73 65.1195 501.08 67.0195 493.5C71.3995 476.04 76.3295 458.73 81.5095 441.49C83.7195 434.14 85.6395 426.7 87.3095 419.2C87.6095 417.86 88.0795 416.55 88.5595 415.26C88.6595 414.99 89.1195 414.68 89.4095 414.69C89.9895 414.71 90.1795 415.23 90.2495 415.75C89.9895 418.58 90.1395 421.4 89.5695 424.25C88.9995 427.12 89.4495 430.19 89.4095 433.18C89.3995 434.27 89.6695 435.44 88.7595 436.36C88.4795 434.63 88.9795 432.82 88.2395 431.11C87.7195 434.18 87.4295 437.26 87.0795 440.33C86.8295 442.55 86.1095 444.72 86.4295 446.99C85.9695 450.98 85.5095 454.98 85.0495 458.97C85.0195 459.22 84.9495 459.47 84.9595 459.72C85.0095 464.14 84.2795 468.52 84.2095 472.91C84.0395 484.14 84.0595 495.37 84.1595 506.6C84.1995 511.5 84.7795 516.38 85.4395 521.24C85.7795 523.73 85.9495 526.24 86.2395 528.74C87.0995 535.98 88.1795 543.18 89.2795 550.39C90.1695 556.23 90.8395 562.1 91.7395 567.94C92.8295 575.02 94.1595 582.06 95.2095 589.14C96.6795 599.1 98.8995 608.91 100.819 618.78C102.619 628.03 104.619 637.25 106.519 646.48C107.889 653.13 109.379 659.76 111.129 666.32C112.619 671.92 114.199 677.49 116.359 682.88C116.809 684.02 117.479 685.17 117.259 686.5C114.819 684.28 113.149 681.44 111.209 678.82C111.209 678.38 110.979 678.14 110.569 678.02C110.459 677.2 109.889 676.82 109.189 676.58L109.209 676.6Z" fill="#FFEBB7"/>
<path d="M14.2798 485.06C14.6098 484.79 14.4198 483.32 15.1898 484.28C17.1198 486.7 18.8298 489.29 19.8498 492.3C20.5998 494.52 21.5598 496.7 23.3698 498.38C23.7998 498.78 23.9698 499.46 24.2598 500.01C23.6298 500.45 23.7098 500.98 23.9398 501.64C26.1698 507.98 28.3698 514.33 30.5898 520.67C30.6598 520.88 30.9198 521.03 31.0898 521.21C31.7898 523.76 32.5598 526.27 33.6898 528.68C34.8698 531.19 36.0098 533.71 37.0298 536.29C41.1798 546.82 45.2198 557.39 49.8398 567.73C50.8698 570.03 51.8798 572.33 52.9098 574.63C54.3598 577.84 55.8498 581.04 57.2898 584.26C60.3798 591.15 63.4498 598.05 66.5398 604.93C67.9798 608.15 69.5498 611.31 70.9098 614.56C74.5898 623.38 77.8798 632.36 81.5098 641.2C84.4198 648.29 87.0598 655.5 89.9198 662.62C92.9298 670.1 96.4398 677.35 99.6598 684.72C100.71 687.13 102.24 689.33 103.44 691.68C106.36 697.41 109.22 703.17 112.1 708.93C112.49 709.71 112.97 710.48 112.84 711.43C111.09 710 109.34 708.57 107.6 707.13C104.11 704.24 100.8 701.13 97.0198 698.61C96.0398 693.94 94.9898 689.29 94.0898 684.6C91.4998 671.16 87.1498 658.35 80.7798 646.23C78.0598 641.06 74.5798 636.47 70.5598 632.26C68.8098 630.43 66.8398 628.87 64.8798 627.29C58.2898 621.96 50.9798 618.26 42.4198 617.35C41.6898 617.27 40.9998 616.9 40.2898 616.66C37.7798 607.81 36.0898 598.79 34.8198 589.69C33.7098 581.72 32.4898 573.76 31.3498 565.79C30.5198 559.94 29.7898 554.07 28.9598 548.21C27.1298 535.24 24.3598 522.46 20.8798 509.84C18.8798 502.56 16.8698 495.29 14.8798 488.01C14.6198 487.04 14.4598 486.05 14.2598 485.07L14.2798 485.06Z" fill="#FFCD7E"/>
<path d="M208.39 465.14C207.65 464.67 207.43 463.87 207.65 463.18C208.28 461.19 207.8 459.28 207.48 457.35C210.05 452.41 213.33 447.95 216.62 443.49C216.84 443.19 217.11 442.87 217.44 442.73C217.74 442.59 218.17 442.61 218.5 442.7C218.65 442.74 218.84 443.13 218.81 443.33C218.7 444.07 218.55 444.81 218.33 445.52C216.25 452.41 214.96 459.47 213.85 466.57C213.36 469.68 213.17 472.83 212.96 475.98C212.48 483.15 212.05 490.32 211.65 497.49C211.5 500.26 211.42 503.04 211.42 505.81C211.43 514.89 211.17 523.99 211.62 533.05C212.22 545.15 212.23 557.25 212.23 569.35C212.23 570.86 212.19 572.38 212.17 573.89C212.17 574.53 212.23 575.15 212.84 575.54C210.71 577.43 208.94 579.66 207.22 581.9C205.96 583.54 204.28 584.95 203.81 587.12C199.4 592.32 195.99 598.18 192.64 604.08C185.46 616.7 179.98 630.03 175.76 643.89C174.84 643.37 175.13 642.42 174.97 641.64C175.14 637.73 176.05 633.92 176.77 630.1C178.64 620.23 180.67 610.38 182.69 600.54C183.9 594.63 185.24 588.75 186.46 582.84C187.98 575.46 189.45 568.07 190.92 560.67C191.04 560.04 191.14 559.43 191.6 558.95C191.67 559.19 191.66 559.5 191.82 559.66C192.2 560.05 192.32 559.76 192.45 559.38C193.44 556.55 193.88 553.57 195.05 550.79C195.24 550.33 195.37 549.84 195.45 549.34C196.2 544.9 197.16 540.48 197.62 536.01C198.06 531.75 199.06 527.62 199.88 523.45C200.31 521.24 200.56 518.99 200.76 516.75C200.89 515.25 200.86 513.77 201.31 512.28C201.69 511.02 201.97 509.55 200.84 508.36C200.92 504.71 201.9 501.19 202.49 497.62C203.3 492.69 204.37 487.79 205.33 482.88C205.59 481.53 205.85 480.18 206.11 478.83C206.32 478.52 206.64 478.25 206.72 477.91C208.02 472.31 209.38 466.74 211.25 461.3C211.32 461.11 211.16 460.83 211.07 460.39C209.55 461.73 209.57 463.8 208.38 465.15L208.39 465.14Z" fill="#FFEBB7"/>
<path d="M203.81 587.09C204.28 584.92 205.96 583.51 207.22 581.87C208.94 579.63 210.71 577.4 212.84 575.51C221.64 565.24 232.57 558.3 245.6 554.68C245.83 554.62 246.09 554.68 246.34 554.68C246.78 554.89 247.2 555.2 247.67 555.28C250.5 555.8 253.33 556.31 256.17 556.76C260.48 557.43 263.92 559.85 266.78 562.82C270.01 566.18 272.31 570.31 274.01 574.67C276.84 581.93 278.89 589.43 280.28 597.1C281.18 602.05 282.2 606.97 284.1 611.63C286.04 616.39 288.05 621.16 291.68 624.98C293.02 627.16 294.94 628.84 296.84 630.44C299.81 632.95 303.09 635.06 306.81 636.36C306.95 636.88 307.94 637.05 307.41 637.86C306.02 637.86 304.63 637.76 303.26 637.88C298.37 638.28 293.81 636.82 289.39 635.12C283.26 632.76 278 628.94 273.27 624.4C272.07 623.25 271.1 621.98 270.46 620.45C270.21 620.2 269.96 619.94 269.71 619.69C269.46 619.44 269.21 619.18 268.96 618.93C268.96 618.68 268.95 618.43 268.95 618.18C268.7 617.93 268.45 617.67 268.2 617.42C268.19 616.79 268.06 616.23 267.44 615.91C267.19 615.66 266.94 615.4 266.69 615.15C265.93 612.47 264.29 610.23 263 607.82C262.8 607.45 262.5 607.32 262.24 607.77C262.12 607.98 262.12 608.26 262.07 608.5C261.14 606.74 261.01 604.77 260.6 602.87C260.27 601.35 260.32 599.7 259.21 598.42C260.13 596.49 259.15 594.73 258.6 593C257.06 588.12 254.18 583.98 250.87 580.18C249.65 578.78 248.05 577.65 246.47 576.66C238.47 571.66 230.15 571.41 221.61 575.18C215.44 577.9 210.04 581.76 205.06 586.26C204.69 586.59 204.24 586.83 203.83 587.11L203.81 587.09Z" fill="#FFEBB7"/>
<path d="M40.3 616.66C41.01 616.9 41.7 617.27 42.43 617.35C50.99 618.26 58.3 621.96 64.89 627.29C66.85 628.87 68.82 630.43 70.57 632.26C74.59 636.48 78.07 641.07 80.79 646.23C87.16 658.35 91.51 671.17 94.1 684.6C95 689.28 96.05 693.94 97.03 698.61C97.14 699.48 97.21 700.36 97.36 701.23C98.27 706.43 99.26 711.62 100.11 716.84C100.86 721.43 101.54 726.04 102.12 730.65C102.79 736.02 103.29 741.41 103.9 746.78C104.27 750.03 104.69 753.27 105.09 756.52C105.26 757.89 105.49 759.26 105.26 760.66C104.43 759.98 104.24 758.96 103.86 758.03C101.86 753.13 99.96 748.19 97.83 743.35C90.84 727.52 85.71 711.05 81.09 694.42C78.49 685.08 76.26 675.64 73.08 666.48C69.34 655.69 64.37 645.57 57.27 636.54C53.5 631.74 49.35 627.49 43.99 624.38C40.26 622.22 36.45 620.99 32.18 621.06C30.04 621.09 27.9 621.11 25.75 621.13C29.3 618.76 33.36 618.01 37.47 617.39C38.44 617.24 39.52 617.53 40.31 616.67L40.3 616.66Z" fill="#FFEBB7"/>
<path d="M2.43967 648.49C4.11967 647.43 5.49967 645.88 7.48967 645.35C10.3697 644.58 13.2097 644.03 16.2797 644.48C23.5697 645.53 29.2097 649.36 34.2297 654.42C29.0497 661.1 26.5197 668.72 25.6797 677.1C24.7297 686.47 25.5997 695.76 26.1897 705.07C26.6797 712.89 26.5797 720.71 26.3897 728.53C26.3897 728.66 26.3897 728.78 26.3697 728.91C26.1397 731.36 25.4897 732.8 24.8597 732.36C23.6897 731.55 23.7497 730.18 23.5997 728.97C22.4397 719.59 19.5397 710.79 15.0597 702.48C12.0097 696.82 9.05967 691.1 6.08967 685.4C3.21967 679.87 1.17967 674.06 0.379667 667.86C-0.470333 661.25 0.119667 654.78 2.44967 648.5L2.43967 648.49Z" fill="#EDB357"/>
<path d="M25.7393 621.12C27.8793 621.1 30.0193 621.08 32.1693 621.05C36.4393 620.98 40.2493 622.21 43.9793 624.37C49.3393 627.48 53.4793 631.73 57.2593 636.53C64.3593 645.56 69.3293 655.69 73.0693 666.47C76.2493 675.64 78.4793 685.08 81.0793 694.41C85.6993 711.04 90.8293 727.51 97.8193 743.34C99.9593 748.18 101.849 753.12 103.849 758.02C104.229 758.94 104.419 759.96 105.249 760.65C106.119 763.14 106.919 765.65 107.869 768.11C112.279 779.51 115.509 791.24 117.569 803.29C119.479 814.45 120.569 825.7 121.359 836.99C121.519 839.24 121.379 841.53 122.189 843.69C121.329 844.23 121.219 845.05 121.359 845.95C121.529 847.04 121.739 848.12 121.939 849.2C121.919 854.48 121.899 859.76 121.879 865.04C119.659 865.04 117.439 865.03 115.219 865.02C115.129 859.98 115.029 854.93 114.939 849.89C115.149 847.84 115.529 845.77 114.329 843.85C114.519 838.43 113.819 833.06 113.319 827.69C112.669 820.69 111.739 813.71 110.619 806.77C108.499 793.61 105.219 780.73 100.499 768.23C97.2193 759.38 93.8493 750.56 90.6793 741.68C87.2093 731.96 83.7193 722.25 80.9493 712.29C79.0293 705.38 77.0893 698.48 75.4093 691.51C74.0793 686.01 72.6793 680.53 71.4493 675.01C70.0193 668.59 67.6693 662.5 65.3993 656.35C62.2193 647.71 57.2493 640.17 51.5893 633.05C48.0893 628.64 43.5393 625.33 38.2693 623.37C34.7693 622.07 30.9893 621.41 27.1593 622.34C25.9593 622.63 24.6993 623.06 23.5693 622.07C23.7693 621.92 23.9893 621.84 24.2293 621.8C24.9093 621.96 25.4193 621.73 25.7693 621.13L25.7293 621.1L25.7393 621.12Z" fill="#EDB357"/>
<path d="M259.81 690.06C257.11 693.69 254.42 697.32 251.71 700.95C249.15 704.38 246.32 707.58 243.53 710.82C239.25 715.8 234.64 720.47 229.81 724.87C222.81 731.24 216.21 737.98 209.55 744.67C204.4 749.84 199.77 755.48 195.09 761.08C190.65 766.4 186.52 771.95 182.65 777.67C179.69 782.04 176.84 786.5 174.47 791.24C173.86 792.46 173.21 793.66 172.59 794.84C171.52 794.46 171.53 793.61 171.44 792.96C171.27 791.85 171.33 790.7 171.26 789.57C170.99 785.18 171.04 780.74 170.34 776.42C169.65 772.14 169.82 767.89 169.68 763.63C169.66 762.88 169.81 762.13 169.88 761.39C170.48 762.45 170.21 763.61 170.25 764.73C170.35 767.62 170.4 770.51 170.47 773.38C171.48 773.53 171.59 772.77 171.86 772.29C178.27 760.86 186.37 750.8 196 741.9C203.33 735.13 211.05 728.83 218.86 722.64C228.47 715.02 237.45 706.71 245.8 697.74C250.62 692.57 255.46 687.42 260.68 682.65C264.22 679.42 267.81 676.24 271.4 673.06C271.86 672.65 272.41 672.33 272.96 672.04C273.3 671.86 273.71 671.94 273.96 672.26C274.1 672.44 274.23 672.72 274.2 672.94C274.14 673.43 274.03 673.93 273.84 674.39C272.95 676.61 272.03 678.82 271.11 681.03C270.53 681.4 270.42 681.96 270.49 682.58H270.51C270.07 682.42 269.45 682.38 269.23 682.07C268.65 681.26 268.02 681.55 267.34 681.74C267.36 681.25 267.39 680.75 267.41 680.25C267.5 680.21 267.61 680.2 267.69 680.13C267.74 680.09 267.73 679.99 267.74 679.92C267.63 680.03 267.52 680.14 267.42 680.25C266.01 680.9 265.14 682.11 264.32 683.35C262.83 685.6 260.7 687.41 259.78 690.05L259.81 690.06Z" fill="#FFEBB7"/>
<path d="M101.42 841.8C100.62 841.31 100.32 840.45 99.8502 839.71C95.7202 833.18 90.9102 827.2 85.3702 821.8C79.5802 816.16 73.5602 810.8 67.2302 805.78C61.0802 800.9 55.5102 795.45 51.3902 788.64C48.0202 783.08 45.8502 777.05 44.0302 770.87C42.5302 765.79 41.3402 760.64 40.9102 755.34C41.1602 754.27 40.7102 753.12 41.3302 751.94C42.2302 752.2 42.7402 752.85 43.1802 753.62C43.6702 754.48 44.1302 755.36 44.7102 756.15C44.9502 756.48 45.3702 756.24 45.6102 755.91C46.5402 756.45 46.9102 757.41 47.3902 758.29C47.8702 759.17 48.2502 760.12 49.2002 760.64C52.6602 766.5 56.8902 771.83 61.0802 777.15C65.2002 782.37 69.7202 787.28 73.9202 792.45C77.0902 796.35 80.1002 800.37 83.0402 804.44C91.0502 815.56 96.4402 828.01 101.39 840.68C101.52 841.01 101.43 841.42 101.44 841.8H101.42Z" fill="#FFEBB7"/>
<path d="M45.5894 755.91C45.3494 756.24 44.9294 756.48 44.6894 756.15C44.1094 755.36 43.6494 754.48 43.1594 753.62C42.7294 752.86 42.2094 752.21 41.3094 751.94C40.6794 753.12 41.1394 754.27 40.8894 755.34C39.7394 751.59 39.4194 747.73 39.3594 743.83C39.3594 743.46 39.4794 743.03 39.9394 743C40.2894 742.98 40.7094 743.03 40.9894 743.22C41.5094 743.56 41.9794 743.99 42.4094 744.44C48.6294 750.91 55.7894 756.27 62.7094 761.93C66.5094 765.04 70.4194 768.04 73.9694 771.41C84.3894 781.3 92.9794 792.58 98.7694 805.8C102.459 814.24 105.009 823.05 106.169 832.24C106.529 835.11 107.109 837.95 106.849 840.86C105.409 838.62 104.829 836.01 103.839 833.58C99.5194 823.04 94.3594 812.99 87.1694 804.06C80.5394 795.82 73.7994 787.66 66.6994 779.81C64.2494 777.1 61.9394 774.27 59.6094 771.46C56.3894 767.59 53.2094 763.69 50.0094 759.8C49.0094 758.12 48.0394 756.4 46.5094 755.15C45.6394 754.44 45.6194 755.3 45.5894 755.9V755.91Z" fill="#FFEBB7"/>
<path d="M252.22 553.68C252.33 553.62 252.43 553.51 252.55 553.49C259.57 552.38 266.34 552.95 272.67 556.48C276.16 558.43 278.89 561.17 280.89 564.63C283.05 568.36 284.63 572.31 285.67 576.5C287.25 582.86 288.21 589.34 289.41 595.77C290.58 602.1 292.21 608.3 294.83 614.2C296.26 617.43 298.01 620.49 300 623.41C302.9 627.65 306.67 630.93 311.1 633.48C312.19 634.11 313.31 634.7 314.34 635.41C315.48 636.2 315.45 636.86 314.41 638.52C314.28 637.71 313.91 637.15 313 637.1C311.41 637.01 309.77 637.3 308.33 636.31C307.95 636 307.62 635.61 307.2 635.4C302.36 633 298.07 629.88 294.44 625.86C293.86 625.22 293.14 624.71 292.49 624.14C291.9 623.03 291.37 621.87 290.7 620.82C287.28 615.43 285.37 609.49 284.11 603.29C283.21 598.87 282.34 594.45 281.42 590.03C279.74 581.97 276.75 574.42 272.72 567.25C270.85 563.92 268.6 560.87 265.65 558.5C261.99 555.57 258.07 553 252.97 553.78C252.73 553.82 252.48 553.71 252.23 553.67L252.22 553.68Z" fill="#FFEBB7"/>
<path d="M50.0199 759.82C53.2199 763.71 56.3999 767.61 59.6199 771.48C61.9599 774.29 64.2599 777.12 66.7099 779.83C73.8099 787.68 80.5399 795.84 87.1799 804.08C94.3599 813.01 99.5199 823.06 103.85 833.6C104.85 836.03 105.42 838.64 106.86 840.88C106.94 841.37 106.98 841.87 107.12 842.35C107.61 844.02 107.66 844.04 109.43 844.07C110.05 844.07 110.67 844.1 111.28 844.11C110.47 844.82 109.4 844.41 108.5 844.73C108.14 844.86 107.75 845.14 107.89 845.49C108.47 846.94 107.92 848.68 109.06 849.97C109.17 851.1 109.27 852.23 109.38 853.36C109.76 857.23 110.15 861.1 110.54 864.98C108.7 864.98 106.8 865.52 105.08 864.38C105.12 863.76 105.33 863.1 105.17 862.53C104.54 860.21 104.63 857.84 104.61 855.48C104.6 853.6 104.43 851.75 103.81 849.97C103.92 848.01 103.5 846.21 102.26 844.64C102.42 843.57 101.61 842.78 101.41 841.82C101.4 841.45 101.49 841.03 101.36 840.7C96.4099 828.03 91.0099 815.57 83.0099 804.46C80.0799 800.39 77.0599 796.36 73.8899 792.47C69.6899 787.3 65.1699 782.4 61.0499 777.17C56.8499 771.85 52.6299 766.52 49.1699 760.66C49.4499 760.38 49.7299 760.11 50.0099 759.83L50.0199 759.82Z" fill="#EDB357"/>
<path d="M308.32 636.33C309.75 637.32 311.4 637.04 312.99 637.12C313.89 637.17 314.27 637.73 314.4 638.54C313.24 640.15 311.5 640.91 309.73 641.52C302.36 644.06 295.04 644.29 287.72 641.14C283.31 639.24 279.07 637.11 275.5 633.86C272.05 630.72 268.93 627.3 267.42 622.74C267.47 622.09 267.33 621.52 266.71 621.18V621.16C266.7 620.31 266.85 619.39 265.79 618.97L265.82 619.02C265.94 618.33 265.83 617.73 265.1 617.42L265.12 617.45C265.19 616.79 265.06 616.22 264.42 615.88C264.88 614.36 264.9 614.36 266.36 614.99C266.47 615.04 266.58 615.08 266.69 615.13C266.94 615.38 267.19 615.64 267.44 615.89C267.46 616.51 267.59 617.08 268.2 617.4C268.45 617.66 268.7 617.91 268.95 618.16C268.95 618.41 268.95 618.66 268.96 618.91C269.21 619.16 269.46 619.42 269.71 619.67C269.96 619.92 270.21 620.18 270.46 620.43C271.1 621.96 272.08 623.23 273.27 624.38C278 628.93 283.26 632.74 289.39 635.1C293.81 636.81 298.37 638.27 303.26 637.86C304.63 637.75 306.02 637.84 307.41 637.84C307.94 637.03 306.95 636.86 306.81 636.34C307.31 636.34 307.82 636.32 308.32 636.31V636.33Z" fill="#FFCD7E"/>
<path d="M252.22 553.68C252.47 553.72 252.73 553.83 252.96 553.79C258.06 553 261.99 555.58 265.64 558.51C268.59 560.88 270.84 563.93 272.71 567.26C276.74 574.43 279.73 581.98 281.41 590.04C282.33 594.45 283.2 598.88 284.1 603.3C285.37 609.49 287.27 615.44 290.69 620.83C291.36 621.89 291.89 623.04 292.48 624.15C292.21 624.42 291.94 624.69 291.68 624.96C288.05 621.14 286.05 616.37 284.1 611.61C282.2 606.95 281.17 602.03 280.28 597.08C278.89 589.41 276.85 581.91 274.01 574.65C272.31 570.29 270 566.16 266.78 562.8C263.92 559.82 260.48 557.41 256.17 556.74C253.33 556.3 250.5 555.79 247.67 555.26C247.21 555.17 246.78 554.86 246.34 554.66C248.27 554.17 250.19 553.59 252.22 553.66V553.68Z" fill="#FFCD7E"/>
<path d="M267.36 681.74C268.04 681.55 268.67 681.25 269.25 682.07C269.47 682.38 270.09 682.42 270.53 682.58C270.05 685.43 269.09 688.15 268.15 690.87C267.68 691.21 267.17 691.86 266.76 691.8C266.28 691.73 265.74 691.12 265.5 690.61C264.99 689.53 264.88 688.23 263.55 687.73C264.29 685.4 265.66 683.46 267.36 681.74Z" fill="#FFEBB7"/>
<path d="M266.68 615.12C266.57 615.07 266.46 615.03 266.35 614.98C264.89 614.36 264.87 614.35 264.41 615.87C262.97 613.61 262.3 611.11 262.06 608.47C262.11 608.22 262.12 607.95 262.23 607.74C262.48 607.29 262.79 607.42 262.99 607.79C264.28 610.2 265.92 612.44 266.68 615.12Z" fill="#FFCD7E"/>
<path d="M265.779 618.97C266.839 619.38 266.689 620.3 266.689 621.16C265.989 620.6 265.789 619.82 265.779 618.97Z" fill="#FFCD7E"/>
<path d="M270.52 682.59C270.45 681.96 270.56 681.4 271.14 681.04C271.21 681.67 271.07 682.21 270.52 682.59Z" fill="#FFEBB7"/>
<path d="M266.7 621.18C267.32 621.53 267.46 622.09 267.41 622.74C266.85 622.36 266.65 621.83 266.7 621.18Z" fill="#FFCD7E"/>
<path d="M25.7793 621.16C25.4293 621.76 24.9193 621.98 24.2393 621.83C24.5793 621.22 25.1293 621.07 25.7793 621.16Z" fill="#FFEBB7"/>
<path d="M264.41 615.88C265.05 616.22 265.19 616.79 265.11 617.45C264.51 617.09 264.37 616.52 264.41 615.88Z" fill="#FFCD7E"/>
<path d="M265.089 617.42C265.819 617.73 265.929 618.32 265.809 619.02C265.199 618.66 265.079 618.07 265.089 617.42Z" fill="#FFCD7E"/>
<path d="M112.85 711.43C112.98 710.49 112.5 709.72 112.11 708.93C109.23 703.18 106.37 697.41 103.45 691.68C102.25 689.33 100.72 687.13 99.6696 684.72C96.4496 677.34 92.9296 670.1 89.9296 662.62C87.0696 655.5 84.4296 648.29 81.5196 641.2C77.8896 632.35 74.5996 623.38 70.9196 614.56C69.5596 611.31 67.9996 608.14 66.5496 604.93C63.4596 598.04 60.3896 591.14 57.2996 584.26C55.8596 581.04 54.3696 577.85 52.9196 574.63C51.8796 572.34 50.8696 570.03 49.8496 567.73C45.2296 557.39 41.1896 546.82 37.0396 536.29C36.0196 533.72 34.8796 531.19 33.6996 528.68C32.5696 526.27 31.7996 523.76 31.0996 521.21C31.1296 520.58 31.2596 520 31.8796 519.67C33.8496 524.17 35.8296 528.66 37.7796 533.16C39.0796 536.16 40.3396 539.18 41.6396 542.18C43.4896 546.45 45.4296 550.69 47.2096 555C49.9996 561.76 53.1996 568.33 56.3896 574.9C58.5296 579.31 60.4396 583.85 62.4696 588.31C63.1996 589.92 64.0096 591.49 64.7796 593.08C67.9496 599.67 71.2196 606.21 74.2396 612.86C76.6896 618.24 78.8396 623.76 81.1296 629.21C84.0996 636.29 87.0796 643.36 90.0696 650.44C92.6596 656.59 95.1496 662.78 97.9096 668.85C100.15 673.78 102.72 678.57 105.16 683.4C105.73 684.52 106.41 685.58 107.01 686.69C109.45 691.25 111.86 695.81 114.31 700.36C114.53 700.77 114.98 701.07 115.32 701.42C116.33 703.58 117.29 705.77 118.37 707.9C120.14 711.39 121.59 715.02 122.79 718.74C125.85 728.25 127.74 737.99 128.98 747.9C130.76 762.18 131.92 776.49 131.97 790.88C132.02 806.64 131.97 822.4 131.96 838.16C131.96 844.13 131.22 843.1 136.87 843.18C139.21 843.21 139.29 843.12 139.23 840.9C139.1 836.24 138.86 831.58 138.78 826.91C138.55 813.17 138.18 799.43 137.12 785.72C136.45 777.05 135.5 768.4 134.61 759.75C134.4 757.75 133.92 755.78 134.02 753.75C134.2 753.92 134.51 754.06 134.55 754.26C134.93 756.47 135.29 758.68 135.62 760.9C135.69 761.39 135.67 761.9 135.68 762.41C135.71 763.78 137.62 764.36 137.34 765.61C137.08 766.78 136.27 767.82 136.37 769.15C136.44 770.1 136.69 770.83 137.52 771.37C138.57 772.06 138.54 772.84 137.87 773.91C136.61 775.94 136.75 777.95 138.5 779.73C139.42 780.67 139.65 781.62 138.57 782.66C137.51 783.67 138.03 785.03 137.91 786.25C137.79 787.51 138.39 788.33 139.36 789.1C140.39 789.91 140.51 791.22 139.75 792.16C138.58 793.6 138.66 795.18 138.66 796.81C138.66 798.82 138.67 800.84 138.66 802.85C138.66 803.9 138.86 804.76 139.78 805.47C141.36 806.68 141.28 808.33 140.35 809.85C139.73 810.87 139.4 811.85 139.4 813.02C139.42 818.18 139.43 823.34 139.4 828.5C139.4 829.71 139.81 830.53 140.72 831.41C142.39 833.04 142.72 835.38 141.33 837.21C140.3 838.57 140.14 839.88 140.16 841.39C140.16 842.26 140.28 843.17 139.51 843.85C138.63 843.82 137.75 843.76 136.88 843.77C131.53 843.82 131.6 843.09 131.92 849.16L131.81 865.07C130.21 865.92 128.51 865.8 126.81 865.52C125.97 865.38 125.13 865.21 124.29 865.05C124.32 859.77 124.35 854.49 124.38 849.2C125.38 847.79 124.98 846.21 124.83 844.7C124.77 844.04 124.07 843.86 123.48 843.72C124.01 843.38 124.58 843.03 124.64 842.33C124.72 841.33 124.74 840.32 124.77 839.31C125.22 817.61 124.88 795.93 124.13 774.24C124.1 773.23 124.03 772.22 123.95 771.22C123.13 760.28 122.09 749.36 120.48 738.51C119.33 730.77 117.63 723.15 115.09 715.73C114.56 714.17 113.89 712.69 112.83 711.42L112.85 711.43Z" fill="#EDB357"/>
<path d="M161.619 824.08C161.159 816.31 161.249 808.55 162.259 800.82C162.599 798.22 163.099 795.62 163.779 793.08C164.509 790.37 164.739 787.67 164.509 784.9C164.429 783.91 164.56 782.91 164.6 781.91C165.08 782.4 165.119 783.03 165.119 783.66C165.149 785.79 165.179 787.93 165.199 790.06C165.229 792.94 165.06 795.82 165.74 798.68C166.03 799.88 165.879 801.18 165.929 802.43C165.979 803.56 165.769 804.77 166.119 805.8C166.879 808.01 166.37 810 165.52 811.99C163.94 815.69 162.779 819.52 162.009 823.47C161.969 823.69 161.74 823.88 161.6 824.08H161.619Z" fill="#FFCD7E"/>
<path d="M200.84 508.35C201.97 509.54 201.69 511 201.31 512.27C200.86 513.76 200.89 515.24 200.76 516.74C200.56 518.98 200.31 521.23 199.88 523.44C199.06 527.62 198.06 531.74 197.62 536C197.16 540.47 196.2 544.89 195.45 549.33C195.37 549.82 195.24 550.32 195.05 550.78C193.88 553.55 193.44 556.54 192.45 559.37C192.32 559.74 192.2 560.04 191.82 559.65C191.67 559.49 191.67 559.18 191.6 558.94C191.67 558.22 191.73 557.5 191.8 556.78C192.38 556.37 192.44 555.79 192.36 555.15C192.39 551.49 193.51 548 194.2 544.46C196.03 535.15 197.93 525.86 199.33 516.47C199.74 513.76 200.33 511.07 200.84 508.37V508.35Z" fill="#FFCD7E"/>
<path d="M208.39 465.14C209.58 463.79 209.56 461.71 211.08 460.38C211.17 460.82 211.33 461.09 211.26 461.29C209.39 466.73 208.03 472.31 206.73 477.9C206.65 478.24 206.33 478.51 206.12 478.82C206.02 477.99 206.25 477.05 205.32 476.5C205.21 474.94 205.99 473.59 206.37 472.14C206.78 470.57 207.58 469.11 207.63 467.44C208.19 467.07 208.32 466.53 208.27 465.91C208.31 465.66 208.35 465.4 208.39 465.15V465.14Z" fill="#FFCD7E"/>
<path d="M86.4497 447C86.1297 444.73 86.8497 442.56 87.0997 440.34C87.4497 437.27 87.7297 434.2 88.2597 431.12C88.9997 432.83 88.4997 434.64 88.7797 436.37C88.5097 441.12 87.6897 445.84 87.8297 450.62C87.8497 451.26 87.6597 451.86 87.2197 452.35C87.1997 451.24 87.1597 450.12 87.1497 449.01C87.1397 448.26 87.1397 447.51 86.4497 447Z" fill="#FFCD7E"/>
<path d="M267.36 681.74C265.66 683.46 264.29 685.39 263.55 687.73L263.6 687.78C263.36 688.05 263.11 688.32 262.87 688.59C262.66 688.84 262.44 689.09 262.23 689.35C261.73 689.91 261.22 690.46 260.72 691.02C260.41 690.71 260.1 690.39 259.79 690.08C260.7 687.44 262.84 685.63 264.33 683.38C265.15 682.14 266.02 680.94 267.43 680.28C267.41 680.77 267.38 681.26 267.36 681.76V681.74Z" fill="#FFCD7E"/>
<path d="M145.43 764.34C145.21 763.91 144.81 763.48 144.8 763.05C144.75 756.84 144.46 750.64 144.83 744.43C144.95 744.78 145.16 745.14 145.17 745.49C145.37 751.77 145.64 758.05 145.42 764.33L145.43 764.34Z" fill="#EDB357"/>
<path d="M145.38 774.1C145.45 772.57 145.53 771.03 145.6 769.5C145.75 769.97 146 770.44 146.03 770.91C146.27 775.53 146.52 780.14 146.19 784.77C146 784.75 145.8 784.74 145.61 784.74C145.55 781.7 144.54 778.75 144.8 775.68C145.41 775.31 145.48 774.74 145.38 774.1Z" fill="#EDB357"/>
<path d="M174.96 641.6C175.12 642.39 174.83 643.33 175.75 643.85C175.48 645.54 175.09 647.18 173.91 648.83C173.23 647.31 174.32 646.28 174.27 645.1C174.21 643.92 173.92 642.6 174.96 641.6Z" fill="#FFCD7E"/>
<path d="M143.989 766.62C144.489 767.02 144.729 767.56 144.719 768.18C144.699 769.49 144.659 770.8 144.619 772.11C143.819 770.35 143.899 768.48 143.989 766.62Z" fill="#EDB357"/>
<path d="M145.61 784.73C145.8 784.73 146 784.75 146.19 784.76C146.42 785.84 146.38 786.88 145.96 788.11C145.35 786.87 145.44 785.8 145.6 784.72L145.61 784.73Z" fill="#EDB357"/>
<path d="M192.36 555.13C192.44 555.76 192.39 556.35 191.8 556.76C191.7 556.12 191.86 555.57 192.36 555.13Z" fill="#FFEBB7"/>
<path d="M145.38 774.1C145.47 774.73 145.41 775.3 144.8 775.68C144.8 775.18 144.8 774.68 144.79 774.18C144.99 774.18 145.19 774.15 145.38 774.1Z" fill="#EDB357"/>
<path d="M206.08 886.39C206.08 886.62 206.08 886.85 206.07 887.08C205.3 887.04 204.53 886.99 203.77 886.95C204.42 886.25 205.24 886.27 206.08 886.4V886.39Z" fill="#C1D0B6"/>
<path d="M208.26 465.9C208.32 466.52 208.18 467.07 207.62 467.43C207.59 466.82 207.7 466.26 208.26 465.9Z" fill="#FFEBB7"/>
<path d="M31.8695 519.67C31.2495 520 31.1195 520.58 31.0895 521.21C30.9195 521.03 30.6695 520.88 30.5895 520.67C28.3695 514.33 26.1695 507.98 23.9395 501.64C23.7095 500.98 23.6295 500.45 24.2595 500.01C27.3295 506.36 29.6995 512.97 31.8695 519.67Z" fill="#FFCD7E"/>
<path d="M110.59 678.04C110.36 678.04 110.12 678.03 109.89 678C109.28 677.72 109.23 677.17 109.21 676.61C109.91 676.85 110.48 677.23 110.59 678.04Z" fill="#FFEBB7"/>
<path d="M110.01 679.46C110.56 679.9 110.68 680.47 110.5 681.12C109.98 680.67 109.84 680.11 110.01 679.46Z" fill="#FFEBB7"/>
<path d="M262.25 689.33C262.46 689.08 262.68 688.83 262.89 688.57C262.68 688.82 262.46 689.07 262.25 689.33Z" fill="#FFEBB7"/>
<path d="M111.24 678.84C110.87 678.7 110.64 678.44 110.6 678.04C111 678.16 111.24 678.4 111.24 678.84Z" fill="#FFEBB7"/>
<path d="M291.68 624.97C291.95 624.7 292.22 624.43 292.48 624.16C293.13 624.73 293.85 625.24 294.43 625.88C298.06 629.9 302.35 633.03 307.19 635.42C307.61 635.63 307.95 636.02 308.32 636.33C307.82 636.33 307.31 636.35 306.81 636.36C303.09 635.06 299.81 632.95 296.84 630.44C294.94 628.83 293.01 627.16 291.68 624.98V624.97Z" fill="#FFCD7E"/>
<path d="M268.19 617.39C267.58 617.07 267.45 616.5 267.43 615.88C268.05 616.2 268.18 616.77 268.19 617.39Z" fill="#FFCD7E"/>
<path d="M267.44 680.27C267.55 680.16 267.66 680.05 267.76 679.94C267.74 680.01 267.76 680.11 267.71 680.15C267.64 680.21 267.53 680.23 267.43 680.27H267.44Z" fill="#FFCD7E"/>
<path d="M50.0198 759.82C49.7398 760.1 49.4598 760.37 49.1798 760.65C48.2298 760.13 47.8498 759.18 47.3698 758.3C46.8898 757.42 46.5198 756.46 45.5898 755.92C45.6298 755.32 45.6398 754.47 46.5098 755.17C48.0398 756.41 49.0198 758.14 50.0098 759.82H50.0198Z" fill="#FFCD7E"/>
<path d="M81.9401 840.87H206.72C215.59 840.87 222.79 848.07 222.79 856.94V961.66H65.8701V856.94C65.8701 848.07 73.0701 840.87 81.9401 840.87Z" fill="#8086FF"/>
</g>
<g clip-path="url(#clip5_682_849)">
<path d="M526.68 563L445 613.22H1475.67L1377.14 563H526.68Z" fill="#FFEAC9"/>
<path d="M1475.67 613.22H445V639.65H1475.67V613.22Z" fill="#C6A26A"/>
<path d="M624.1 659.13L580.65 961.19H598.8L636.25 659.13H624.1Z" fill="#C6A26A"/>
<path d="M1282.67 659.13L1326.12 961.19H1307.98L1270.52 659.13H1282.67Z" fill="#C6A26A"/>
<path d="M1348.1 659.13H1348.12V639.65H572.56V659.13L517.16 961.19H549.38L593.23 659.13H1327.42L1371.27 961.19H1403.49L1348.1 659.13Z" fill="#E8CA9B"/>
<g clip-path="url(#clip6_682_849)">
<path d="M933 563L995.81 613.22H1326.32L1225.41 563H933Z" fill="#4A51EF"/>
<path d="M995.81 613.22L954.9 926.9L1129.66 918.66L1176.15 932.79L1313.14 937.41L1326.32 613.22H995.81Z" fill="#1A1F90"/>
<path d="M1129.66 918.66L1165.71 613.22H1192.42L1176.15 932.79L1129.66 918.66Z" fill="#000356"/>
</g>
<g clip-path="url(#clip7_682_849)">
<path d="M843.46 563L862.71 613.22H1053.18L976.43 563H843.46Z" fill="#BEBBFF"/>
<path d="M862.71 613.22L820.16 948.11L1016.79 937.41L1053.18 613.22H862.71Z" fill="#9D9DEA"/>
<mask id="mask0_682_849" style="mask-type:luminance" maskUnits="userSpaceOnUse" x="820" y="613" width="234" height="336">
<path d="M862.71 613.22L820.16 948.11L1016.79 937.41L1053.18 613.22H862.71Z" fill="white"/>
</mask>
<g mask="url(#mask0_682_849)">
<path d="M842.11 799.86L819.56 829.51L832.53 860.16L823.54 863.96L794 794.14L842.11 799.86ZM823.99 807.53L809.53 805.81L815.17 819.15L823.99 807.53Z" fill="white"/>
<path d="M915.56 798.45L885.16 841.75L853.83 767.69L902.75 770.76L887.65 797.54L915.56 798.46V798.45ZM887.07 779.24L868.49 778.07L876.74 797.56L887.07 779.23V779.24ZM897.84 807.32L880.62 806.76L887.22 822.37L897.84 807.33V807.32Z" fill="white"/>
<path d="M988.86 794.03L979.87 797.83L971.19 777.3L943.1 765.81L960.17 806.16L951.18 809.96L921.59 740.01L930.58 736.21L937.76 753.17L965.85 764.66L950.29 727.87L959.28 724.07L988.87 794.02L988.86 794.03Z" fill="white"/>
<path d="M1056.39 762.53L1050.1 769.93L1025.33 749.08L1023.08 781.37L1013.35 780.73L1016.14 741.31L985.89 715.77L992.18 708.31L1016.93 729.21L1019.18 696.89L1028.91 697.57L1026.16 737.01L1056.38 762.52L1056.39 762.53Z" fill="white"/>
<path d="M910.98 937.7L907.88 946.67L850.06 926.67L878 875.04L886.28 879.5L863.66 921.38L910.97 937.7H910.98Z" fill="white"/>
<path d="M949.38 920.28L945.69 929.31L906.07 913.25L917.98 883.8L927.06 887.48L918.73 907.86L949.39 920.29L949.38 920.28ZM948.57 878.31L936.6 907.74L927.6 904.09L935.89 883.6L905.26 871.18L908.89 862.22L948.57 878.31Z" fill="white"/>
<path d="M1030.57 892.64L1021.58 896.44L1012.9 875.91L984.81 864.42L1001.88 904.77L992.89 908.57L963.3 838.62L972.29 834.82L979.47 851.78L1007.56 863.27L992 826.48L1000.99 822.68L1030.58 892.63L1030.57 892.64Z" fill="white"/>
<path d="M1099.15 863.63L1090.17 867.43L1075.67 833.16L1056.3 829.88L1045.17 845.96L1059.71 880.33L1050.72 884.13L1021.08 814.06L1051.81 819.27L1069.51 793.57L1099.15 863.64V863.63ZM1045.68 828.12L1036.98 826.6L1040.7 835.39L1045.68 828.11V828.12ZM1071.18 822.55L1067.42 813.66L1062.36 821.01L1071.19 822.55H1071.18Z" fill="white"/>
</g>
</g>
</g>
<g style="mix-blend-mode:hard-light">
<rect y="1" width="1920" height="962" fill="#000356" fill-opacity="0.5"/>
</g>
<defs>
<clipPath id="clip0_682_849">
<rect width="1920" height="960" fill="white" transform="translate(0 2)"/>
</clipPath>
<clipPath id="clip1_682_849">
<rect width="251.61" height="377.41" fill="white" transform="translate(1706 76)"/>
</clipPath>
<clipPath id="clip2_682_849">
<rect width="1168.04" height="612.03" fill="white" transform="translate(376 1)"/>
</clipPath>
<clipPath id="clip3_682_849">
<rect width="1379.62" height="961" fill="white" transform="translate(270 2)"/>
</clipPath>
<clipPath id="clip4_682_849">
<rect width="315.18" height="579.66" fill="white" transform="translate(0 382)"/>
</clipPath>
<clipPath id="clip5_682_849">
<rect width="1030.67" height="398.19" fill="white" transform="translate(445 563)"/>
</clipPath>
<clipPath id="clip6_682_849">
<rect width="393.32" height="374.41" fill="white" transform="translate(933 563)"/>
</clipPath>
<clipPath id="clip7_682_849">
<rect width="305.15" height="385.11" fill="white" transform="translate(794 563)"/>
</clipPath>
</defs>
</svg>
