<svg width="402" height="293" viewBox="0 0 402 293" fill="none" xmlns="http://www.w3.org/2000/svg">
<g clip-path="url(#clip0_329_3517)">
<path d="M253.667 119.606L88.6035 38.9399L7.93782 204.004L173.002 284.669L253.667 119.606Z" fill="#000356"/>
<path d="M171.248 273.865L170.095 276.213L167.734 275.066" stroke="#8086FF" stroke-width="0.44" stroke-miterlimit="10" stroke-dasharray="0.88 0.88"/>
<path d="M162.936 272.716L21.1387 203.42" stroke="#8086FF" stroke-width="0.44" stroke-miterlimit="10" stroke-dasharray="0.88 0.88"/>
<path d="M18.7331 202.248L16.3752 201.092L17.5315 198.734" stroke="#8086FF" stroke-width="0.44" stroke-miterlimit="10" stroke-dasharray="0.88 0.88"/>
<path d="M19.8816 193.936L89.1776 52.1387" stroke="#8086FF" stroke-width="0.44" stroke-miterlimit="10" stroke-dasharray="0.88 0.88"/>
<path d="M90.3498 49.7332L91.5061 47.3753L93.8545 48.5285" stroke="#8086FF" stroke-width="0.44" stroke-miterlimit="10" stroke-dasharray="0.88 0.88"/>
<path d="M98.6621 50.8817L240.459 120.178" stroke="#8086FF" stroke-width="0.44" stroke-miterlimit="10" stroke-dasharray="0.88 0.88"/>
<path d="M242.864 121.349L245.213 122.503L244.069 124.854" stroke="#8086FF" stroke-width="0.44" stroke-miterlimit="10" stroke-dasharray="0.88 0.88"/>
<path d="M241.716 129.662L172.42 271.459" stroke="#8086FF" stroke-width="0.44" stroke-miterlimit="10" stroke-dasharray="0.88 0.88"/>
</g>
<g clip-path="url(#clip1_329_3517)">
<path d="M352.917 24.7169L170.721 48.329L194.333 230.525L376.529 206.913L352.917 24.7169Z" fill="#575EFF"/>
<path d="M369.113 198.862L369.445 201.457L366.842 201.801" stroke="#8086FF" stroke-width="0.44" stroke-miterlimit="10" stroke-dasharray="0.88 0.88"/>
<path d="M361.543 202.483L205.028 222.766" stroke="#8086FF" stroke-width="0.44" stroke-miterlimit="10" stroke-dasharray="0.88 0.88"/>
<path d="M202.375 223.113L199.77 223.447L199.436 220.842" stroke="#8086FF" stroke-width="0.44" stroke-miterlimit="10" stroke-dasharray="0.88 0.88"/>
<path d="M198.754 215.543L178.471 59.0283" stroke="#8086FF" stroke-width="0.44" stroke-miterlimit="10" stroke-dasharray="0.88 0.88"/>
<path d="M178.123 56.3752L177.789 53.7703L180.385 53.439" stroke="#8086FF" stroke-width="0.44" stroke-miterlimit="10" stroke-dasharray="0.88 0.88"/>
<path d="M185.693 52.7543L342.208 32.4711" stroke="#8086FF" stroke-width="0.44" stroke-miterlimit="10" stroke-dasharray="0.88 0.88"/>
<path d="M344.861 32.1238L347.457 31.7926L347.797 34.3852" stroke="#8086FF" stroke-width="0.44" stroke-miterlimit="10" stroke-dasharray="0.88 0.88"/>
<path d="M348.483 39.694L368.766 196.209" stroke="#8086FF" stroke-width="0.44" stroke-miterlimit="10" stroke-dasharray="0.88 0.88"/>
</g>
<defs>
<clipPath id="clip0_329_3517">
<rect width="207.56" height="207.56" fill="white" transform="translate(64.2236 31) rotate(18.0245)"/>
</clipPath>
<clipPath id="clip1_329_3517">
<rect width="207.56" height="207.56" fill="white" transform="translate(146 55.1335) rotate(-15.4042)"/>
</clipPath>
</defs>
</svg>
