<svg width="706" height="707" viewBox="0 0 706 707" fill="none" xmlns="http://www.w3.org/2000/svg">
<g clip-path="url(#clip0_329_3812)">
<path d="M682.9 328.21L685.95 331.26C684.32 332.68 682.33 332.8 680.31 332.8C669.04 332.8 657.77 332.8 646.5 332.8C641.47 332.8 637.13 334.5 633.57 338.11C629.81 341.92 626 345.68 622.22 349.48C621.74 349.96 621.11 350.36 620.99 351.06C621.51 351.53 622.01 351.39 622.47 351.36C627.02 351.07 631.58 351.23 636.13 351.22C649.72 351.19 663.31 351.22 676.89 351.2C682.09 351.2 685.11 348.95 686.67 344.03C687.47 341.51 687.99 338.93 688.2 336.28C688.26 335.49 688.2 334.67 688.67 333.96L692.4 337.69C691.63 339.75 690.69 344.57 690.84 346.04L695.8 341.08C696.71 341.99 697.61 342.89 698.52 343.8C696.92 345.5 695.32 347.2 693.71 348.9C693.79 349.04 693.88 349.18 693.96 349.32C696.54 348.31 699.39 348.45 701.91 347.19L705.64 350.92C705.04 351.42 704.3 351.37 703.59 351.43C701.04 351.64 698.54 352.14 696.07 352.82C691.05 354.21 688.5 357.53 688.45 362.76C688.42 365.71 688.37 368.66 688.34 371.62L684.95 375.01C684.29 374.47 684.44 373.71 684.43 373.01C684.42 369.26 684.45 365.51 684.43 361.76C684.43 360.86 684.81 359.94 684.41 358.71C683.53 359.51 682.8 360.1 682.14 360.76C678.46 364.41 674.82 368.11 671.1 371.73C667.64 375.1 666.03 379.18 666.03 383.97C666.03 387.32 665.97 390.67 665.94 394.02L662.55 397.41C661.78 396.71 662.04 395.77 662.04 394.93C662.01 391.18 662.04 387.42 662.03 383.67C662.03 383.11 662.06 382.55 661.99 382C661.93 381.5 661.57 381.32 661.14 381.57C660.73 381.81 660.36 382.13 660.03 382.46C656.3 386.18 652.52 389.86 648.86 393.66C645.59 397.05 643.63 401.1 643.54 405.89C643.47 409.4 643.54 412.91 643.56 416.42L640.17 419.81C639.37 419.13 639.64 418.19 639.63 417.35C639.6 413.52 639.63 409.7 639.61 405.87C639.61 405.27 639.88 404.6 639.31 404.08C638.62 404 638.33 404.56 637.96 404.93C635.81 407.06 633.69 409.23 631.53 411.36C629.64 413.22 628.1 415.35 626.82 417.65C623.32 423.91 621.46 430.56 622.18 437.81L618.45 441.54C617.88 441.06 617.98 440.39 617.96 439.76C617.8 434.7 618.19 429.7 619.51 424.8C619.64 424.32 620.12 423.81 619.59 423.27C617.41 424.82 596.34 446.04 595.4 447.62C595.78 448.09 596.28 447.84 596.72 447.84C600.95 447.84 605.19 447.81 609.42 447.81C610.19 447.81 611.04 447.61 611.66 448.32L608.27 451.71C604.84 451.75 601.42 451.8 597.99 451.82C593.39 451.85 589.43 453.39 586.17 456.69C582.36 460.54 578.5 464.35 574.68 468.2C574.2 468.68 573.53 469.06 573.49 469.87C574.02 470.48 574.7 470.2 575.3 470.21C579.13 470.23 582.95 470.21 586.78 470.23C587.63 470.23 588.55 469.98 589.27 470.72L585.54 474.45C581.4 474.08 577.24 474.06 573.11 474.44C569.77 474.74 566.79 476.15 564.37 478.54C560.17 482.7 555.99 486.89 551.81 491.08C551.45 491.44 550.85 491.76 551.25 492.57C551.83 492.59 552.46 492.64 553.08 492.64C556.84 492.64 560.6 492.62 564.35 492.64C565.2 492.64 566.13 492.4 566.86 493.11L563.13 496.84C559.96 496.45 556.77 496.72 553.59 496.67C548.64 496.6 544.42 498.31 540.94 501.89C537.22 505.72 533.39 509.45 529.63 513.24C529.15 513.72 528.45 514.08 528.41 514.85C528.57 515.14 528.8 515.16 529.04 515.16C533.34 515.12 537.65 515.07 541.95 515.06C542.8 515.06 543.72 514.83 544.46 515.5L540.73 519.23C537.31 518.85 533.89 519.02 530.47 519.1C526 519.2 522.07 520.7 518.87 523.96C514.96 527.95 510.98 531.86 507.04 535.82C506.62 536.24 505.98 536.56 506 537.27C506.21 537.68 506.55 537.63 506.85 537.61C511.15 537.31 515.46 537.53 519.77 537.48C520.55 537.48 521.38 537.31 522.06 537.9L518.33 541.63C514.5 541.31 510.66 541.35 506.84 541.59C503.35 541.81 500.19 543.1 497.45 545.41C492.37 549.7 487.97 554.69 483.2 559.29C482.87 559.61 482.47 559.95 482.69 560.53C483.31 560.93 483.93 560.59 484.52 560.44C488.97 559.29 493.51 559.01 498.08 559.13C498.85 559.15 499.7 558.93 500.34 559.62L496.61 563.35C492.33 562.79 488.19 563.52 484.09 564.72C479.25 566.14 476.69 569.26 476.53 574.27C476.43 577.3 476.56 580.34 476.58 583.38L473.19 586.77C472.45 586.17 472.65 585.31 472.65 584.54C472.63 581.03 472.63 577.51 472.65 574C472.65 572.93 472.73 571.87 472.78 570.69C471.6 571.1 471.02 571.89 470.36 572.55C466.61 576.25 462.92 580.02 459.14 583.68C455.92 586.8 454.34 590.64 454.15 595.01C453.99 598.59 454.16 602.19 454.19 605.77L450.8 609.16C449.97 608.49 450.24 607.55 450.24 606.71C450.21 602.72 450.24 598.72 450.23 594.73C450.23 594.22 450.48 593.6 449.83 593.24C449.18 593.22 448.82 593.68 448.43 594.06C444.58 597.9 440.69 601.69 436.93 605.6C433.97 608.68 432.05 612.38 431.78 616.68C431.54 620.5 431.54 624.34 431.81 628.16L428.42 631.55C427.57 630.9 427.84 629.95 427.84 629.11C427.81 625.36 427.84 621.62 427.82 617.87C427.82 617.18 428.07 616.44 427.54 615.7C426.49 615.92 425.81 616.7 425.08 617.4C423.06 619.33 421.24 621.43 419.36 623.49C416.08 627.08 413.75 631.21 412.11 635.75C410.46 640.31 410.1 645.07 410.09 649.87L406.7 653.26C406.26 652.94 406.21 652.46 406.2 651.97C406.06 646.76 406.19 641.57 407.73 636.52C407.87 636.05 408.35 635.53 407.81 634.99C405.34 636.8 384.5 657.85 383.63 659.4C383.83 659.72 384.15 659.71 384.46 659.69C388.86 659.41 393.26 659.62 397.65 659.57C398.42 659.57 399.27 659.37 399.92 660.04L396.19 663.77C392.94 663.38 389.67 663.64 386.41 663.61C381.64 663.56 377.55 665.2 374.18 668.65C370.39 672.53 366.52 676.32 362.7 680.17C362.22 680.65 361.52 681.01 361.47 681.78C361.62 682.08 361.85 682.09 362.09 682.09C366.39 682.05 370.7 682 375 681.99C375.85 681.99 376.77 681.76 377.52 682.43L373.79 686.16C369.82 685.81 365.84 685.81 361.88 686.16C358.58 686.45 355.49 687.61 353.01 689.92C350.33 692.42 347.72 694.98 345.27 697.71L342.22 694.66C344.13 692.73 346.05 690.8 347.94 688.86C351.73 684.96 353.7 680.38 353.65 674.84C353.54 663.89 353.64 652.94 353.61 641.99C353.61 639.61 354.05 637.39 355.29 635.35C355.56 634.9 356 634.44 355.51 633.72C350.4 633.38 345.39 633.96 340.57 635.95C339.68 636.32 338.9 636.87 338.2 637.55C336.04 639.62 335.2 642.17 335.21 645.11C335.24 658.14 335.24 671.17 335.23 684.2C335.23 685.21 335.52 686.29 334.76 687.2L331.03 683.47C331.33 682.53 331.2 681.57 331.2 680.62C331.2 668.89 331.22 657.16 331.18 645.43C331.18 644.13 331.56 642.81 331.23 641.47C329.82 641.79 329.03 642.73 328.19 643.56C324.78 646.92 321.42 650.33 318.01 653.69C315.49 656.18 313.92 659.16 313.16 662.6C312.99 663.37 312.98 664.2 312.36 664.81L304.21 656.66C304.78 655.82 305.74 655.89 306.57 655.67C309.06 654.99 311.39 654.05 313.43 652.39C317.78 648.83 321.52 644.67 325.42 640.67C326.23 639.84 326.83 638.82 327.74 637.59C325.88 637.65 324.4 637.75 322.92 637.75C311.41 637.76 299.9 637.75 288.38 637.77C287.43 637.77 286.46 637.58 285.54 638.01L281.81 634.28C282.67 633.41 283.77 633.75 284.77 633.74C297.79 633.72 310.81 633.74 323.82 633.71C328.8 633.7 332.2 631.21 333.66 626.54C334.91 622.54 335.45 618.44 335.31 614.25C335.29 613.79 335.36 613.26 334.78 613.04C331.373 614.567 327.683 615.33 323.71 615.33C313.41 615.33 303.1 615.35 292.8 615.33C288.16 615.33 284.23 617 280.93 620.19C278.69 622.36 276.53 624.6 274.33 626.8L271.61 624.08C273.23 621.88 275.12 619.91 277.14 618.1C281.37 614.31 283.07 609.57 283.03 603.99C282.96 593.76 283.08 583.53 282.97 573.3C282.93 569.77 283.34 566.46 285.29 563.45C285.34 563.37 285.21 563.18 285.13 562.93C279.94 562.84 274.81 563.32 269.92 565.32C269.17 565.63 268.53 566.08 267.92 566.62C265.56 568.73 264.57 571.37 264.58 574.51C264.61 587.54 264.6 600.57 264.58 613.6C264.58 614.61 264.85 615.69 264.14 616.61L260.41 612.88C260.71 611.94 260.58 610.98 260.58 610.03C260.58 598.22 260.58 586.41 260.58 574.6C260.58 573.37 260.6 572.14 260.61 570.78C259.2 571.1 258.5 572.02 257.72 572.79C254.25 576.21 250.84 579.68 247.37 583.09C244.84 585.57 243.28 588.56 242.52 591.99C242.35 592.76 242.33 593.59 241.73 594.21L233.58 586.06C234.01 585.35 234.76 585.31 235.46 585.17C238.32 584.57 240.9 583.4 243.14 581.48C247.46 577.79 251.33 573.67 255.22 569.54C255.95 568.77 256.5 567.84 257.32 566.71C253.91 567.1 250.88 566.95 247.87 566.96C237.81 566.97 227.75 566.96 217.69 566.98C216.75 566.98 215.76 566.75 214.91 567.39L211.18 563.66C212.04 562.79 213.14 563.13 214.14 563.12C226.61 563.1 239.09 563.11 251.56 563.1C252.52 563.1 253.49 563.12 254.43 563.01C258.62 562.49 261.49 560.39 262.84 556.25C264.17 552.17 264.73 548 264.64 543.73C264.64 543.28 264.74 542.75 264.2 542.46C260.68 543.853 256.743 544.55 252.39 544.55C242.79 544.55 233.2 544.57 223.6 544.55C218.05 544.54 213.26 546.24 209.42 550.39C207.58 552.39 205.61 554.27 203.7 556.2L200.65 553.15C202.52 551.29 204.36 549.4 206.26 547.58C210.31 543.73 212.2 539.06 212.15 533.45C212.05 523.07 212.17 512.69 212.09 502.3C212.06 498.94 212.54 495.79 214.36 492.92C214.42 492.82 214.32 492.62 214.28 492.43C214.08 492.36 213.86 492.22 213.64 492.21C208.96 491.96 204.39 492.61 199.96 494.13C197.24 495.06 195.39 496.97 194.36 499.67C193.78 501.2 193.69 502.78 193.69 504.38C193.69 517.16 193.7 529.94 193.68 542.71C193.68 543.71 194 544.81 193.17 545.68L189.44 541.95C189.87 541.03 189.68 540.06 189.68 539.11C189.69 527.51 189.68 515.92 189.7 504.32C189.7 502.92 189.79 501.52 189.86 499.61C188.4 500.77 187.21 501.55 186.21 502.53C182.94 505.71 179.7 508.91 176.54 512.2C174.12 514.72 172.4 517.67 171.69 521.15C171.53 521.92 171.54 522.77 170.77 523.29C168.05 520.57 165.34 517.86 162.62 515.14C163.28 514.44 164.22 514.48 165.06 514.28C168 513.61 170.68 512.35 172.84 510.27C176.8 506.45 180.65 502.5 184.53 498.6C185.18 497.94 185.8 497.24 185.95 496.05C183.8 496.32 181.82 496.27 179.84 496.27C168.83 496.27 157.82 496.27 146.81 496.27C145.86 496.27 144.89 496.12 143.96 496.46L140.23 492.73C141.13 491.97 142.22 492.26 143.23 492.26C154.02 492.24 164.81 492.25 175.59 492.25C178.07 492.25 180.55 492.31 183.02 492.23C187.46 492.08 190.56 489.75 191.99 485.56C192.87 482.98 193.49 480.33 193.66 477.61C193.78 475.66 194.07 473.68 193.5 471.7C193.14 471.77 192.87 471.75 192.69 471.86C190.1 473.56 187.22 473.87 184.2 473.86C173.57 473.81 162.94 473.91 152.31 473.81C146.85 473.76 142.38 475.8 138.56 479.54C136.62 481.44 134.69 483.36 132.76 485.27L130.04 482.55C132.02 480.57 133.98 478.58 135.98 476.61C139.7 472.94 141.53 468.53 141.51 463.28C141.46 452.41 141.51 441.53 141.48 430.66C141.48 427.96 141.87 425.43 143.31 423.09C144.03 421.91 143.82 421.62 142.38 421.57C137.94 421.42 133.61 422.08 129.4 423.51C126.28 424.57 124.39 426.83 123.47 429.94C123.1 431.18 123.1 432.46 123.11 433.75C123.11 446.54 123.12 459.34 123.1 472.13C123.1 473.13 123.43 474.23 122.59 475.1L118.86 471.37C119.25 470.45 119.08 469.47 119.08 468.52C119.09 457 119.08 445.48 119.1 433.96C119.1 432.48 119.19 431 119.25 429.26C117.81 430.03 116.73 430.8 115.78 431.76C112.44 435.1 109.06 438.39 105.78 441.78C103.47 444.18 101.85 447 101.15 450.31C100.97 451.15 101.01 452.1 100.2 452.69C97.4801 449.97 94.7701 447.26 92.0501 444.54C92.7101 443.82 93.6401 443.86 94.4901 443.67C97.2901 443.05 99.8701 441.86 101.92 439.94C106.06 436.05 110 431.96 113.99 427.91C114.6 427.29 115.28 426.58 115.26 425.45C112.71 425.75 110.32 425.67 107.92 425.67C97.3601 425.67 86.8001 425.67 76.2401 425.67C75.2901 425.67 74.3201 425.52 73.3901 425.86L69.6601 422.13C70.5501 421.34 71.6401 421.64 72.6501 421.64C83.0401 421.62 93.4301 421.63 103.81 421.63C106.69 421.63 109.57 421.69 112.44 421.61C116.85 421.48 119.98 419.12 121.42 414.95C122.3 412.37 122.88 409.7 123.08 406.99C123.22 405.05 123.54 403.07 122.93 401.1C122.57 401.17 122.3 401.16 122.11 401.28C119.52 402.97 116.63 403.28 113.62 403.27C102.91 403.22 92.2101 403.3 81.5001 403.23C76.2301 403.19 71.8701 405.16 68.1601 408.77C66.1601 410.72 64.1901 412.71 62.2001 414.67L59.1501 411.62C61.0901 409.72 62.9601 407.75 64.9701 405.92C69.1601 402.11 70.8601 397.36 70.8301 391.79C70.7701 381.41 70.8601 371.02 70.7801 360.64C70.7501 357.28 71.1301 354.11 73.1301 351.3C73.1801 351.22 73.0701 351.02 72.9801 350.72C67.7901 350.56 62.6801 351.1 57.7801 353.06C57.2001 353.29 56.6701 353.69 56.1801 354.09C53.5901 356.18 52.3601 358.82 52.3901 362.22C52.4701 375.16 52.4301 388.1 52.4101 401.04C52.4101 402.11 52.7701 403.32 51.6801 404.15L47.9501 400.42C48.6301 399.58 48.3801 398.58 48.3801 397.65C48.4001 391.42 48.3601 385.19 48.4001 378.96C48.4401 372.33 48.2301 365.7 48.5301 359.07C48.5401 358.83 48.4301 358.6 47.9701 358.57C47.0001 359.06 46.2301 359.99 45.3901 360.82C42.4301 363.74 39.6001 366.79 36.5401 369.59C32.9901 372.84 30.5601 376.62 29.9501 381.46C29.9201 381.68 29.7401 381.88 29.6201 382.09L21.1301 373.6C21.8601 373.02 22.7801 373.05 23.6301 372.87C26.4201 372.27 28.9901 371.13 31.0301 369.15C35.3201 364.97 39.5101 360.69 43.7201 356.43C44.1401 356.01 44.7601 355.62 44.6601 355.22C43.0601 355.08 41.5601 354.83 40.0601 354.83C28.4801 354.8 16.9001 354.81 5.32008 354.82C4.37008 354.82 3.41008 354.9 2.46008 354.94L0.0800781 352.56L2.12008 350.52C3.57008 351.3 5.11008 350.76 6.59008 350.76C18.1701 350.81 29.7401 350.81 41.3201 350.77C45.9501 350.76 49.2201 348.33 50.6901 343.99C52.0601 339.93 52.5501 335.75 52.5001 331.49C52.5001 330.99 52.7401 330.35 52.0601 330.04C49.0534 331.6 45.7767 332.38 42.2301 332.38C36.0001 332.38 29.7701 332.38 23.5501 332.38C22.6101 332.38 21.6201 332.55 20.8001 331.86L24.8701 327.79C25.4601 328.55 26.3101 328.37 27.0801 328.37C32.9101 328.38 38.7301 328.41 44.5601 328.37C49.2301 328.33 52.3701 325.24 52.4901 320.57C52.5801 317.06 52.5201 313.55 52.5001 310.04C52.5001 309.52 52.6601 308.89 51.8701 308.59C49.1401 310 46.2501 310.54 43.2001 309.48L47.2701 305.41C50.0401 306.06 52.4401 303.67 52.0201 300.66L56.0901 296.59C56.7101 297.53 56.5401 298.59 56.5401 299.62C56.5401 310.24 56.5401 320.87 56.5501 331.49C56.5501 335.43 56.1501 339.3 55.1201 343.11C54.9701 343.68 54.6601 344.28 55.0601 345.02C55.4101 344.76 55.6801 344.61 55.8901 344.4C60.5201 339.77 65.2001 335.19 69.7501 330.47C72.5801 327.54 73.9901 323.91 74.0001 319.82C74.0301 307.04 74.0201 294.26 74.0001 281.48C74.0001 280.71 74.1901 279.85 73.4001 279.28L77.4701 275.21C78.2901 276.08 78.0401 277.17 78.0401 278.18C78.0501 292 78.0401 305.83 78.0401 319.65C78.0401 320.25 77.7701 320.92 78.3201 321.5C79.1201 321.45 79.5001 320.77 79.9801 320.3C83.7201 316.58 87.4101 312.81 91.1801 309.13C94.8901 305.51 96.5801 301.13 96.5701 296C96.5601 283.7 96.5701 271.39 96.5701 259.09C96.5701 258.23 96.7501 257.32 96.1301 256.55L99.8601 252.82C100.83 253.99 100.57 255.42 100.57 256.73C100.55 269.83 100.78 282.94 100.47 296.05C100.45 297.05 100.26 298.09 100.61 299.11C101.53 299.05 101.91 298.38 102.39 297.9C106.13 294.18 109.81 290.4 113.6 286.73C117.34 283.12 118.99 278.71 118.99 273.6C118.99 261.29 118.99 248.99 118.99 236.68C118.99 235.82 119.18 234.9 118.53 234.15L122.6 230.08C123.14 230.95 123.03 231.93 123.03 232.88C123.03 246.39 123.03 259.9 123.03 273.41C123.03 274.49 123.06 275.58 123.07 276.73C124.03 276.55 124.46 275.82 124.99 275.29C128.57 271.74 132.06 268.11 135.7 264.63C139.71 260.8 141.46 256.15 141.43 250.66C141.37 239.95 141.45 229.24 141.39 218.53C141.37 215.66 141.75 212.95 143.47 210.57C143.83 210.08 144.01 209.59 143.63 209.04L147.7 204.97C148.49 205.77 149.5 205.49 150.43 205.5C160.1 205.52 169.77 205.5 179.44 205.51C183.8 205.51 188.01 204.73 192.13 203.33C200.34 200.54 206.1 194.61 211.65 188.37C211.68 188.34 211.62 188.23 211.59 188.11C210.99 187.58 210.24 187.87 209.56 187.87C195.82 187.86 182.07 187.87 168.33 187.85C167.31 187.85 166.23 188.08 165.35 187.31L169.42 183.24C170.07 184.1 171.02 183.84 171.86 183.84C184.32 183.85 196.79 183.84 209.25 183.84C214.06 183.84 218.13 182.18 221.51 178.76C225.28 174.96 229.08 171.19 232.86 167.4C233.34 166.92 234.01 166.54 234.06 165.69C233.31 165.17 232.5 165.43 231.74 165.43C218.08 165.42 204.42 165.43 190.75 165.42C189.73 165.42 188.65 165.65 187.75 164.9L191.82 160.83C192.33 161.52 193.09 161.41 193.79 161.41C206.65 161.41 219.5 161.47 232.36 161.37C236.38 161.34 240.09 160.01 243.03 157.16C247.1 153.22 251.07 149.16 255.06 145.14C255.54 144.65 256.38 144.15 256.06 143.39C255.72 142.58 254.79 143.01 254.11 143.01C240.3 143.01 226.48 143.01 212.67 143.01C211.8 143.01 210.9 143.12 210.14 142.51L214.21 138.44C214.89 139.23 215.83 138.99 216.68 139C228.73 139.01 240.79 139.02 252.84 139C257.76 138.99 261.01 136.62 262.55 131.99C263.95 127.78 264.4 123.43 264.28 119C264.28 118.68 264.19 118.38 263.64 118.24C260.86 120.38 257.5 120.68 253.99 120.62C247.77 120.52 241.54 120.6 235.31 120.59C234.36 120.59 233.38 120.74 232.53 120.11L236.6 116.04C237 116.52 237.56 116.57 238.12 116.57C244.34 116.57 250.56 116.67 256.78 116.53C261.08 116.43 264.11 113.32 264.25 109.02C264.37 105.36 264.28 101.68 264.27 98.02C264.27 97.56 264.31 97.04 263.62 96.81C260.88 98.15 257.98 98.69 254.92 97.71L258.99 93.64C261.98 94.1 264.25 91.82 263.74 88.89L267.81 84.82C268.48 85.74 268.28 86.81 268.28 87.84C268.29 98.79 268.28 109.73 268.29 120.68C268.29 124.38 267.82 128.01 266.89 131.58C266.76 132.06 266.31 132.59 266.91 133.2C267.39 132.77 267.87 132.37 268.31 131.93C272.38 127.87 276.41 123.76 280.52 119.74C284.22 116.12 285.92 111.74 285.91 106.61C285.91 94.31 285.91 82 285.91 69.7C285.91 68.84 286.1 67.92 285.45 67.17L289.52 63.1C290.05 63.97 289.95 64.95 289.95 65.9C289.95 79.4 289.95 92.9 289.95 106.41C289.95 107.5 289.99 108.58 290 109.69C290.81 109.71 291.13 109.08 291.56 108.66C295.47 104.78 299.36 100.86 303.26 96.97C306.67 93.57 308.3 89.43 308.32 84.67C308.36 72.13 308.34 59.58 308.33 47.04C308.33 46.26 308.48 45.42 307.84 44.77L311.91 40.7C312.4 41.5 312.34 42.39 312.34 43.26C312.34 57.42 312.34 71.58 312.34 85.74C312.34 86.25 312.03 86.85 312.58 87.29C313.21 87.2 313.52 86.69 313.9 86.31C317.81 82.41 321.7 78.5 325.62 74.61C329.04 71.22 330.71 67.08 330.73 62.32C330.78 49.76 330.75 37.2 330.74 24.64C330.74 23.86 330.9 23.02 330.23 22.38L334.3 18.31C334.83 19.09 334.75 19.99 334.75 20.86C334.75 34.93 334.75 49 334.75 63.07C334.75 63.67 334.45 64.33 335.01 64.96C335.76 64.6 336.24 63.96 336.79 63.42C340.3 59.92 343.74 56.35 347.33 52.93C351.4 49.05 353.23 44.37 353.19 38.77C353.1 27.82 353.16 16.86 353.17 5.90998C353.17 3.81998 353.32 1.74998 354.66 -0.0200195L357.71 3.02998C357.17 3.96998 357.18 5.01998 357.18 6.05998C357.18 17.64 357.17 29.21 357.18 40.79C357.18 41.3 356.93 41.93 357.69 42.28C358.41 41.96 358.9 41.32 359.46 40.76C362.8 37.44 366.07 34.04 369.47 30.79C371.95 28.42 373.87 25.76 374.86 22.45C375.02 21.91 375.26 21.41 375.7 21.02L382.15 27.47C381.58 28.1 380.75 28.2 380.01 28.47C377.74 29.31 375.66 30.44 373.93 32.18C369.94 36.2 365.91 40.19 361.92 44.21C361.51 44.63 360.85 44.95 360.98 45.69C361.27 45.98 361.59 45.98 361.9 45.98C373.79 45.98 385.68 45.97 397.57 45.96C398.45 45.96 399.32 45.88 400.12 45.45L403.17 48.5C401.22 49.82 399.01 50 396.74 50C385.62 50 374.51 49.99 363.39 50C358.53 50 354.34 51.62 350.9 55.16C347.16 59 343.33 62.74 339.55 66.55C339.07 67.04 338.39 67.4 338.28 68.16C338.51 68.54 338.85 68.43 339.15 68.43C354.98 68.42 370.82 68.4 386.65 68.39C389.13 68.39 391.61 68.41 394.09 68.39C398.87 68.34 402.15 65.96 403.65 61.48C404.52 58.89 404.96 56.21 405.31 53.51C405.41 52.73 405.31 51.89 405.89 51.23L409.62 54.96C408.44 57.31 408.51 59.95 407.6 62.46C408.05 62.42 408.24 62.46 408.32 62.39C409.78 60.94 411.23 59.48 412.68 58.02L415.73 61.07C414.12 62.73 412.51 64.38 410.89 66.04C410.97 66.15 411.05 66.26 411.13 66.37C413.79 65.74 416.46 65.1 419.12 64.47C420.25 65.6 421.38 66.73 422.51 67.86C421.9 68.71 420.97 68.6 420.11 68.66C417.22 68.89 414.43 69.55 411.7 70.51C408.67 71.58 406.81 73.72 405.93 76.76C405.53 78.16 405.44 79.59 405.44 81.03C405.44 98.95 405.42 116.86 405.42 134.78C405.42 135.15 405.28 135.6 405.92 135.86C406.23 135.61 406.61 135.34 406.93 135.01C411.01 130.94 415.08 126.87 419.13 122.78C419.69 122.22 420.19 121.58 420.65 120.93C422.93 117.69 424.01 114.08 424.01 110.12C423.99 98.92 424.01 87.72 424.01 76.52C424.01 74.5 424.12 72.51 425.58 70.9L428.63 73.95C427.67 75.02 427.88 76.35 427.88 77.6C427.86 89.19 427.85 100.78 427.85 112.37C427.85 112.74 427.71 113.19 428.21 113.39C428.66 113.35 428.91 113.03 429.19 112.75C433.37 108.57 437.56 104.39 441.72 100.19C442.22 99.68 442.63 99.08 443.08 98.52C444.7 96.47 445.39 93.99 446.28 91.6C448.54 93.86 450.81 96.13 453.07 98.39C452.47 98.61 451.88 98.85 451.28 99.05C448.59 99.95 446.16 101.33 444.14 103.32C440.09 107.29 436.1 111.33 432.1 115.35C431.75 115.7 431.12 115.98 431.38 116.69C431.54 116.75 431.69 116.84 431.84 116.84C443.83 116.84 455.82 116.84 467.8 116.81C468.82 116.81 469.9 116.89 470.72 116.04L473.77 119.09C472.23 120.72 470.18 120.67 468.2 120.67C457.26 120.69 446.31 120.71 435.37 120.67C429.56 120.65 424.63 122.57 420.57 126.82C417.09 130.46 413.46 133.95 409.92 137.52C409.5 137.94 408.85 138.25 408.9 138.99C409.35 139.4 409.85 139.25 410.31 139.25C428.12 139.25 445.94 139.25 463.75 139.23C464.55 139.23 465.35 139.24 466.14 139.16C470.38 138.71 473.4 136.19 474.57 132.09C475.27 129.63 475.86 127.15 476.06 124.58C476.13 123.72 476.09 122.8 476.83 122.14C477.96 123.27 479.09 124.4 480.22 125.53C479.61 128.23 479 130.93 478.4 133.62C478.52 133.67 478.65 133.72 478.77 133.77L483.61 128.93C484.52 129.84 485.42 130.74 486.33 131.65C484.72 133.31 483.12 134.97 481.51 136.63C481.59 136.74 481.67 136.85 481.75 136.96C484.41 136.32 487.07 135.68 489.73 135.04C490.97 136.28 492.22 137.53 493.46 138.77C492.83 139.19 492.1 139.19 491.38 139.22C488.48 139.34 485.68 139.96 482.94 140.89C478.68 142.33 476.53 145.08 476.23 149.54C476.13 150.97 476.08 152.41 476.08 153.85C476.06 170.96 476.05 188.06 476.05 205.17C476.05 205.61 475.83 206.15 476.48 206.42C476.67 206.3 476.9 206.22 477.06 206.06C481.47 201.65 485.93 197.3 490.26 192.81C492.22 190.77 493.49 188.26 494.08 185.45C494.43 183.8 494.62 182.15 494.62 180.46C494.6 169.35 494.62 158.24 494.62 147.13C494.62 145.11 494.75 143.12 496.18 141.5L499.23 144.55C498.38 145.5 498.66 146.67 498.65 147.76C498.63 158.62 498.64 169.47 498.64 180.33C498.64 181.55 498.62 182.78 498.6 184.09C499.65 183.73 500.09 183.03 500.65 182.48C503.6 179.56 506.43 176.51 509.49 173.71C512.99 170.5 515.63 166.82 516.88 162.2L523.67 168.99C522.87 169.57 521.91 169.73 521.01 170.05C518.63 170.89 516.53 172.18 514.75 173.94C510.71 177.92 506.71 181.94 502.71 185.97C502.36 186.32 501.72 186.59 502.06 187.46C503.36 187.45 504.71 187.43 506.05 187.43C516.6 187.43 527.14 187.43 537.69 187.41C538.93 187.41 540.28 187.69 541.32 186.64L544.37 189.69C543.82 190.46 543 190.74 542.13 190.97C540.87 191.3 539.6 191.3 538.32 191.31C526.88 191.39 515.44 191.15 504.01 191.45C499.36 191.57 495.45 193.38 492.18 196.53C488.14 200.41 484.24 204.42 480.29 208.4C479.94 208.75 479.29 209.02 479.65 209.82C481.13 209.83 482.64 209.85 484.15 209.85C501.11 209.85 518.07 209.86 535.03 209.85C540.69 209.85 544.01 207.25 545.46 201.83C546.04 199.66 546.43 197.46 546.71 195.23C546.82 194.38 546.72 193.44 547.43 192.75C548.56 193.88 549.69 195.01 550.82 196.14C550.26 198.74 549.7 201.35 549.03 204.44C551.22 202.76 552.65 201.08 554.22 199.53L557.27 202.58C555.71 204.1 554.07 205.55 552.36 207.69C555.47 207.05 558.07 206.51 560.67 205.98C561.8 207.11 562.93 208.24 564.06 209.37C563.28 210.09 562.26 210 561.33 210.09C559.73 210.24 558.17 210.54 556.6 210.86C549.41 212.29 546.81 216.37 546.86 222.91C547.01 240.34 546.91 257.77 546.92 275.2C546.92 275.81 546.68 276.48 547.25 276.99C547.83 277.12 548.16 276.73 548.49 276.4C552.34 272.56 556.24 268.77 560 264.85C563.64 261.06 565.44 256.56 565.37 251.18C565.22 240.31 565.33 229.43 565.32 218.56C565.32 216.28 565.64 214.1 566.77 212.09L569.82 215.14C569.28 216.35 569.33 217.63 569.33 218.91C569.33 230.48 569.31 242.05 569.32 253.62C569.32 254.05 569.08 254.6 569.71 254.88C570.52 254.65 570.95 253.93 571.5 253.39C574.34 250.59 577.11 247.71 579.98 244.95C583.29 241.75 586.22 238.33 587.43 233.75C587.49 233.53 587.68 233.34 587.81 233.14C589.96 235.29 592.11 237.44 594.26 239.59C593.8 240.21 593.1 240.41 592.41 240.63C589.61 241.53 587.27 243.12 585.21 245.2C581.45 249 577.65 252.77 573.87 256.56C573.45 256.98 572.88 257.33 572.79 257.98C572.97 258.08 573.03 258.16 573.1 258.16C585.39 258.16 597.69 258.16 609.98 258.14C610.78 258.14 611.59 258.17 612.25 257.58L615.3 260.63C613.58 262.08 611.5 262.17 609.41 262.17C598.21 262.17 587.01 262.18 575.81 262.17C571.03 262.17 566.84 263.68 563.41 267.03C559.29 271.06 555.25 275.16 551.19 279.24C550.84 279.59 550.19 279.86 550.32 280.15C552.44 280.3 554.35 280.54 556.26 280.54C572.98 280.57 589.7 280.57 606.42 280.54C611.2 280.54 614.47 278.14 615.94 273.63C616.81 270.96 617.26 268.19 617.53 265.4C617.6 264.69 617.55 263.95 618.02 263.33L621.75 267.06C621.01 268.95 619.98 274.07 620.13 275.36C620.99 274.5 621.77 273.71 622.56 272.93C623.41 272.1 624.28 271.28 625.14 270.45C626.05 271.36 626.95 272.26 627.86 273.17C626.32 274.73 624.64 276.16 623.39 278.14C626.02 277.51 628.67 277.19 631.25 276.56L634.64 279.95C633.79 280.73 632.69 280.61 631.68 280.7C629.28 280.92 626.95 281.49 624.65 282.16C623.18 282.59 621.85 283.27 620.69 284.32C618.25 286.54 617.5 289.36 617.5 292.53C617.52 310.52 617.5 328.51 617.5 346.5C617.5 346.95 617.32 347.46 617.89 347.93C618.61 347.69 619.07 347.02 619.61 346.48C623.01 343.1 626.39 339.69 629.79 336.31C633.91 332.23 636.07 327.45 635.97 321.52C635.8 311.13 635.91 300.73 635.93 290.34C635.93 287.7 635.96 285.05 637.35 282.65L640.4 285.7C639.89 286.91 639.93 288.2 639.93 289.47C639.93 301.05 639.91 312.62 639.91 324.2C639.91 324.63 639.67 325.18 640.29 325.46C641.04 325.27 641.43 324.63 641.92 324.14C645.49 320.6 649.03 317.02 652.6 313.48C654.03 312.06 655.13 310.41 656.21 308.73C657.22 307.16 657.4 305.26 658.38 303.69L665.17 310.48C661.86 311.5 658.72 312.8 656.22 315.33C652.23 319.36 648.2 323.35 644.2 327.37C643.84 327.73 643.23 328 643.32 328.3C644.89 328.45 646.32 328.7 647.74 328.71C658.36 328.74 668.98 328.73 679.6 328.71C680.69 328.71 681.86 328.95 682.82 328.13L682.9 328.21ZM431.66 251.38C431.99 251.12 432.27 250.95 432.49 250.73C436.73 246.49 440.98 242.25 445.21 238C445.71 237.49 446.14 236.9 446.55 236.32C448.91 233 449.82 229.27 449.82 225.24C449.82 206.77 449.84 188.29 449.85 169.82C449.85 169.51 449.89 169.17 449.46 168.99C448.66 169.17 448.24 169.91 447.7 170.45C444.23 173.88 440.84 177.38 437.33 180.78C433.19 184.79 431.22 189.57 431.24 195.36C431.31 213.51 431.25 231.67 431.25 249.82C431.25 250.28 431.09 250.78 431.65 251.37L431.66 251.38ZM588.1 307.5C587.42 306.86 586.92 307.03 586.46 307.03C576.07 307.03 565.67 307.03 555.28 307.04C547.2 307.04 539.13 307.02 531.05 307.06C526.41 307.08 522.2 308.42 518.82 311.73C514.65 315.81 510.55 319.97 506.43 324.11C506.07 324.47 505.46 324.76 505.83 325.77C506.92 325.72 508.11 325.61 509.29 325.61C526.72 325.6 544.15 325.59 561.58 325.61C566.14 325.61 570.23 324.41 573.82 321.51C575.89 319.84 577.65 317.89 579.54 316.05C582.39 313.26 585.19 310.42 588.1 307.51V307.5ZM376.1 518.92C375.65 518.89 375.34 518.85 375.03 518.85C357.84 518.85 340.65 518.86 323.45 518.89C321.53 518.89 319.61 518.98 317.7 519.06C313.35 519.24 309.64 520.89 306.56 523.96C302.71 527.8 298.86 531.64 295.03 535.5C294.55 535.98 293.88 536.36 293.82 537.14C294.32 537.67 294.91 537.45 295.44 537.45C313.67 537.45 331.9 537.43 350.14 537.46C355.47 537.46 359.97 535.58 363.73 531.87C367.55 528.11 371.32 524.3 375.1 520.51C375.48 520.13 376 519.83 376.11 518.93L376.1 518.92ZM364.31 396.15C364.89 396.19 365.28 396.24 365.67 396.24C383.98 396.24 402.3 396.21 420.61 396.24C426.03 396.24 430.6 394.31 434.43 390.56C438.26 386.81 442.02 383 445.8 379.2C446.17 378.83 446.75 378.55 446.64 377.88C446.3 377.53 445.89 377.64 445.5 377.64C440.78 377.64 436.06 377.67 431.34 377.67C417.82 377.67 404.31 377.71 390.79 377.66C385.06 377.64 380.17 379.38 376.18 383.66C372.85 387.22 369.3 390.58 365.86 394.04C365.31 394.59 364.6 395.02 364.29 396.16L364.31 396.15ZM434.95 466.52C435.5 466.99 436 466.84 436.46 466.84C454.46 466.84 472.45 466.76 490.45 466.86C496.51 466.9 501.5 464.86 505.7 460.56C509.05 457.12 512.49 453.77 515.87 450.36C516.41 449.82 517.13 449.39 517.32 448.59C516.92 448.05 516.4 448.26 515.96 448.26C503.08 448.26 490.2 448.27 477.33 448.28C471.97 448.28 466.61 448.31 461.25 448.28C455.51 448.24 450.66 450.14 446.68 454.39C443.4 457.89 439.91 461.19 436.53 464.6C435.98 465.16 435.29 465.62 434.96 466.52H434.95ZM575.88 395.83C576.83 396.39 577.47 396.23 578.09 396.23C587.29 396.23 596.49 396.23 605.69 396.23C614.65 396.23 623.61 396.23 632.57 396.23C637.78 396.23 642.29 394.47 646.01 390.83C649.96 386.97 653.83 383.04 657.72 379.12C658.07 378.77 658.72 378.5 658.37 377.7C658.09 377.68 657.77 377.64 657.46 377.64C649.06 377.64 640.66 377.67 632.26 377.67C622.34 377.67 612.42 377.71 602.51 377.66C596.85 377.63 592.03 379.42 588.11 383.59C586.09 385.75 583.94 387.79 581.84 389.88C579.92 391.8 578.01 393.71 575.88 395.84V395.83ZM454.19 229.05L455.94 227.3C459.33 223.91 462.66 220.45 466.13 217.14C470.39 213.09 472.29 208.21 472.26 202.35C472.17 185.4 472.23 168.46 472.24 151.51C472.24 149.96 472.32 148.41 472.36 146.66C470.66 147.8 469.27 148.85 468.03 150.11C465.4 152.79 462.79 155.5 460.05 158.07C455.56 162.27 453.64 167.39 453.66 173.5C453.74 191.49 453.68 209.47 453.67 227.46C453.67 227.91 453.48 228.42 454.18 229.05H454.19ZM598.55 373.82C600.41 373.82 602.07 373.8 603.74 373.8C620.53 373.8 637.32 373.75 654.11 373.82C660.12 373.84 665.19 371.89 669.35 367.51C671.94 364.79 674.65 362.18 677.31 359.53C678.6 358.25 679.65 356.79 681.01 354.85C678.81 355.3 677.08 355.23 675.36 355.23C658.41 355.23 641.46 355.25 624.52 355.23C619.12 355.23 614.55 357.03 610.76 360.93C607.2 364.6 603.53 368.17 599.92 371.8C599.43 372.29 598.77 372.67 598.55 373.82ZM539.66 425.69C534.96 425.98 530.59 425.85 526.22 425.86C511.83 425.88 497.45 425.87 483.06 425.86C478.21 425.86 473.92 427.34 470.42 430.73C466.29 434.74 462.26 438.85 458.2 442.93C457.86 443.28 457.2 443.56 457.61 444.37C459.08 444.37 460.59 444.4 462.1 444.4C479.28 444.4 496.47 444.4 513.65 444.4C517.93 444.4 521.83 443.29 525.28 440.63C526.88 439.4 528.28 437.99 529.66 436.56C532.99 433.13 536.69 430.04 539.65 425.69H539.66ZM527.82 302.69C528.51 303.36 529 303.19 529.46 303.19C535.21 303.19 540.97 303.19 546.72 303.19C559.03 303.19 571.34 303.16 583.65 303.2C588.55 303.22 593.03 302.04 596.7 298.71C600.73 295.06 604.61 291.26 608.16 287.14C608.83 286.37 609.79 285.7 610.07 284.33C607.29 284.8 604.74 284.64 602.19 284.64C585.96 284.65 569.74 284.65 553.51 284.64C548.38 284.64 544 286.37 540.4 290.09C537.79 292.79 535.1 295.41 532.44 298.07C530.92 299.59 529.4 301.11 527.81 302.7L527.82 302.69ZM401.6 76.2C400.16 76.97 399 77.92 397.92 79C395.16 81.78 392.47 84.63 389.6 87.29C384.96 91.59 383 96.82 383.04 103.12C383.16 121.02 383.07 138.92 383.07 156.82C383.07 157.32 382.78 157.96 383.57 158.31C383.85 158.08 384.18 157.85 384.45 157.57C388.58 153.45 392.71 149.33 396.81 145.18C397.42 144.56 397.94 143.84 398.44 143.12C400.93 139.57 401.64 135.54 401.63 131.29C401.6 113 401.6 94.71 401.59 76.19L401.6 76.2ZM330.55 217.66C329.57 218.15 328.43 219.1 327.36 220.17C324.31 223.22 321.27 226.28 318.2 229.32C314.31 233.17 312.43 237.79 312.45 243.3C312.5 261.6 312.45 279.89 312.45 298.19C312.45 298.62 312.22 299.17 312.79 299.44C313.18 299.46 313.4 299.22 313.62 299C317.86 294.76 322.13 290.56 326.31 286.26C327.88 284.65 328.97 282.69 329.8 280.58C330.94 277.68 331.01 274.65 331.01 271.61C331.03 255.07 331.03 238.53 331 221.99C331 220.5 330.7 219.01 330.55 217.65V217.66ZM401.6 287.97C399.94 289.07 398.51 290.19 397.22 291.51C394.59 294.19 391.97 296.88 389.25 299.47C384.93 303.57 383.04 308.57 383.05 314.5C383.11 332.56 383.05 350.62 383.06 368.68C383.06 369.18 382.77 369.83 383.6 370.13C383.88 369.9 384.2 369.66 384.48 369.39C388.55 365.32 392.61 361.25 396.67 357.17C397.35 356.49 397.92 355.73 398.47 354.94C401 351.38 401.63 347.34 401.63 343.1C401.6 324.81 401.6 306.52 401.59 287.97H401.6ZM386.63 585.07C387.17 585.75 387.58 585.65 387.96 585.65C406.58 585.65 425.19 585.63 443.81 585.61C448.87 585.61 453.12 583.6 456.7 580.12C459.73 577.17 462.73 574.17 465.67 571.13C466.85 569.91 467.84 568.52 469.27 566.77C466.9 567.13 465.15 567.08 463.4 567.08C453.17 567.08 442.95 567.08 432.72 567.08C426.25 567.08 419.78 567.14 413.3 567.06C407.38 566.99 402.38 568.94 398.33 573.33C396.05 575.79 393.6 578.09 391.23 580.46C389.71 581.98 388.19 583.5 386.63 585.06V585.07ZM386.82 373.47C387.2 374 387.72 373.79 388.17 373.8C390.33 373.81 392.49 373.8 394.64 373.8C410.55 373.8 426.45 373.77 442.36 373.82C447.36 373.84 451.89 372.61 455.62 369.22C459.46 365.73 463.18 362.09 466.58 358.16C467.37 357.25 468.35 356.41 469.01 354.96C466.7 355.32 464.71 355.24 462.73 355.24C446.02 355.24 429.32 355.24 412.61 355.24C407.32 355.24 402.78 356.96 399.05 360.81C395.44 364.54 391.71 368.16 388.05 371.85C387.57 372.33 386.9 372.71 386.82 373.48V373.47ZM316.12 514.95C316.7 514.99 317.09 515.03 317.47 515.03C335.69 515.03 353.92 514.98 372.14 515.03C377.82 515.04 382.57 513.06 386.54 509.05C389.24 506.33 391.96 503.62 394.68 500.91C396.03 499.57 397.1 498.02 398.45 496.3C396.65 496.35 395.16 496.44 393.67 496.44C384.96 496.45 376.25 496.44 367.53 496.44C359.46 496.44 351.38 496.52 343.31 496.41C337.05 496.33 331.76 498.17 327.48 502.93C324.38 506.37 320.95 509.51 317.69 512.8C317.14 513.35 316.43 513.79 316.12 514.93V514.95ZM163.4 307.03C162.82 306.44 162.14 306.71 161.54 306.71C156.02 306.69 150.51 306.71 144.99 306.71C132.92 306.71 120.84 306.82 108.77 306.67C102.48 306.59 97.2301 308.41 92.9401 313.17C89.7301 316.73 86.1801 319.98 82.8101 323.39C82.3501 323.86 81.6101 324.21 81.7001 325.06C82.3501 325.44 83.0001 325.26 83.6201 325.26C93.7001 325.26 103.77 325.26 113.85 325.26C121.77 325.26 129.68 325.26 137.6 325.26C142.97 325.26 147.58 323.55 151.35 319.56C154.81 315.9 158.46 312.42 162.01 308.84C162.54 308.3 163.28 307.88 163.4 307.03ZM378.89 310.2C378.11 310.31 377.75 311 377.27 311.48C373.58 315.14 369.91 318.82 366.23 322.5C362.49 326.25 360.62 330.75 360.62 336.08C360.64 354.4 360.62 372.71 360.62 391.03C360.62 391.54 360.34 392.17 361.03 392.49C361.56 392.39 361.86 391.99 362.19 391.66C366.21 387.64 370.22 383.62 374.22 379.6C374.9 378.92 375.51 378.19 376.03 377.38C378.1 374.21 379.05 370.76 379.06 366.95C379.11 348.48 378.83 330 379.2 311.53C379.2 311.09 379.43 310.56 378.88 310.21L378.89 310.2ZM378.81 98.33C378.14 98.61 377.66 99.26 377.12 99.8C373.55 103.36 370.01 106.94 366.42 110.48C362.51 114.33 360.6 118.95 360.62 124.46C360.66 142.7 360.62 160.93 360.64 179.17C360.64 179.68 360.36 180.3 360.99 180.67C361.56 180.63 361.83 180.2 362.16 179.87C366.23 175.8 370.31 171.73 374.36 167.64C374.92 167.08 375.43 166.45 375.87 165.79C377.99 162.66 379.05 159.24 379.07 155.42C379.14 136.71 378.82 117.99 379.23 99.28C379.23 98.97 379.28 98.64 378.81 98.34V98.33ZM468.56 143.07C466.3 143.15 464.17 143.29 462.04 143.29C445.34 143.31 428.63 143.33 411.93 143.29C407.03 143.27 402.82 144.87 399.33 148.23C395.24 152.16 391.28 156.23 387.28 160.26C386.94 160.61 386.27 160.88 386.7 161.72C391.83 161.72 397.02 161.72 402.2 161.72C415.87 161.72 429.53 161.72 443.2 161.72C447.95 161.72 452.19 160.27 455.64 156.95C459.32 153.4 462.89 149.73 466.5 146.11C467.34 145.27 468.11 144.38 468.56 143.08V143.07ZM242.09 440.71C243.05 440.44 243.49 439.72 244.04 439.18C247.45 435.8 250.77 432.33 254.25 429.02C258.45 425.03 260.34 420.24 260.3 414.45C260.19 398.61 260.26 382.77 260.27 366.93C260.27 364.69 260.41 362.46 260.45 360.22C260.45 359.72 260.86 359.14 260.23 358.69C258.6 359.73 257.14 360.96 255.79 362.33C253.21 364.96 250.64 367.59 247.98 370.13C243.75 374.18 241.78 379.05 241.81 384.92C241.89 403 241.83 421.08 241.83 439.16C241.83 439.63 241.72 440.12 242.09 440.71ZM149.06 392.5C150.04 392.29 150.46 391.56 151 391.01C154.46 387.58 157.87 384.08 161.36 380.68C165.37 376.79 167.26 372.13 167.24 366.52C167.16 349.17 167.22 331.82 167.19 314.47C167.19 313.06 166.95 311.65 166.82 310.22C166.3 310.42 165.84 311.09 165.3 311.62C161.79 315.12 158.32 318.66 154.77 322.12C150.72 326.08 148.77 330.8 148.79 336.5C148.86 354.65 148.8 372.8 148.79 390.95C148.79 391.42 148.67 391.91 149.05 392.5H149.06ZM308.42 239.57C307.5 239.73 307.13 240.4 306.65 240.89C302.96 244.55 299.29 248.23 295.62 251.91C291.88 255.66 290.02 260.15 290.03 265.48C290.06 283.79 290.03 302.1 290.03 320.41C290.03 320.92 289.76 321.55 290.46 321.88C291.26 321.59 291.71 320.9 292.27 320.35C295.73 316.91 299.13 313.42 302.63 310.02C306.65 306.12 308.49 301.46 308.47 295.84C308.38 277.14 308.43 258.44 308.43 239.56L308.42 239.57ZM434.62 254.88C436.08 254.83 437.34 254.74 438.61 254.74C456.12 254.74 473.63 254.71 491.14 254.74C496.47 254.75 500.96 252.96 504.7 249.16C508.46 245.34 512.28 241.59 516.05 237.78C516.44 237.38 517.15 237.08 517.01 236.64C512.54 236.53 508.23 236.36 503.92 236.34C489.45 236.3 474.98 236.4 460.5 236.29C455.02 236.25 450.55 238.26 446.73 242C443.08 245.58 439.48 249.22 435.87 252.85C435.43 253.29 434.86 253.64 434.61 254.86L434.62 254.88ZM520.28 239.6C519.6 240.28 519.09 240.79 518.59 241.29C515.03 244.85 511.52 248.47 507.89 251.96C503.91 255.79 502.09 260.39 502.1 265.9C502.15 284.37 502.08 302.83 502.05 321.3C502.05 321.61 502.01 321.94 502.37 322.13C502.83 322.23 503.09 321.88 503.35 321.61C507.31 317.66 511.32 313.75 515.21 309.72C518.87 305.93 520.57 301.38 520.54 296.03C520.45 278.76 520.51 261.49 520.5 244.23C520.5 242.81 520.37 241.39 520.28 239.59V239.6ZM237.42 380.99C237.18 381.16 236.83 381.33 236.57 381.59C232.49 385.65 228.35 389.65 224.38 393.82C221.05 397.31 219.41 401.55 219.41 406.44C219.43 424.83 219.41 443.21 219.41 461.6C219.41 462.11 219.15 462.74 219.83 463.09C220.65 462.83 221.09 462.13 221.64 461.58C225.04 458.2 228.37 454.74 231.84 451.43C236.02 447.43 237.89 442.64 237.86 436.85C237.77 418.63 237.85 400.4 237.86 382.17C237.86 381.79 238 381.37 237.42 381.01V380.99ZM152.31 395.61C152.76 396.21 153.36 395.97 153.88 395.97C172.34 395.97 190.8 395.95 209.26 395.96C214.15 395.96 218.32 394.25 221.78 390.84C225.65 387.03 229.48 383.17 233.31 379.31C233.73 378.89 234.39 378.57 234.26 377.77C233.82 377.47 233.34 377.55 232.87 377.55C214.57 377.55 196.27 377.59 177.97 377.55C172.64 377.55 168.15 379.39 164.4 383.12C160.77 386.73 157.16 390.34 153.56 393.97C153.08 394.46 152.41 394.84 152.32 395.61H152.31ZM364.41 607.72C364.9 608.27 365.49 608.04 366.01 608.04C384.24 608.04 402.47 608.01 420.7 608.04C426.03 608.04 430.54 606.18 434.31 602.49C438.19 598.68 442.01 594.82 445.84 590.96C446.2 590.6 446.83 590.34 446.73 590.04C444.6 589.9 442.61 589.66 440.62 589.66C423.59 589.63 406.56 589.65 389.53 589.64C384.57 589.64 380.32 591.36 376.81 594.88C373.08 598.61 369.34 602.34 365.62 606.08C365.14 606.56 364.47 606.94 364.4 607.72H364.41ZM502.29 533.99C502.92 533.93 503.18 533.62 503.46 533.34C507.36 529.44 511.31 525.59 515.15 521.62C518.81 517.84 520.58 513.31 520.55 507.96C520.47 490.45 520.52 472.94 520.52 455.43C520.52 454.19 520.52 452.94 520.52 451.64C519.54 451.86 519.17 452.52 518.68 453C515.05 456.6 511.46 460.26 507.81 463.84C503.95 467.63 502.08 472.14 502.1 477.58C502.17 494.85 502.12 512.12 502.13 529.39C502.13 530.89 502.23 532.39 502.28 533.98L502.29 533.99ZM446.33 166.19C444.72 166.03 443.13 165.73 441.55 165.72C424.28 165.69 407.01 165.74 389.74 165.68C384.37 165.66 379.94 167.62 376.19 171.32C372.55 174.92 368.94 178.54 365.34 182.18C364.86 182.66 364.18 183.04 364.12 183.79C364.47 184.22 364.88 184.13 365.26 184.13C383.89 184.13 402.52 184.13 421.14 184.09C426.08 184.08 430.33 182.25 433.84 178.76C437.63 174.98 441.42 171.19 445.2 167.4C445.64 166.96 446.19 166.59 446.32 166.19H446.33ZM524.88 299.34C525.64 299.47 526.05 298.91 526.49 298.48C530.23 294.76 534.02 291.08 537.66 287.27C541.29 283.47 543.04 278.96 543 273.59C542.88 256.72 542.95 239.85 542.96 222.99C542.96 222.03 543.03 221.07 542.96 220.11C542.91 219.37 543.68 218.35 542.74 217.95C541.95 217.62 541.37 218.59 540.82 219.13C537.12 222.78 533.44 226.45 529.76 230.12C526.24 233.63 524.55 237.88 524.56 242.85C524.56 261.08 524.56 279.3 524.56 297.53C524.56 298.14 524.34 298.82 524.88 299.34ZM290.36 534.02C291.11 533.94 291.47 533.51 291.86 533.12C295.65 529.33 299.49 525.6 303.21 521.74C306.91 517.89 308.74 513.3 308.72 507.86C308.65 489.71 308.71 471.55 308.7 453.4C308.7 452.89 308.97 452.26 308.32 451.93C307.85 451.97 307.59 452.28 307.31 452.56C303.13 456.74 298.94 460.93 294.77 465.13C294.21 465.69 293.72 466.34 293.29 467.01C291.26 470.09 290.26 473.45 290.27 477.19C290.32 494.78 290.28 512.38 290.31 529.97C290.31 531.28 289.98 532.62 290.35 534.02H290.36ZM375.51 307.26C374.88 306.64 374.12 306.94 373.45 306.94C355.53 306.92 337.61 306.99 319.69 306.9C313.97 306.87 309.26 308.84 305.28 312.85C301.84 316.32 298.38 319.75 294.94 323.21C294.4 323.75 293.72 324.21 293.49 324.93C293.85 325.46 294.27 325.37 294.65 325.37C313.37 325.37 332.09 325.37 350.81 325.32C355.59 325.31 359.69 323.53 363.08 320.14C366.81 316.41 370.55 312.68 374.27 308.93C374.75 308.45 375.42 308.06 375.5 307.26H375.51ZM457.01 231.72C457.07 231.91 457.13 232.11 457.19 232.3C458.44 232.3 459.69 232.29 460.94 232.29C478.52 232.29 496.1 232.28 513.67 232.29C518.42 232.29 522.69 230.92 526.14 227.62C529.95 223.98 533.62 220.18 537.33 216.44C538.1 215.67 538.78 214.83 539.22 213.5C537.1 213.86 535.2 213.9 533.3 213.9C516.36 213.89 499.42 213.91 482.48 213.88C478.5 213.88 474.97 215.03 471.76 217.38C469.22 219.24 467.19 221.6 464.96 223.77C462.27 226.38 459.65 229.06 457 231.71L457.01 231.72ZM304.93 448.48C304.44 447.93 303.85 448.15 303.32 448.15C285.09 448.15 266.86 448.18 248.63 448.13C243.37 448.12 238.93 449.94 235.22 453.55C231.32 457.34 227.51 461.22 223.68 465.08C223.32 465.44 222.73 465.75 223.01 466.5C223.22 466.54 223.45 466.62 223.68 466.62C242.23 466.6 260.78 466.55 279.33 466.58C284.67 466.58 289.15 464.76 292.88 460.99C296.48 457.35 300.12 453.76 303.73 450.13C304.21 449.65 304.88 449.27 304.94 448.49L304.93 448.48ZM524.82 511.58C525.71 511.34 526.1 510.7 526.6 510.21C530.06 506.78 533.5 503.33 536.95 499.87C540.97 495.84 543.05 491.11 543.01 485.28C542.88 468.18 542.97 451.08 542.96 433.98C542.96 432.58 542.87 431.18 542.81 429.77C541.57 430.01 540.78 430.96 539.94 431.79C536.92 434.76 534.02 437.85 530.92 440.73C526.41 444.91 524.47 449.98 524.51 456.12C524.63 474.1 524.54 492.08 524.54 510.06C524.54 510.53 524.42 511.02 524.83 511.57L524.82 511.58ZM305.12 236.87C303.27 236.69 301.52 236.37 299.77 236.36C282.58 236.32 265.39 236.36 248.21 236.32C243.21 236.31 238.98 238.11 235.45 241.51C231.47 245.33 227.63 249.29 223.74 253.2C223.38 253.56 222.78 253.85 222.99 254.55C223.43 254.86 223.92 254.75 224.39 254.75C242.62 254.75 260.84 254.7 279.07 254.75C284.58 254.77 289.2 252.87 293.05 248.98C296.65 245.35 300.29 241.75 303.89 238.12C304.37 237.63 305.05 237.27 305.11 236.87H305.12ZM245.25 444.15C246.68 444.15 247.94 444.15 249.2 444.15C266.86 444.15 284.52 444.13 302.18 444.15C306.7 444.15 310.74 442.8 314.01 439.73C318.03 435.96 321.84 431.97 325.72 428.05C326.37 427.4 327 426.7 327.08 425.71C322.29 425.72 317.67 425.75 313.05 425.75C299.07 425.75 285.08 425.81 271.1 425.72C265.64 425.68 261.14 427.66 257.33 431.41C253.69 435 250.09 438.63 246.48 442.26C246.04 442.7 245.47 443.05 245.25 444.15ZM401.84 500.36C400.55 500.4 399.9 501.27 399.19 501.96C395.71 505.38 392.28 508.85 388.81 512.28C385.09 515.96 383.29 520.38 383.3 525.63C383.32 544.19 383.28 562.74 383.26 581.3C383.26 581.61 383.22 581.94 383.57 582.15C384.02 582.27 384.28 581.91 384.55 581.64C388.46 577.74 392.39 573.87 396.25 569.92C400.13 565.94 401.81 561.17 401.77 555.57C401.65 538.77 401.72 521.98 401.73 505.18C401.73 503.6 401.8 502.03 401.84 500.36ZM613.49 288.53C612.28 288.65 611.63 289.53 610.9 290.24C607.65 293.44 604.5 296.73 601.19 299.87C596.98 303.85 595.1 308.66 595.12 314.44C595.2 332.59 595.14 350.74 595.14 368.89C595.14 369.4 594.86 370.03 595.58 370.38C595.78 370.26 596.01 370.18 596.17 370.02C600.13 366.07 604.15 362.17 608.02 358.13C611.38 354.63 613.57 350.54 613.56 345.5C613.52 326.57 613.5 307.64 613.47 288.53H613.49ZM379.01 522.58C378.41 522.5 378.14 522.97 377.82 523.29C373.69 527.41 369.56 531.54 365.45 535.68C364.89 536.24 364.4 536.89 363.96 537.55C361.83 540.69 360.89 544.16 360.89 547.96C360.89 566.59 360.87 585.22 360.85 603.85C360.85 604.15 360.82 604.52 361.4 604.6C361.58 604.48 361.86 604.34 362.08 604.13C365.99 600.24 369.93 596.38 373.77 592.42C377.62 588.45 379.39 583.7 379.35 578.09C379.25 560.18 379.32 542.27 379.31 524.36C379.31 523.77 379.6 523.08 379.02 522.58H379.01ZM431.6 463.26C432.18 463.4 432.41 463.15 432.63 462.93C436.48 459.09 440.35 455.28 444.15 451.39C447.74 447.72 449.94 443.42 449.93 438.13C449.91 419.67 449.93 401.21 449.93 382.74C449.93 382.23 450.18 381.59 449.43 381.32C448.67 381.66 448.19 382.32 447.63 382.88C444.23 386.26 440.91 389.73 437.44 393.03C433.29 396.96 431.47 401.7 431.5 407.39C431.58 424.65 431.53 441.92 431.53 459.18C431.53 460.53 431.59 461.87 431.62 463.26H431.6ZM327.19 213.76C325.27 213.81 323.61 213.9 321.95 213.9C304.93 213.91 287.91 213.95 270.9 213.88C265.63 213.86 261.25 215.75 257.55 219.38C253.79 223.07 250.08 226.82 246.36 230.57C245.94 230.99 245.29 231.31 245.34 232.03C245.7 232.41 246.11 232.33 246.49 232.33C265.11 232.32 283.72 232.31 302.34 232.29C307.12 232.29 311.26 230.57 314.69 227.29C318.21 223.92 321.6 220.41 325.03 216.96C325.87 216.11 326.66 215.21 327.19 213.76ZM397.73 284.37C395.86 284.43 394.13 284.52 392.4 284.52C375.7 284.52 359 284.6 342.3 284.46C336.38 284.41 331.59 286.5 327.51 290.62C324.14 294.03 320.73 297.4 317.35 300.8C316.81 301.34 316.14 301.8 315.89 302.54C316.42 303.17 317.02 302.93 317.54 302.93C321.3 302.94 325.05 302.93 328.81 302.93C343.43 302.93 358.06 302.93 372.68 302.93C377.27 302.93 381.4 301.54 384.74 298.42C388.71 294.71 392.45 290.77 396.28 286.91C396.94 286.25 397.57 285.54 397.74 284.38L397.73 284.37ZM189.8 288.09C188.02 289.13 186.73 290.18 185.55 291.37C182.79 294.15 180.04 296.95 177.23 299.68C173.16 303.63 171.21 308.37 171.22 314.06C171.28 332.22 171.23 350.38 171.24 368.54C171.24 369.05 170.97 369.67 171.62 370.06C172.46 369.85 172.89 369.13 173.44 368.58C176.91 365.14 180.31 361.65 183.81 358.25C187.82 354.35 189.71 349.7 189.68 344.08C189.59 327.2 189.65 310.32 189.66 293.44C189.66 291.78 189.75 290.12 189.8 288.1V288.09ZM590.7 310.4L589.14 311.96C585.75 315.35 582.44 318.83 578.95 322.11C574.6 326.2 572.67 331.12 572.7 337.08C572.8 355.14 572.72 373.2 572.73 391.26C572.73 391.77 572.45 392.39 573.08 392.73C573.48 392.75 573.7 392.51 573.92 392.29C577.76 388.45 581.63 384.63 585.44 380.76C589.39 376.75 591.22 371.97 591.19 366.27C591.09 347.89 591.19 329.51 591.19 311.14C591.19 310.9 591.19 310.67 590.68 310.4H590.7ZM174.71 373.19C175.27 373.83 175.94 373.53 176.54 373.53C185.02 373.54 193.5 373.53 201.98 373.53C211.82 373.53 221.66 373.51 231.5 373.53C236.11 373.53 240.21 372.08 243.56 368.98C247.42 365.39 251.06 361.55 254.77 357.8C255.52 357.04 256.24 356.22 256.55 354.89C254.39 355.18 252.48 355.12 250.57 355.12C233.93 355.12 217.29 355.19 200.65 355.09C195 355.06 190.39 357.09 186.48 361.02C183.04 364.48 179.57 367.92 176.14 371.38C175.6 371.92 174.88 372.35 174.71 373.18V373.19ZM312.71 511.9C313.38 511.44 313.66 511.31 313.88 511.09C317.79 507.19 321.73 503.33 325.57 499.38C329.42 495.41 331.19 490.66 331.15 485.06C331.04 467.95 331.12 450.84 331.09 433.72C331.09 432.41 331.48 431.08 331.13 429.74C329.83 429.86 329.2 430.75 328.48 431.46C325.11 434.77 321.83 438.16 318.43 441.43C314.45 445.26 312.67 449.89 312.69 455.4C312.76 472.75 312.71 490.1 312.71 507.46C312.71 508.8 312.71 510.15 312.71 511.91V511.9ZM472.33 359.06C471 359.36 470.28 360.26 469.51 361.02C466.15 364.34 462.86 367.71 459.48 371.01C455.72 374.67 453.93 379.09 453.93 384.33C453.96 402.41 453.93 420.48 453.93 438.56C453.93 439.04 453.88 439.53 453.96 440C454.07 440.63 454.5 440.73 455.01 440.42C455.28 440.26 455.53 440.05 455.75 439.82C459.96 435.45 464.54 431.43 468.43 426.73C470.99 423.64 472.29 420.1 472.3 416.14C472.34 397.2 472.32 378.26 472.32 359.07L472.33 359.06ZM237.45 169.2C236.88 169.26 236.61 169.57 236.34 169.85C232.04 174.15 227.75 178.45 223.46 182.75C221.78 184.44 220.8 186.53 220.06 188.75C219.42 190.67 219.34 192.66 219.33 194.67C219.24 213.14 219.55 231.61 219.17 250.08C219.17 250.39 219.12 250.73 219.58 250.96C219.93 250.96 220.2 250.66 220.47 250.39C224.82 246.03 229.17 241.67 233.52 237.32C234.38 236.46 235.02 235.46 235.59 234.39C237.14 231.5 237.74 228.41 237.73 225.15C237.72 207 237.73 188.85 237.74 170.69C237.74 170.22 237.86 169.73 237.45 169.2ZM185.77 284.34C185.51 284.26 185.3 284.14 185.08 284.15C175.16 284.43 165.25 284.22 155.33 284.26C146.69 284.3 138.05 284.25 129.42 284.28C124.95 284.3 120.84 285.49 117.57 288.66C113.26 292.83 109.06 297.12 104.83 301.37C104.49 301.71 103.82 302 104.24 302.36C105.76 302.35 107.27 302.66 108.78 302.66C118.3 302.71 127.82 302.68 137.33 302.68C145.33 302.68 153.33 302.68 161.32 302.68C165.58 302.68 169.37 301.33 172.44 298.36C176.52 294.41 180.49 290.35 184.48 286.31C185.01 285.77 185.73 285.3 185.76 284.35L185.77 284.34ZM241.89 228.55C242.78 228.38 243.2 227.65 243.74 227.11C247.2 223.68 250.56 220.13 254.12 216.79C258.36 212.81 260.21 208 260.18 202.23C260.1 185.28 260.16 168.33 260.14 151.37C260.14 149.88 260.01 148.38 259.94 146.8C259.02 146.99 258.44 147.8 257.78 148.44C254.31 151.86 250.93 155.39 247.39 158.74C243.42 162.5 241.71 167.04 241.73 172.47C241.8 189.82 241.75 207.17 241.76 224.53C241.76 225.85 241.84 227.17 241.88 228.55H241.89ZM397.56 72.79C396.11 72.67 394.7 72.46 393.28 72.45C375.94 72.43 358.6 72.44 341.26 72.45C336.23 72.45 331.91 74.14 328.36 77.79C324.69 81.57 320.91 85.25 317.19 89C316.71 89.49 316.03 89.85 315.91 90.61C316.13 91 316.47 90.89 316.78 90.89C327.09 90.88 337.4 90.86 347.71 90.85C356.1 90.85 364.49 90.87 372.88 90.84C377.19 90.82 381.12 89.53 384.26 86.53C388.36 82.61 392.31 78.53 396.3 74.5C396.83 73.96 397.57 73.5 397.56 72.79ZM293.51 113.02C293.74 113.42 294.08 113.31 294.38 113.31C305.73 113.31 317.07 113.29 328.42 113.28C335.69 113.28 342.96 113.28 350.23 113.28C355.08 113.28 359.28 111.69 362.73 108.17C366.42 104.4 370.19 100.71 373.9 96.97C374.43 96.44 375.18 96.02 375.23 95.17C374.62 94.72 374.05 94.88 373.51 94.88C355.37 94.88 337.24 94.88 319.1 94.88C313.89 94.88 309.44 96.59 305.78 100.39C302.23 104.07 298.55 107.63 294.96 111.26C294.42 111.8 293.68 112.21 293.52 113.03L293.51 113.02ZM285.8 474.09C283.64 476.25 281.61 478.27 279.59 480.31C272.28 487.63 268.64 496.48 268.64 506.82C268.64 519.37 268.64 531.92 268.64 544.47C268.64 548.49 268.15 552.44 267.02 556.31C266.9 556.72 266.52 557.18 267.2 557.81C267.73 557.28 268.27 556.74 268.82 556.19C272.38 552.63 275.88 549 279.52 545.52C284.17 541.07 286.39 535.78 286.33 529.26C286.18 511.67 286.28 494.08 286.27 476.5C286.27 475.81 286.5 475.07 285.8 474.09ZM356.45 544.65C353.26 547.93 349.91 550.77 347.2 554.22C341.65 561.27 339.14 569.34 339.21 578.31C339.3 590.62 339.21 602.94 339.24 615.25C339.24 619.2 338.72 623.06 337.65 626.85C337.52 627.3 337.01 627.86 337.86 628.38C338.36 627.88 338.86 627.38 339.37 626.87C343.16 623.08 346.92 619.27 350.74 615.51C354.88 611.43 356.94 606.58 356.91 600.7C356.83 582.63 356.89 564.56 356.89 546.48C356.89 546.01 357 545.52 356.46 544.64L356.45 544.65ZM479.22 345.33C479.86 345.25 480.26 344.73 480.7 344.3C484.66 340.34 488.64 336.4 492.56 332.41C493.79 331.16 494.86 329.75 495.76 328.23C497.44 325.4 498.09 322.31 498.09 319.05C498.09 301.38 498.09 283.7 498.09 266.03C498.09 264.79 498.09 263.55 498.1 261.74C494.53 265.51 490.98 268.48 488.14 272.15C482.68 279.2 480.38 287.24 480.45 296.1C480.53 307.94 480.45 319.77 480.48 331.61C480.49 335.71 480.13 339.75 479.07 343.72C478.94 344.22 478.59 344.77 479.21 345.33H479.22ZM426.94 403.57C423.89 406.68 420.56 409.52 417.85 412.94C412.29 419.97 409.75 428.04 409.82 437.01C409.92 449.16 409.82 461.31 409.86 473.47C409.87 477.25 409.45 480.96 408.54 484.63C408.39 485.22 408 485.82 408.48 486.44C409.06 486.6 409.39 486.19 409.71 485.86C413.9 481.68 418.14 477.55 422.24 473.29C425.83 469.56 427.52 465.06 427.51 459.81C427.45 441.74 427.49 423.67 427.48 405.61C427.48 405.01 427.75 404.34 426.94 403.57ZM566.01 329.58C565.07 329.49 564.76 329.44 564.45 329.44C551.5 329.44 538.54 329.46 525.59 329.47C520.31 329.47 515.03 329.51 509.76 329.47C503.86 329.42 498.86 331.26 494.76 335.69C491.07 339.68 487.1 343.41 483.27 347.26C482.86 347.67 482.28 348.02 482.24 348.7C482.76 348.92 483.15 348.79 483.53 348.68C487.95 347.4 492.48 347.1 497.06 347.11C509.13 347.14 521.21 347.11 533.28 347.11C538.22 347.11 542.95 346.12 547.51 344.2C551.93 342.35 555.71 339.56 559.2 336.36C561.42 334.32 563.49 332.11 566.02 329.57L566.01 329.58ZM282.64 471.08C282.15 470.49 281.74 470.58 281.35 470.58C262.72 470.58 244.08 470.58 225.45 470.61C220.58 470.61 216.39 472.45 212.93 475.83C208.7 479.96 204.54 484.18 200.37 488.38C200.01 488.74 199.41 489.02 199.56 489.71C200.04 490.04 200.51 489.79 200.95 489.68C205.31 488.5 209.76 488.2 214.26 488.22C226.34 488.27 238.41 488.26 250.49 488.22C254.92 488.21 259.21 487.38 263.39 485.85C271.35 482.95 277.03 477.14 282.64 471.08ZM411.25 277.76C411.91 278.26 412.45 277.93 412.95 277.79C417.15 276.6 421.43 276.36 425.77 276.37C437.76 276.41 449.74 276.41 461.73 276.37C470.13 276.34 477.76 273.95 484.51 268.83C487.91 266.25 490.67 263.04 493.73 260.12C494.1 259.77 494.68 259.49 494.64 259.28C492.77 259.1 491.03 258.79 489.3 258.79C472.2 258.75 455.1 258.82 438 258.74C432.54 258.71 428.06 260.71 424.26 264.48C420.41 268.31 416.57 272.16 412.74 276.01C412.2 276.55 411.54 277.01 411.26 277.76H411.25ZM568.53 332.6C565.16 336.08 561.65 339.01 558.86 342.63C553.38 349.74 551 357.84 551.06 366.78C551.13 378.92 551.06 391.07 551.09 403.21C551.09 406.99 550.73 410.7 549.73 414.35C549.55 415 549.17 415.66 549.51 416.58C550.09 416.05 550.62 415.61 551.1 415.13C554.95 411.29 558.77 407.43 562.63 403.61C566.76 399.53 568.79 394.69 568.75 388.8C568.64 371.54 568.71 354.28 568.7 337.03C568.7 335.69 568.59 334.34 568.52 332.6H568.53ZM478.54 557.91C479.15 557.53 479.37 557.45 479.52 557.3C484.04 552.79 488.63 548.33 493.06 543.72C496.46 540.18 498.12 535.87 498.11 530.9C498.08 512.52 498.11 494.15 498.11 475.77C498.11 475.26 498.37 474.62 497.48 474.29C493.71 478.09 489.55 481.62 486.56 486.21C482.49 492.47 480.49 499.37 480.47 506.83C480.45 519.53 480.44 532.24 480.47 544.94C480.47 548.48 480.1 551.95 479.15 555.37C478.96 556.06 478.82 556.75 478.54 557.91ZM269.76 348.76C270.73 348.59 271.2 348.55 271.65 348.42C275.84 347.22 280.13 346.97 284.47 346.99C296.54 347.03 308.61 347.03 320.69 346.99C328.24 346.97 335.2 344.94 341.5 340.72C345.93 337.76 349.44 333.82 353.05 329.98C353.12 329.91 353.03 329.69 353 329.46C352.71 329.42 352.4 329.34 352.09 329.34C333.3 329.34 314.51 329.35 295.73 329.36C292.35 329.36 289.15 330.24 286.51 332.3C280.46 337.02 275.32 342.69 269.76 348.74V348.76ZM128.56 419.54C133.52 418.04 138.33 417.57 143.24 417.6C155.32 417.68 167.4 417.66 179.48 417.61C187.03 417.58 194.01 415.57 200.3 411.32C204.71 408.34 208.28 404.45 211.86 400.58C211.92 400.51 211.82 400.3 211.79 400.07C211.5 400.03 211.19 399.96 210.88 399.96C192.24 399.96 173.6 399.97 154.96 399.99C149.99 399.99 145.75 401.85 142.23 405.3C137.95 409.5 133.73 413.77 129.49 418.02C129.16 418.35 128.74 418.61 128.55 419.54H128.56ZM282.81 259.4C281.26 259.18 279.77 258.8 278.29 258.8C260.87 258.76 243.44 258.82 226.02 258.75C220.74 258.73 216.36 260.64 212.68 264.27C208.52 268.36 204.42 272.51 200.3 276.65C199.89 277.06 199.32 277.4 199.21 278.37C205.59 276.15 212 276.38 218.39 276.39C228.78 276.4 239.17 276.39 249.56 276.39C251.96 276.39 254.35 276.2 256.72 275.82C267.83 274.03 275.69 267.17 282.76 259.1C282.79 259.06 282.75 258.96 282.81 259.42V259.4ZM125.63 416.4C126.23 415.8 126.68 415.35 127.13 414.9C131.09 410.94 135.02 406.95 139.02 403.03C142.95 399.18 144.84 394.61 144.82 389.07C144.75 370.83 144.81 352.59 144.81 334.36C144.81 333.85 145.08 333.22 144.19 332.75C140.49 336.51 136.46 340.01 133.46 344.5C129.14 350.95 127.17 358.09 127.16 365.81C127.15 378.45 127.14 391.09 127.16 403.73C127.16 407.44 126.65 411.06 125.7 414.63C125.58 415.08 125.3 415.51 125.63 416.41V416.4ZM340.64 207.19C341.09 207.5 341.4 207.4 341.7 207.32C346.12 206.06 350.64 205.74 355.22 205.77C366.97 205.83 378.71 205.8 390.46 205.79C398.32 205.79 405.64 203.91 412.21 199.45C416.67 196.42 420.26 192.44 423.93 188.55C423.99 188.49 423.88 188.28 423.95 188.6C421.14 188.45 418.44 188.19 415.73 188.18C399.67 188.14 383.61 188.22 367.55 188.13C362 188.1 357.45 190.08 353.6 193.94C349.76 197.79 345.91 201.62 342.08 205.47C341.58 205.97 340.97 206.39 340.66 207.21L340.64 207.19ZM196.2 486.38C197.19 486.2 197.66 485.56 198.21 485.01C201.78 481.45 205.24 477.78 208.93 474.35C213.57 470.03 215.53 464.85 215.47 458.52C215.31 441.24 215.42 423.97 215.4 406.69C215.4 405.63 215.69 404.52 215.29 403.47C214.98 403.52 214.78 403.49 214.69 403.58C210.46 407.6 206.17 411.57 203.12 416.64C199.38 422.84 197.78 429.6 197.78 436.79C197.78 446.07 197.82 455.35 197.77 464.63C197.73 471.88 198.37 479.19 196.21 486.4L196.2 486.38ZM58.2401 348.46C60.8301 347.98 63.1701 347.48 65.5301 347.11C67.9801 346.73 70.4701 346.76 72.9501 346.76C85.1001 346.77 97.2601 346.77 109.41 346.76C116.92 346.75 123.72 344.46 129.89 340.24C134.09 337.37 137.29 333.44 140.87 329.9C141.04 329.73 141.02 329.47 140.76 329.14C139.27 329.14 137.68 329.13 136.09 329.13C119.22 329.13 102.35 329.14 85.4801 329.13C79.8601 329.13 75.0301 330.78 71.1001 335.03C67.4601 338.96 63.5501 342.63 59.7801 346.43C59.2401 346.97 58.5101 347.39 58.2501 348.46H58.2401ZM196.08 274.45C196.94 274.09 197.41 273.45 197.95 272.91C201.75 269.13 205.45 265.25 209.34 261.57C213.51 257.64 215.33 252.9 215.31 247.22C215.24 229.23 215.31 211.24 215.3 193.25C215.3 192.73 215.53 192.13 215 191.66C214.26 191.63 213.94 192.27 213.51 192.69C211.85 194.31 210.24 195.98 208.58 197.6C201.21 204.81 197.73 213.65 197.69 223.88C197.64 235.07 197.64 246.27 197.69 257.46C197.72 262.92 197.59 268.33 196.03 273.62C195.97 273.82 196.05 274.06 196.07 274.46L196.08 274.45ZM269.88 136.8C272.56 136.08 274.88 135.56 277.25 135.23C279.72 134.88 282.2 134.94 284.67 134.94C296.58 134.93 308.5 134.94 320.41 134.94C328.49 134.94 335.86 132.71 342.4 127.89C346.28 125.03 349.45 121.42 352.74 117.94C352.81 117.87 352.72 117.65 352.7 117.49C352.03 117.13 351.3 117.31 350.6 117.31C333.01 117.31 315.42 117.37 297.82 117.27C291.8 117.24 286.76 118.99 282.61 123.51C279.1 127.34 275.29 130.89 271.62 134.57C271.06 135.13 270.39 135.6 269.87 136.81L269.88 136.8ZM266.85 345.54C267.61 345.27 268.05 344.58 268.59 344.04C272.45 340.21 276.24 336.31 280.14 332.53C284.15 328.64 286.07 324 286.04 318.38C285.96 301.19 286.01 284.01 286.01 266.82C286.01 265.7 286.06 264.58 286.05 263.46C286.05 262.96 286.48 262.35 285.64 261.89C283.58 263.95 281.45 266.01 279.41 268.13C272.35 275.47 268.47 284.12 268.53 294.44C268.59 306.35 268.56 318.26 268.53 330.17C268.53 335.06 268.18 339.91 266.74 344.63C266.65 344.91 266.48 345.23 266.85 345.54ZM337.6 204.2C337.92 203.98 338.14 203.88 338.31 203.71C342.89 199.13 347.54 194.62 352.01 189.95C355.05 186.78 356.59 182.86 356.62 178.43C356.65 172.84 356.63 167.24 356.63 161.65C356.63 149.34 356.65 137.03 356.61 124.73C356.61 123.43 356.97 122.11 356.58 120.36C355.07 121.87 353.87 123.11 352.62 124.32C349.97 126.88 347.41 129.51 345.37 132.59C341.2 138.89 339.09 145.8 339.13 153.39C339.19 165.62 339.15 177.85 339.14 190.08C339.14 194.25 338.71 198.37 337.66 202.42C337.53 202.93 337.17 203.44 337.61 204.21L337.6 204.2ZM424.34 612.7C422.75 612.48 421.26 612.11 419.77 612.11C402.18 612.07 384.6 612.08 367.01 612.09C362.14 612.09 357.95 613.79 354.49 617.23C350.24 621.46 346 625.7 341.77 629.95C341.36 630.36 340.81 630.72 340.65 631.67C347.7 629.31 354.75 629.56 361.77 629.56C372 629.56 382.23 629.54 392.47 629.56C397.35 629.57 401.97 628.5 406.44 626.61C413.71 623.53 419.07 618.07 424.26 612.38C424.29 612.35 424.24 612.24 424.33 612.7H424.34ZM337.19 416.04C337.33 416.11 337.48 416.19 337.62 416.26C341.91 411.97 346.14 407.6 350.52 403.4C354.75 399.34 356.71 394.52 356.67 388.63C356.55 371.36 356.63 354.09 356.62 336.81C356.62 335.42 356.46 334.03 356.36 332.45C352.61 336.16 348.69 339.65 345.68 344C341.28 350.37 339.1 357.42 339.13 365.19C339.19 377.5 339.15 389.82 339.13 402.13C339.13 403.33 339.03 404.52 339 405.72C338.9 409.24 338.07 412.64 337.19 416.03V416.04ZM408.24 274.82C408.59 274.55 408.86 274.38 409.08 274.16C413.66 269.59 418.24 265.01 422.8 260.42C423.3 259.91 423.73 259.33 424.14 258.74C426.31 255.53 427.29 252.01 427.28 248.12C427.23 230.62 427.26 213.12 427.25 195.62C427.25 194.23 427.13 192.84 427.05 191.12C424.85 193.32 422.75 195.37 420.71 197.46C413.61 204.77 409.75 213.45 409.76 223.74C409.76 235.81 409.76 247.87 409.76 259.94C409.76 264.51 409.4 269.04 408.14 273.46C408.03 273.83 407.84 274.21 408.24 274.83V274.82ZM552.64 419.06C552.74 419.22 552.84 419.37 552.94 419.53C553.25 419.49 553.56 419.48 553.86 419.4C558.11 418.14 562.47 417.73 566.89 417.74C579.28 417.76 591.67 417.76 604.06 417.74C611.38 417.73 618.06 415.62 624.16 411.57C628.66 408.58 632.27 404.62 635.99 400.78C636.07 400.7 636.03 400.49 636.05 400.27C635.56 399.96 635 400.09 634.47 400.11C632.47 400.16 630.48 400.26 628.48 400.26C611.93 400.27 595.39 400.3 578.84 400.24C574.91 400.23 571.27 401.2 568.35 403.69C562.77 408.45 557.89 413.95 552.64 419.06ZM353.42 541.8C351.87 541.68 350.44 541.49 349.02 541.49C331.52 541.47 314.02 541.49 296.53 541.47C291.56 541.47 287.33 543.2 283.83 546.7C279.76 550.77 275.69 554.83 271.63 558.91C271.16 559.39 270.54 559.79 270.38 560.49C270.87 560.88 271.25 560.68 271.62 560.57C276.12 559.25 280.73 558.96 285.38 558.96C297.44 558.96 309.51 558.96 321.57 558.96C328.99 558.96 335.73 556.81 341.86 552.68C346.13 549.8 349.63 546.06 353.17 542.38C353.32 542.23 353.36 541.97 353.43 541.8H353.42ZM424.16 400.26C421.76 399.84 419.62 400.27 417.48 400.26C400.76 400.23 384.04 400.28 367.32 400.22C362.14 400.2 357.83 401.96 354.21 405.65C350.18 409.77 346.07 413.8 342.01 417.89C341.61 418.29 340.92 418.59 341.12 419.47C341.56 419.4 341.95 419.38 342.33 419.27C346.68 418.07 351.13 417.7 355.63 417.72C367.79 417.75 379.95 417.72 392.11 417.72C399.1 417.72 405.54 415.82 411.43 412.09C416.13 409.11 419.97 405.14 423.77 401.13C423.92 400.98 423.95 400.72 424.16 400.23V400.26ZM494.87 470.61C493.27 470.85 491.71 470.88 490.14 470.88C472.63 470.88 455.12 470.88 437.6 470.88C432.72 470.88 428.54 472.59 425.09 476.03C420.96 480.15 416.83 484.28 412.71 488.42C412.29 488.84 411.66 489.15 411.65 489.86C412.06 490.2 412.45 490.02 412.82 489.92C417.57 488.6 422.41 488.31 427.31 488.32C439.22 488.36 451.14 488.36 463.05 488.32C470.2 488.3 476.77 486.25 482.7 482.26C487.23 479.21 491.05 475.32 494.78 471.37C494.86 471.28 494.82 471.08 494.86 470.61H494.87ZM547.19 401.17C546.99 401.08 546.8 400.99 546.6 400.9C543.88 403.19 540.69 403.51 537.33 403.48C526.7 403.4 516.07 403.46 505.44 403.45C500.22 403.45 495.78 405.21 492.12 408.99C488.44 412.77 484.66 416.45 480.95 420.21C480.5 420.66 479.7 420.99 479.94 421.97C480.28 422 480.59 422.04 480.9 422.04C498.72 422.04 516.55 422.02 534.37 422C535.33 422 536.3 422 537.24 421.86C541.22 421.27 543.99 419.18 545.28 415.27C546.06 412.91 546.6 410.48 546.85 408.02C547.08 405.76 547.09 403.47 547.19 401.19V401.17ZM335.22 277.15C336.08 276.74 336.56 276.08 337.12 275.52C340.47 272.19 343.72 268.76 347.16 265.53C351.59 261.37 353.52 256.33 353.46 250.3C353.36 239.66 353.46 229.02 353.41 218.38C353.41 215.84 353.83 213.47 355.17 211.27C355.88 210.11 355.64 209.67 354.26 209.69C349.52 209.78 344.83 210.2 340.39 212.06C338.39 212.9 336.95 214.34 336.01 216.3C335.05 218.3 334.86 220.43 334.86 222.61C334.87 240.21 334.86 257.81 334.86 275.4C334.86 275.93 334.64 276.51 335.21 277.12L335.22 277.15ZM405.46 347.89C406.55 347.49 406.98 346.91 407.47 346.42C411.04 342.87 414.54 339.25 418.17 335.76C422.27 331.8 424.11 327.02 424.07 321.36C424 310.57 424.08 299.78 424.03 289C424.02 286.54 424.45 284.26 425.68 282.11C426.46 280.75 426.31 280.53 424.71 280.47C420.68 280.32 416.73 280.84 412.88 282.04C407.98 283.57 405.7 286.59 405.5 291.74C405.47 292.46 405.49 293.18 405.49 293.9C405.49 310.52 405.49 327.14 405.49 343.76C405.49 345.03 405.47 346.3 405.46 347.91V347.89ZM338.54 492.53C339.03 492.58 339.34 492.63 339.66 492.63C357.66 492.63 375.66 492.62 393.66 492.59C394.69 492.59 395.75 492.52 396.76 492.32C400.03 491.65 402.53 489.9 403.72 486.71C405.36 482.31 405.98 477.73 405.81 473.04C405.78 472.12 405.46 471.58 404.5 472.22C401.97 473.91 399.15 474.08 396.22 474.06C385.66 474.01 375.1 474.05 364.54 474.04C359.16 474.04 354.55 475.75 350.77 479.71C347.29 483.35 343.65 486.85 340.1 490.43C339.55 490.98 338.84 491.41 338.54 492.52V492.53ZM476.04 542.51C472.987 543.957 469.64 544.68 466 544.68C455.7 544.68 445.39 544.69 435.09 544.68C430.17 544.68 425.78 546.11 422.21 549.56C418.08 553.56 414.05 557.67 410 561.75C409.65 562.1 409.02 562.39 409.36 563.18C409.64 563.21 409.95 563.26 410.27 563.26C428.24 563.26 446.22 563.26 464.19 563.24C465.14 563.24 466.11 563.19 467.05 563.02C470.93 562.32 473.55 560.13 474.71 556.31C475.78 552.78 476.49 549.18 476.44 545.47C476.43 544.54 476.69 543.56 476.05 542.53L476.04 542.51ZM335.04 189.33C334.53 189.1 334.21 189.19 333.95 189.37C331.32 191.19 328.35 191.52 325.25 191.51C314.53 191.48 303.82 191.54 293.1 191.48C287.91 191.45 283.6 193.33 279.98 196.94C276.3 200.61 272.62 204.28 268.96 207.97C268.48 208.45 267.81 208.83 267.72 209.61C268.31 210.16 268.97 209.9 269.58 209.9C287.1 209.91 304.61 209.9 322.13 209.9C323.01 209.9 323.9 209.93 324.77 209.84C328.9 209.41 331.76 207.32 333.13 203.33C333.42 202.5 333.69 201.66 333.91 200.81C334.87 197 335.32 193.15 335.05 189.31L335.04 189.33ZM496.96 351.2C491.56 351.08 486.15 351.38 481.19 353.86C478.22 355.34 476.7 358.09 476.39 361.42C476.31 362.29 476.36 363.18 476.36 364.06C476.36 381.08 476.36 398.1 476.36 415.12C476.36 416.26 476.13 417.43 476.4 418.5C476.99 418.59 477.22 418.35 477.44 418.13C481.57 414.01 485.79 409.97 489.79 405.73C493.14 402.18 494.83 397.9 494.78 392.89C494.67 383.14 494.8 373.39 494.73 363.65C494.7 359.47 494.65 355.33 497.06 351.65C497.09 351.61 497.03 351.51 496.96 351.21V351.2ZM264.58 418.32C265.48 417.97 265.94 417.29 266.5 416.74C269.96 413.3 273.35 409.8 276.86 406.42C280.88 402.54 282.81 397.94 282.72 392.29C282.56 382.23 282.65 372.16 282.69 362.09C282.7 358.82 282.65 355.52 284.5 352.57C285.25 351.38 285.05 351.09 283.64 351.04C279.29 350.89 275.04 351.51 270.89 352.86C267.65 353.91 265.68 356.11 264.72 359.33C264.32 360.66 264.28 362 264.28 363.36C264.28 381.18 264.27 398.99 264.27 416.81C264.27 417.27 264.13 417.77 264.59 418.32H264.58ZM405.68 259.22C401.64 262.38 397.45 262.15 393.28 262.13C383.61 262.09 373.93 262.21 364.26 262.08C358.71 262.01 354.15 263.98 350.29 267.85C346.79 271.36 343.27 274.85 339.78 278.37C339.24 278.91 338.53 279.35 338.33 280.16C338.78 280.79 339.39 280.51 339.9 280.51C357.65 280.51 375.4 280.51 393.14 280.51C394.5 280.51 395.86 280.51 397.19 280.15C399.8 279.46 401.87 278.01 403.02 275.55C405.34 270.59 405.78 265.3 405.67 259.21L405.68 259.22ZM335.42 489.13C335.8 489.18 336.03 488.95 336.25 488.73C340.26 484.72 344.33 480.77 348.27 476.69C351.93 472.9 353.62 468.34 353.57 463C353.46 452.14 353.57 441.27 353.52 430.41C353.51 427.86 354.06 425.51 355.31 423.3C355.53 422.91 355.96 422.57 355.79 422.02C355.32 421.58 354.73 421.76 354.19 421.76C350.66 421.74 347.2 422.31 343.75 423.04C337.71 424.31 335.05 428.86 335.1 433.98C335.26 450.83 335.15 467.69 335.17 484.55C335.17 486.06 335.34 487.56 335.43 489.15L335.42 489.13ZM567.76 421.76C562.23 421.63 557.05 422.23 552.09 424.29C551.42 424.57 550.85 425 550.3 425.48C547.82 427.64 546.96 430.43 546.96 433.63C546.96 451.79 546.95 469.94 546.95 488.1C546.95 488.47 546.83 488.92 547.29 489.13C547.68 489.19 547.9 488.94 548.11 488.72C552.13 484.71 556.21 480.75 560.13 476.65C563.76 472.85 565.5 468.31 565.42 462.94C565.27 452.14 565.38 441.35 565.37 430.55C565.37 428.61 565.62 426.73 566.35 424.92C566.73 423.96 567.54 423.21 567.77 421.77L567.76 421.76ZM406.06 559.8C406.85 559.57 407.21 559.02 407.66 558.57C411.23 555.02 414.81 551.47 418.34 547.88C422.21 543.95 424.27 539.34 424.2 533.68C424.06 522.89 424.18 512.09 424.15 501.3C424.15 498.6 424.62 496.06 426.02 493.72C426.22 493.39 426.51 493.09 426.39 492.58C426.2 492.52 425.99 492.38 425.77 492.38C420.85 492.28 416.04 492.88 411.41 494.65C410.5 495 409.71 495.51 408.99 496.16C406.64 498.3 405.73 500.96 405.73 504.09C405.76 522.16 405.73 540.23 405.73 558.3C405.73 558.77 405.6 559.26 406.06 559.78V559.8ZM193.95 347.76C194.76 347.42 195.2 346.84 195.69 346.35C199.32 342.74 202.92 339.1 206.56 335.5C210.28 331.82 212.12 327.43 212.1 322.17C212.04 311.37 212.1 300.57 212.08 289.77C212.08 287.01 212.42 284.36 213.89 281.94C214.56 280.84 214.36 280.49 213.14 280.45C208.37 280.26 203.71 280.87 199.26 282.66C196.46 283.78 194.84 286 194.03 288.84C193.67 290.08 193.66 291.36 193.66 292.65C193.66 310.49 193.66 328.32 193.66 346.16C193.66 346.63 193.55 347.12 193.95 347.77V347.76ZM334.86 400.95C331.29 403.49 327.35 403.36 323.41 403.35C313.58 403.31 303.74 403.45 293.91 403.29C288.16 403.2 283.49 405.27 279.52 409.23C276.01 412.73 272.5 416.23 269.01 419.75C268.53 420.24 267.86 420.62 267.74 421.47C268.22 421.89 268.79 421.74 269.32 421.74C286.91 421.74 304.49 421.73 322.08 421.72C322.96 421.72 323.84 421.76 324.72 421.68C328.03 421.37 330.8 420.01 332.31 416.96C334.77 411.97 335.16 406.58 334.86 400.95ZM196.92 350.61C197.65 351.35 198.24 351.13 198.77 351.13C216.43 351.13 234.08 351.13 251.74 351.13C252.38 351.13 253.02 351.15 253.66 351.11C258.09 350.88 261.11 348.57 262.61 344.38C264.07 340.33 264.36 336.12 264.48 331.88C264.52 330.52 264.09 330.24 262.9 330.95C260.47 332.42 257.84 332.73 255.07 332.73C244.13 332.7 233.18 332.73 222.24 332.72C218.53 332.72 215.19 333.78 212.13 335.91C209.47 337.75 207.42 340.22 205.13 342.43C202.38 345.09 199.71 347.83 196.92 350.62V350.61ZM409.18 351.2C409.5 351.29 409.65 351.38 409.8 351.37C418.42 351.03 427.05 351.27 435.68 351.23C445.59 351.19 455.49 351.24 465.4 351.21C470.24 351.19 473.42 348.78 474.81 344.21C476 340.28 476.59 336.27 476.45 332.15C476.43 331.62 476.58 331 475.65 330.61C472.82 332.89 469.31 332.84 465.76 332.82C455.69 332.76 445.63 332.86 435.56 332.78C429.8 332.73 424.98 334.61 421.01 338.84C417.67 342.39 414.13 345.75 410.7 349.21C410.16 349.76 409.43 350.18 409.19 351.2H409.18ZM264.24 206.16C265.19 205.93 265.58 205.28 266.07 204.79C269.75 201.13 273.38 197.42 277.1 193.79C280.86 190.12 282.61 185.7 282.59 180.46C282.55 169.43 282.59 158.41 282.57 147.38C282.57 144.75 283.07 142.3 284.56 140.11C284.73 139.86 284.97 139.62 284.85 139.33C284.62 138.94 284.28 138.98 283.97 138.97C279.86 138.82 275.87 139.42 271.89 140.44C266.9 141.73 264.04 146.02 264.14 150.87C264.32 159.41 264.18 167.97 264.19 176.51C264.19 186.33 264.22 196.15 264.24 206.16ZM126.06 280.12C128 280.18 129.35 280.26 130.7 280.26C147.88 280.26 165.07 280.28 182.25 280.26C187.15 280.26 190.46 277.82 191.92 273.18C193.11 269.42 193.72 265.56 193.64 261.61C193.63 261 193.83 260.32 193.2 259.78C193 259.82 192.74 259.8 192.57 259.92C190.04 261.55 187.25 261.89 184.31 261.88C173.6 261.82 162.89 261.88 152.18 261.85C148.31 261.85 144.52 262.52 141.56 264.98C136.11 269.52 131.43 274.89 126.05 280.13L126.06 280.12ZM427.89 325.25C428.96 325.2 429.29 324.58 429.71 324.15C433.5 320.38 437.26 316.57 441.07 312.81C444.74 309.19 446.49 304.82 446.47 299.69C446.45 295.46 446.49 291.23 446.47 286.99C446.46 285.29 446.71 283.67 447.37 282.09C448.04 280.5 447.92 280.3 446.21 280.28C442.78 280.24 439.34 280.26 435.91 280.28C433.14 280.3 431.02 281.59 429.39 283.74C428.17 285.35 427.92 287.23 427.93 289.18C427.94 299.96 427.93 310.74 427.93 321.52C427.93 322.71 427.9 323.9 427.89 325.24V325.25ZM360.75 257.75C361.15 258.3 361.67 258.09 362.12 258.09C373.7 258.09 385.28 258.08 396.86 258.07C397.5 258.07 398.14 258.09 398.77 258.01C402.4 257.6 405.43 254.77 405.64 251.13C405.88 246.99 405.89 242.84 405.59 238.69C405.59 238.56 405.4 238.45 405.13 238.12C402.03 240.15 398.45 239.43 394.97 239.51C392.1 239.58 389.22 239.51 386.34 239.53C381.15 239.58 376.69 241.41 373.01 245.12C369.41 248.75 365.78 252.34 362.18 255.97C361.64 256.51 360.92 256.94 360.75 257.74V257.75ZM502.06 399.05C502.64 399.68 503.05 399.57 503.43 399.57C514.87 399.57 526.3 399.57 537.74 399.55C538.54 399.55 539.34 399.51 540.13 399.4C544.06 398.83 546.57 396.45 547.04 392.54C547.51 388.64 547.21 384.71 547.19 380.8C547.19 379.64 546.83 379.47 545.62 380.03C543.82 380.86 541.95 381.03 540.01 381.02C535.85 380.98 531.69 380.99 527.53 381.02C522.58 381.05 518.32 382.74 514.82 386.3C512.41 388.75 509.96 391.17 507.53 393.6C505.73 395.4 503.92 397.21 502.06 399.07V399.05ZM290.14 187.12C290.51 187.69 291.04 187.48 291.48 187.48C302.98 187.48 314.48 187.48 325.98 187.46C326.7 187.46 327.42 187.45 328.13 187.36C332.03 186.86 334.65 184.43 334.99 180.52C335.35 176.39 335.26 172.23 334.99 168.09C334.99 167.96 334.81 167.85 334.57 167.56C331.25 169.49 327.53 168.82 323.89 168.9C321.26 168.95 318.62 168.9 315.98 168.91C310.6 168.92 306.02 170.8 302.23 174.66C298.7 178.25 295.11 181.78 291.57 185.35C291.03 185.89 290.32 186.32 290.12 187.12H290.14ZM357.55 254.92C358.29 254.25 358.83 253.79 359.33 253.3C363.01 249.63 366.67 245.94 370.36 242.28C374.07 238.59 375.89 234.14 375.87 228.92C375.86 225 375.9 221.08 375.86 217.17C375.84 215.15 376 213.2 376.79 211.3C377.38 209.88 377.21 209.67 375.59 209.66C372.07 209.63 368.55 209.54 365.04 209.7C360.69 209.89 357.63 213.05 357.35 217.41C357.3 218.21 357.32 219.01 357.32 219.81C357.32 230.36 357.32 240.92 357.33 251.47C357.33 252.49 357.12 253.53 357.56 254.92H357.55ZM287.05 395.89C287.89 395.5 288.37 394.84 288.93 394.28C292.5 390.73 296.03 387.14 299.62 383.61C303.41 379.88 305.28 375.38 305.24 370.07C305.21 366.23 305.26 362.4 305.22 358.56C305.2 356.46 305.35 354.43 306.19 352.46C306.76 351.13 306.58 350.89 305.17 350.87C301.65 350.84 298.14 350.83 294.62 350.91C291.99 350.97 289.86 352.09 288.24 354.2C286.95 355.89 286.69 357.82 286.69 359.86C286.69 371.45 286.68 383.04 286.67 394.63C286.67 395.02 286.57 395.43 287.03 395.88L287.05 395.89ZM264.06 520.84C260.73 522.79 256.93 522.12 253.22 522.19C250.51 522.24 247.79 522.16 245.08 522.21C240.17 522.3 235.88 523.91 232.38 527.48C228.58 531.36 224.7 535.16 220.88 539.01C220.46 539.43 219.82 539.75 219.85 540.45C220.11 540.81 220.44 540.78 220.75 540.78C232.49 540.78 244.22 540.78 255.96 540.74C256.91 540.74 257.88 540.61 258.8 540.39C262.19 539.57 264.49 536.83 264.58 533.34C264.67 529.59 264.61 525.84 264.6 522.08C264.6 521.69 264.61 521.28 264.05 520.84H264.06ZM334.63 591.39C331.37 593.51 327.55 592.71 323.84 592.81C321.21 592.88 318.57 592.81 315.93 592.83C310.73 592.87 306.29 594.67 302.63 598.43C299.01 602.15 295.3 605.78 291.63 609.46C291.15 609.94 290.52 610.34 290.4 611.03C290.81 611.48 291.22 611.39 291.61 611.38C303.19 611.38 314.77 611.36 326.35 611.34C327.07 611.34 327.79 611.34 328.5 611.24C332.27 610.71 335.08 607.73 335.19 603.93C335.3 600.18 335.22 596.42 335.22 592.67C335.22 592.28 335.22 591.87 334.62 591.39H334.63ZM361.02 470.08C362.46 470.1 363.73 470.15 365 470.14C376.1 470.06 387.19 470.35 398.29 469.98C402.78 469.83 405.76 466.8 405.83 462.34C405.89 458.83 405.85 455.31 405.84 451.8C405.84 451.33 405.89 450.83 405.56 450.43C405.25 450.28 404.93 450.32 404.64 450.48C402.75 451.51 400.7 451.64 398.6 451.62C394.45 451.58 390.3 451.58 386.15 451.62C381.3 451.66 377.12 453.35 373.68 456.82C369.92 460.62 366.11 464.38 362.34 468.18C361.86 468.67 361.18 469.04 361.02 470.09V470.08ZM475.93 520.79C472.63 522.75 468.91 522.13 465.27 522.19C462.56 522.23 459.84 522.19 457.12 522.2C452.1 522.22 447.75 523.92 444.18 527.5C440.34 531.34 436.49 535.17 432.67 539.03C432.25 539.45 431.61 539.77 431.66 540.48C431.96 540.81 432.28 540.78 432.59 540.78C444.25 540.78 455.91 540.76 467.57 540.75C468.69 540.75 469.81 540.66 470.89 540.32C473.89 539.37 476 537.38 476.3 534.25C476.71 529.97 476.53 525.64 476.35 521.33C476.35 521.21 476.17 521.09 475.94 520.78L475.93 520.79ZM235.99 280.8C235.25 280.3 234.6 280.4 233.98 280.4C230.71 280.4 227.43 280.46 224.16 280.38C221.64 280.31 219.72 281.32 218.04 283.11C216.43 284.83 216.09 286.89 216.09 289.09C216.09 300.75 216.07 312.41 216.07 324.07C216.07 324.5 215.87 325.06 216.64 325.26C217.07 324.86 217.56 324.45 218.01 324.01C221.69 320.34 225.33 316.64 229.03 313.01C232.83 309.28 234.61 304.74 234.64 299.46C234.66 296.74 234.6 294.03 234.65 291.31C234.72 287.75 234.09 284.12 235.98 280.8H235.99ZM589.69 421.72C584.55 421.78 580.08 421.33 575.66 421.94C572.1 422.43 569.79 425.28 569.44 428.88C569.38 429.51 569.4 430.16 569.4 430.8C569.4 442.3 569.38 453.81 569.4 465.31C569.4 465.81 569.11 466.45 569.87 466.76C570.07 466.63 570.29 466.53 570.45 466.36C574.63 462.19 578.92 458.1 582.96 453.79C586.18 450.36 587.95 446.24 587.83 441.4C587.75 438.13 587.83 434.85 587.81 431.57C587.8 428.38 587.58 425.16 589.7 421.72H589.69ZM219.54 328.36C220.02 328.91 220.61 328.67 221.14 328.67C225.45 328.68 229.77 328.67 234.08 328.67C241.51 328.67 248.93 328.7 256.36 328.65C260.85 328.62 264.02 325.98 264.37 321.7C264.71 317.57 264.63 313.41 264.37 309.27C264.37 309.14 264.18 309.03 263.94 308.74C260.56 310.74 256.76 310.22 253.03 310.25C250.31 310.27 247.6 310.3 244.88 310.25C239.71 310.16 235.4 312.11 231.78 315.71C228.1 319.37 224.43 323.04 220.77 326.73C220.29 327.21 219.62 327.59 219.53 328.36H219.54ZM235.93 492.6C235.61 492.43 235.47 492.3 235.33 492.29C231.25 492.27 227.17 492.2 223.1 492.27C221.47 492.3 220.04 493.03 218.8 494.16C216.81 495.96 216.07 498.19 216.08 500.81C216.1 512.49 216.08 524.17 216.08 535.85C216.08 536.29 215.89 536.84 216.63 537.07C216.96 536.79 217.34 536.5 217.67 536.17C221.58 532.27 225.49 528.38 229.37 524.45C232.46 521.32 234.24 517.59 234.52 513.14C234.67 510.74 234.55 508.34 234.66 505.95C234.88 501.46 233.81 496.85 235.94 492.6H235.93ZM289.97 399.41C291.57 399.36 292.92 399.27 294.26 399.27C305.12 399.26 315.98 399.28 326.83 399.25C331.4 399.24 334.48 396.74 334.96 392.44C335.4 388.47 335.09 384.47 335.1 380.48C335.1 379.34 334.45 379.4 333.66 379.78C331.66 380.74 329.53 380.9 327.35 380.88C323.6 380.85 319.84 380.97 316.09 380.85C310.45 380.67 305.85 382.81 301.95 386.74C298.52 390.2 295.06 393.62 291.63 397.08C291.08 397.63 290.38 398.07 289.96 399.41H289.97ZM357.87 466.7C358.21 466.75 358.43 466.51 358.65 466.29C362.67 462.28 366.75 458.33 370.67 454.23C374.3 450.44 376.2 445.92 375.98 440.55C375.83 436.88 375.98 433.2 375.94 429.52C375.91 427.34 376.09 425.23 377 423.2C377.54 422 377.38 421.74 376.15 421.73C372.31 421.7 368.47 421.57 364.64 421.79C360.7 422.02 357.89 425.06 357.58 429C357.52 429.72 357.55 430.44 357.55 431.16C357.55 441.55 357.54 451.95 357.56 462.34C357.56 463.77 357.75 465.19 357.85 466.71L357.87 466.7ZM286.96 608.12C287.51 607.82 287.75 607.76 287.91 607.6C292.1 603.43 296.38 599.34 300.43 595.04C303.78 591.48 305.52 587.19 305.35 582.18C305.23 578.75 305.35 575.31 305.32 571.87C305.29 569.22 305.25 566.59 306.53 564.14C306.97 563.3 306.58 562.93 305.75 562.93C301.76 562.95 297.75 562.63 293.78 563.08C289.67 563.54 287.2 566.37 286.97 570.48C286.93 571.2 286.95 571.92 286.95 572.64C286.95 583.11 286.95 593.58 286.95 604.04C286.95 605.3 286.96 606.57 286.97 608.11L286.96 608.12ZM499.12 395.9C499.69 395.81 500.05 395.5 500.38 395.16C504.28 391.26 508.25 387.44 512.05 383.44C515.47 379.83 517.34 375.53 517.19 370.43C517.08 366.6 517.19 362.76 517.16 358.93C517.14 356.75 517.34 354.64 518.21 352.6C518.73 351.37 518.59 351.13 517.36 351.12C513.53 351.08 509.68 350.97 505.86 351.17C502.07 351.37 499.22 354.34 498.82 358.13C498.75 358.76 498.78 359.41 498.78 360.05C498.78 371.39 498.77 382.73 498.77 394.08C498.77 394.62 498.62 395.2 499.12 395.91V395.9ZM448.17 492.66C443.5 492.58 439.28 492.48 435.06 492.45C434.11 492.45 433.19 492.8 432.32 493.25C429.27 494.84 428.16 497.49 428.16 500.76C428.16 512.5 428.14 524.24 428.15 535.98C428.15 536.43 427.95 536.95 428.45 537.27C428.85 537.38 429.07 537.11 429.28 536.9C433.35 532.84 437.5 528.85 441.45 524.68C444.8 521.14 446.71 516.92 446.59 511.91C446.52 509.2 446.55 506.48 446.59 503.77C446.63 500.05 446.06 496.26 448.18 492.67L448.17 492.66ZM377.74 633.6C372.82 633.55 368.53 633.39 364.23 633.69C363.35 633.75 362.52 634.05 361.73 634.46C358.68 636.04 357.55 638.69 357.55 641.96C357.54 653.7 357.53 665.43 357.53 677.17C357.53 677.62 357.34 678.14 357.83 678.46C358.23 678.58 358.45 678.31 358.66 678.1C362.78 673.98 367 669.95 370.99 665.71C374.27 662.22 376.08 658.03 375.96 653.12C375.89 650.25 375.93 647.37 375.96 644.5C375.98 640.93 375.52 637.31 377.74 633.61V633.6ZM77.9201 398.97C78.5701 399.21 78.7201 399.32 78.8701 399.32C91.0901 399.32 103.32 399.35 115.54 399.28C119.94 399.25 123.05 396.05 123.13 391.67C123.2 388.08 123.15 384.48 123.14 380.89C123.14 380.42 123.22 379.92 122.53 379.41C119.57 381.38 116.09 380.9 112.67 380.92C109.63 380.95 106.6 380.95 103.56 380.92C99.6801 380.89 96.0601 381.84 93.0501 384.3C87.6701 388.69 83.1701 393.99 77.9201 398.98V398.97ZM148.88 469.85C149.37 469.9 149.68 469.95 149.99 469.95C161.73 469.95 173.47 469.94 185.2 469.92C185.76 469.92 186.32 469.93 186.87 469.87C190.5 469.46 193.52 466.67 193.64 463.23C193.79 459.01 193.64 454.78 193.6 450.55C193.6 450.43 193.41 450.32 193.18 450.04C190.57 451.62 187.61 451.54 184.65 451.51C181.3 451.48 177.94 451.57 174.59 451.49C169.14 451.36 164.66 453.44 160.87 457.24C157.37 460.74 153.86 464.23 150.38 467.75C149.84 468.29 149.1 468.71 148.86 469.84L148.88 469.85ZM145.34 466.56C146.53 466.32 146.88 465.75 147.32 465.31C151.11 461.54 154.9 457.76 158.67 453.96C162.16 450.45 163.91 446.23 163.87 441.25C163.84 437.1 163.85 432.95 163.87 428.8C163.88 426.88 164 424.97 164.9 423.2C165.1 422.8 165.43 422.38 165.2 422.04C160.71 421.94 156.34 421.77 151.97 421.78C150.62 421.78 149.42 422.54 148.33 423.44C146.09 425.29 145.45 427.7 145.46 430.48C145.5 441.18 145.48 451.88 145.46 462.57C145.46 463.84 145.38 465.1 145.33 466.56H145.34ZM286.69 183.73C287.52 183.56 287.86 182.98 288.3 182.54C292.15 178.71 295.97 174.84 299.84 171.02C303.34 167.57 304.96 163.37 304.98 158.52C305 154.04 305 149.57 304.98 145.09C304.98 143.54 305.25 142.08 305.87 140.66C306.56 139.08 306.49 138.97 304.71 138.95C301.27 138.92 297.84 138.88 294.4 138.95C289.77 139.05 286.65 142.03 286.63 146.63C286.58 158.93 286.66 171.24 286.69 183.7V183.73ZM148.86 257.7C150.37 257.75 151.72 257.83 153.07 257.83C163.94 257.83 174.8 257.85 185.67 257.83C189.57 257.82 192.54 255.82 193.25 252.15C194.15 247.54 193.55 242.84 193.56 237.73C189.99 239.93 186.44 239.38 182.96 239.42C179.84 239.46 176.73 239.37 173.61 239.45C169.04 239.57 165.03 241.1 161.76 244.4C157.88 248.31 153.96 252.2 150.07 256.1C149.63 256.54 149.07 256.9 148.85 257.71L148.86 257.7ZM476.14 309.22C475.82 309.08 475.51 309.11 475.22 309.27C473.4 310.26 471.43 310.41 469.4 310.39C465.24 310.35 461.08 310.33 456.92 310.39C452 310.46 447.7 312.07 444.19 315.65C440.38 319.53 436.5 323.34 432.67 327.2C432.25 327.62 431.61 327.94 431.63 328.32C432.94 328.48 434.19 328.76 435.44 328.76C446.48 328.79 457.52 328.81 468.55 328.76C473.21 328.74 476.35 325.56 476.41 320.9C476.45 317.54 476.42 314.18 476.41 310.82C476.41 310.27 476.5 309.69 476.12 309.21L476.14 309.22ZM145.83 254.42C149.99 250.26 154.07 246.09 158.24 242.04C162.02 238.37 163.78 233.94 163.77 228.73C163.76 224.58 163.79 220.42 163.76 216.27C163.75 214.49 163.96 212.79 164.7 211.14C165.29 209.82 165.15 209.6 163.74 209.58C160.47 209.54 157.19 209.67 153.92 209.54C148.29 209.33 145.24 213.59 145.32 218.2C145.5 229.94 145.35 241.68 145.34 253.42C145.34 253.72 145.23 254.06 145.84 254.43L145.83 254.42ZM74.8701 395.62C75.7301 395.3 76.2001 394.64 76.7401 394.1C80.2501 390.61 83.6701 387.02 87.2701 383.62C91.4401 379.69 93.2801 374.92 93.1601 369.25C93.0801 365.26 93.1601 361.26 93.1401 357.27C93.1401 355.74 93.3201 354.26 93.8801 352.81C94.5801 351.03 94.4201 350.81 92.4101 350.78C89.3701 350.74 86.3401 350.83 83.3001 350.76C77.7201 350.63 74.6101 354.63 74.6901 359.42C74.8801 370.28 74.7501 381.15 74.7501 392.01C74.7501 393.17 74.8201 394.33 74.8601 395.62H74.8701ZM404.91 419.7C403.26 420.12 402.12 420.41 400.97 420.7C396.34 421.89 391.62 421.9 386.91 421.68C382.59 421.47 379.76 424.47 379.92 428.56C380.12 433.58 379.92 438.62 379.9 443.66C379.9 443.87 380.02 444.09 380.09 444.31C381.68 443.43 402.26 423.1 404.91 419.7ZM545.76 349.61C545.72 349.48 545.67 349.36 545.63 349.23C544.49 349.52 543.36 349.81 542.22 350.09C537.51 351.25 532.69 351.37 527.91 351.07C524.13 350.84 520.94 354.17 521.13 357.76C521.39 362.54 521.17 367.35 521.18 372.15C521.18 372.66 520.9 373.27 521.6 373.77L545.76 349.61ZM333.87 561.18C331.6 561.67 329.37 562.19 327.1 562.56C323.37 563.17 319.61 563.01 315.87 562.92C311.96 562.83 309.11 566.12 309.3 569.54C309.54 573.92 309.34 578.32 309.36 582.71C309.36 583.63 309.12 584.58 309.42 585.54C311.1 584.62 331.05 564.96 333.87 561.18ZM616.42 420.24C616.35 420.11 616.29 419.97 616.22 419.84C614.99 420.15 613.77 420.46 612.54 420.77C607.99 421.92 603.34 421.72 598.7 421.74C594.04 421.77 591.82 424.02 591.79 428.71C591.76 433.59 591.76 438.46 591.75 443.34C591.75 443.71 591.64 444.17 592.27 444.37C600.29 436.35 608.35 428.29 616.41 420.23L616.42 420.24ZM475.44 490.61C473.78 490.55 472.67 491.07 471.52 491.35C467.04 492.43 462.48 492.54 457.94 492.31C453.73 492.1 450.26 494.52 450.52 499.8C450.75 504.42 450.55 509.06 450.55 513.7C450.55 514.14 450.34 514.68 451.07 514.98C459.09 506.96 467.14 498.91 475.44 490.61ZM382.81 235.41C384.17 235.86 385.2 235.63 386.21 235.64C390.53 235.66 394.85 235.68 399.17 235.64C403.4 235.59 405.63 233.31 405.71 229.04C405.72 228.48 405.73 227.92 405.71 227.36C405.56 222.22 405.89 217.13 407.38 212.16C407.48 211.82 407.69 211.38 407.14 211.09C399.12 219.11 391.1 227.13 382.81 235.42V235.41ZM380 656.33C382.41 654.66 403.54 633.4 404.49 631.74C403.95 631.86 403.48 631.93 403.03 632.07C398.77 633.31 394.41 633.7 390 633.58C388.64 633.54 387.28 633.53 385.93 633.6C382.32 633.8 380.03 636.15 379.97 639.77C379.92 642.8 379.95 645.84 379.96 648.87C379.96 651.25 379.99 653.64 380.01 656.33H380ZM337.02 351.92C331.23 356.89 313.3 375.19 312.54 376.97C313.82 376.93 315.01 376.87 316.19 376.87C320.42 376.86 324.65 376.92 328.87 376.84C332.67 376.77 334.92 374.47 335.08 370.67C335.13 369.56 335.12 368.44 335.09 367.32C335.01 363.8 335.18 360.3 335.88 356.84C336.18 355.37 336.55 353.91 337.01 351.92H337.02ZM336.91 140.61C335.28 141.45 313.94 162.66 312.55 164.76C312.59 164.82 312.63 164.94 312.68 164.94C318.35 165.15 324.02 165.17 329.68 164.94C332.81 164.81 334.86 162.41 335.06 159.2C335.16 157.61 335.13 156 335.09 154.4C334.98 150.29 335.39 146.25 336.51 142.29C336.66 141.76 336.76 141.21 336.9 140.6L336.91 140.61ZM266.33 281.84C266.21 281.81 266.08 281.78 265.96 281.75C257.92 289.79 249.88 297.83 241.84 305.87C242.06 306.07 242.18 306.25 242.29 306.25C247.79 306.25 253.3 306.35 258.8 306.21C262.05 306.12 264.23 303.76 264.46 300.5C264.54 299.39 264.5 298.27 264.49 297.15C264.44 292.99 264.51 288.85 265.61 284.8C265.87 283.82 266.1 282.83 266.34 281.85L266.33 281.84ZM195.33 423.25C194.92 423.14 194.72 423.42 194.5 423.63C186.8 431.41 178.91 439 171.37 446.93C171.33 446.97 171.35 447.08 171.37 447.15C171.39 447.22 171.44 447.29 171.46 447.33C177.05 447.38 182.64 447.53 188.22 447.42C191.48 447.36 193.65 444.96 193.86 441.68C193.95 440.33 193.92 438.96 193.89 437.6C193.8 433.26 194.11 428.98 195.3 424.78C195.44 424.3 195.82 423.75 195.35 423.25H195.33ZM404.33 208.16C403.86 207.81 403.56 207.95 403.26 208.03C399.16 209.23 394.98 209.76 390.7 209.66C388.94 209.62 387.18 209.58 385.42 209.7C382.3 209.91 380.26 211.87 379.83 214.96C379.72 215.75 379.7 216.55 379.7 217.35C379.68 221.91 379.68 226.47 379.68 231.02C379.68 231.46 379.47 232.01 380.19 232.28C388.18 224.29 396.2 216.27 404.31 208.16H404.33ZM262.99 278.67C262.61 278.34 262.24 278.6 261.89 278.7C257.95 279.83 253.94 280.39 249.84 280.28C248.17 280.24 246.49 280.22 244.82 280.3C240.68 280.51 238.55 282.7 238.51 286.85C238.46 291.88 238.48 296.9 238.47 301.93C238.47 302.24 238.43 302.57 238.74 302.78C240.31 301.85 261.47 280.82 263.01 278.67H262.99ZM125.09 352.74C124.31 352.55 124.1 352.82 123.89 353.03C116.18 360.8 108.3 368.4 100.75 376.33C100.71 376.37 100.72 376.48 100.74 376.55C100.76 376.62 100.8 376.69 100.9 376.88C106.02 376.88 111.21 376.93 116.39 376.9C120.96 376.87 123.21 374.72 123.24 370.12C123.28 364.29 123.11 358.46 125.09 352.75V352.74ZM309.36 373.39C311.25 372.2 332.56 350.83 333.6 349.01C330.72 349.82 327.93 350.57 325.06 350.73C322.11 350.9 319.15 350.81 316.19 350.88C315.32 350.9 314.42 350.96 313.58 351.16C311.36 351.68 309.93 353.09 309.4 355.31C309.18 356.23 309.13 357.21 309.12 358.16C309.08 362.88 309.08 367.59 309.08 372.31C309.08 372.69 308.95 373.11 309.37 373.39H309.36ZM192.24 420.25C192.17 420.11 192.11 419.97 192.04 419.83C190.35 420.2 188.67 420.62 186.97 420.94C182.78 421.73 178.54 421.68 174.31 421.62C172.65 421.6 171.15 421.95 169.87 423.07C168.37 424.38 167.87 426.1 167.87 428.01C167.87 433.04 167.85 438.08 167.85 443.11C167.85 443.5 167.8 443.92 168.42 444.07C176.34 436.15 184.29 428.2 192.25 420.24L192.24 420.25ZM453.57 518.32C457.76 518.33 461.34 518.36 464.92 518.35C466.91 518.35 468.92 518.43 470.9 518.25C474.39 517.93 476.33 515.74 476.41 512.22C476.43 511.26 476.41 510.3 476.41 509.35C476.42 504.47 476.66 499.61 478.12 494.9C478.21 494.62 478.33 494.26 477.81 494.05C469.86 502 461.89 509.97 453.55 518.31L453.57 518.32ZM262.94 490.77C262.3 490.32 261.92 490.51 261.56 490.62C258.87 491.46 256.11 491.82 253.32 492.08C250.29 492.37 247.25 492.15 244.22 492.26C241.19 492.37 239.13 494.2 238.65 497.18C238.52 497.96 238.5 498.77 238.49 499.57C238.47 504.2 238.46 508.84 238.46 513.47C238.46 513.91 238.27 514.46 239.02 514.69C246.94 506.77 254.9 498.81 262.94 490.77ZM312.87 588.72C313.24 589.18 313.75 588.97 314.2 588.97C318.6 588.97 322.99 588.97 327.39 588.95C328.19 588.95 328.99 588.95 329.78 588.87C333.04 588.5 334.98 586.47 335.18 583.19C335.25 582.08 335.22 580.95 335.2 579.83C335.11 575.09 335.46 570.41 336.79 565.83C336.89 565.48 337.1 565.07 336.7 564.74C334.61 566.19 313.8 587.12 312.86 588.71L312.87 588.72ZM241.73 518.34C246.03 518.34 249.69 518.36 253.36 518.35C255.36 518.35 257.36 518.46 259.35 518.2C262.53 517.78 264.37 515.83 264.55 512.63C264.62 511.43 264.59 510.23 264.57 509.03C264.47 504.45 264.84 499.93 266.11 495.5C266.23 495.08 266.51 494.61 266.04 494.03C258.06 502.01 250.09 509.98 241.73 518.34ZM450.73 302.72C452.67 301.44 473.84 280.14 474.84 278.33C468.91 280.28 462.94 280.62 456.94 280.37C452.93 280.2 450.24 283.1 450.42 286.87C450.68 292.13 450.64 297.4 450.73 302.72ZM548.92 353.09C548.77 353 548.62 352.91 548.48 352.82C540.51 360.79 532.53 368.77 524.57 376.73C524.72 376.91 524.77 377.02 524.82 377.02C530.33 377.02 535.85 377.05 541.36 376.96C544.81 376.9 547 374.65 547.02 371.14C547.04 365.06 546.99 358.99 548.93 353.1L548.92 353.09ZM453.79 306.23C456.65 306.28 459.12 306.33 461.59 306.36C464.06 306.38 466.54 306.25 469.01 306.39C474.12 306.67 476.7 304.21 476.45 298.9C476.21 293.62 476.53 288.37 478.05 283.26C478.15 282.91 478.31 282.49 477.75 282.28C469.83 290.2 461.9 298.13 453.79 306.24V306.23ZM407.25 423.43C402.19 427.68 384.18 446.08 383.71 447.24C385.71 447.35 387.86 447.53 390.01 447.56C393.28 447.62 396.56 447.62 399.83 447.56C403.63 447.48 405.69 445.37 405.8 441.55C405.82 440.67 405.82 439.79 405.8 438.92C405.69 434.11 406.04 429.35 407.39 424.7C407.49 424.34 407.67 423.95 407.26 423.43H407.25ZM333.09 137.56C333.01 137.4 332.93 137.25 332.85 137.09C327.13 138.99 321.23 138.99 315.32 138.96C311.26 138.94 309.03 141.26 309 145.4C308.96 150.11 308.97 154.82 309 159.52C309 160.11 308.66 160.78 309.3 161.36C317.25 153.41 325.18 145.48 333.1 137.56H333.09ZM167.81 232.16C176.03 223.94 183.95 216.02 192.18 207.79C189.56 208.3 187.4 208.78 185.23 209.14C181.66 209.72 178.06 209.5 174.47 209.54C169.85 209.58 167.79 211.65 167.76 216.32C167.74 218.72 167.75 221.11 167.76 223.51C167.76 226.28 167.79 229.05 167.81 232.16ZM195.36 211.01C187.12 219.25 179.18 227.19 171.02 235.35C176.54 235.35 181.7 235.39 186.86 235.37C191.51 235.36 193.58 233.29 193.61 228.66C193.64 225.07 193.45 221.47 194.02 217.91C194.37 215.74 194.85 213.59 195.36 211V211.01ZM97.3801 373.2C105.43 365.15 113.35 357.23 121.26 349.32C119.04 349.52 116.98 350.02 114.88 350.36C110.99 350.98 107.07 350.64 103.17 350.76C99.4501 350.87 97.2401 353.08 97.1801 356.8C97.1201 360.31 97.1401 363.82 97.1801 367.34C97.2001 369.23 97.3101 371.12 97.3901 373.2H97.3801Z" fill="#575EFF"/>
<path d="M352.31 704.96C353.22 704.4 354.12 704.36 355.03 704.96L353.67 706.32L352.31 704.96Z" fill="#575EFF"/>
</g>
<defs>
<clipPath id="clip0_329_3812">
<rect width="705.64" height="706.31" fill="white"/>
</clipPath>
</defs>
</svg>
