<svg width="600" height="348" viewBox="0 0 600 348" fill="none" xmlns="http://www.w3.org/2000/svg">
<g clip-path="url(#clip0_329_3805)">
<path d="M302.768 348L0 173.141L302.758 0L303.758 0.579301L599.99 173.141L302.758 347.99L302.768 348ZM8.01546 173.161L302.738 343.376L592.084 173.161L302.748 4.61443L8.01546 173.161Z" fill="#FFEBB7"/>
<path d="M302.299 318.346L301.289 317.766L50.5513 173.291L302.299 29.6542L303.298 30.2335L549.449 173.291L302.299 318.346ZM58.5867 173.311L302.279 313.721L541.523 173.311L302.279 34.2586L58.5867 173.311Z" fill="#FFEBB7"/>
<path d="M301.809 288.662L103.891 173.441L301.809 59.3284L496.109 173.431L301.809 288.662ZM111.857 173.451L301.789 284.027L488.243 173.451L301.789 63.9528L111.857 173.451Z" fill="#FFEBB7"/>
<path d="M301.309 258.738L157.391 173.58L301.309 89.2623L442.589 173.58L301.309 258.738ZM165.266 173.6L301.289 254.083L434.823 173.6L301.289 93.9067L165.266 173.6Z" fill="#FFEBB7"/>
<path d="M300.839 227.905L208.852 173.73L300.839 120.085L301.849 120.684L391.148 173.73L300.839 227.905ZM216.747 173.75L300.819 223.261L383.353 173.75L300.819 124.729L216.747 173.75Z" fill="#FFEBB7"/>
<path d="M300.35 197.392L261.932 173.89L300.35 150.618L338.069 173.89L300.35 197.392ZM269.617 173.9L300.33 192.687L330.483 173.9L300.33 155.293L269.617 173.9Z" fill="#FFEBB7"/>
</g>
<defs>
<clipPath id="clip0_329_3805">
<rect width="600" height="348" fill="white"/>
</clipPath>
</defs>
</svg>
