<svg width="612" height="481" viewBox="0 0 612 481" fill="none" xmlns="http://www.w3.org/2000/svg">
<g clip-path="url(#clip0_282_3130)">
<path d="M156.349 86.06C164.759 86.06 171.569 84.63 171.569 82.86V18.1C170.239 19.1 163.819 19.85 156.089 19.85C149.089 19.85 143.169 19.23 141.119 18.37V82.85C141.119 84.62 147.929 86.05 156.339 86.05L156.349 86.06Z" fill="#F7EBCB"/>
<path d="M156.349 7.92C147.944 7.92 141.129 6.14705 141.129 3.96C141.129 1.77295 147.944 0 156.349 0C164.755 0 171.569 1.77295 171.569 3.96C171.569 6.14705 164.755 7.92 156.349 7.92Z" fill="#000356"/>
<path d="M156.1 20.27C163.82 20.27 170.25 19.33 171.58 18.1V3.95996C171.58 6.14996 164.77 7.91996 156.36 7.91996C147.95 7.91996 141.14 6.14996 141.14 3.95996V18.44C143.18 19.5 149.11 20.27 156.11 20.27H156.1Z" fill="#FFF7EC"/>
<path d="M156.1 23.7C161.92 23.7 167.28 23.24 171.58 22.46C177.7 21.35 181.64 19.6 181.64 17.63C181.64 15.66 177.69 13.91 171.58 12.8V18.1C170.25 19.33 163.83 20.27 156.1 20.27C149.1 20.27 143.18 19.5 141.13 18.44V12.71C134.72 13.81 130.56 15.6 130.56 17.62C130.56 19.64 134.73 21.43 141.13 22.54C145.33 23.27 150.51 23.69 156.1 23.69V23.7Z" fill="#FFBF62"/>
<path d="M171.58 17.16V18.11C171.75 17.96 171.83 17.8 171.83 17.64C171.83 17.48 171.74 17.32 171.58 17.17V17.16Z" fill="white"/>
<path d="M156.1 91.73C170.21 91.73 181.64 89.01 181.64 85.66V17.63C181.64 20.98 170.2 23.7 156.1 23.7C155.69 23.7 155.28 23.7 154.87 23.7C141.33 23.55 130.55 20.89 130.55 17.64V85.67C130.55 89.02 141.99 91.74 156.09 91.74L156.1 91.73Z" fill="#FFEBB7"/>
<path opacity="0.67" d="M156.1 91.73C170.21 91.73 181.64 89.01 181.64 85.66V17.63C181.64 20.98 170.2 23.7 156.1 23.7C155.69 23.7 155.28 23.7 154.87 23.7C160.57 30.01 166.04 40.33 166.04 56.69C166.04 84.46 140.18 83.57 130.56 82.28V85.68C130.56 89.03 142 91.75 156.1 91.75V91.73Z" fill="#FFBF62"/>
<path d="M220.8 86.06C229.21 86.06 236.02 84.63 236.02 82.86V18.1C234.69 19.1 228.27 19.85 220.54 19.85C213.54 19.85 207.62 19.23 205.57 18.37V82.85C205.57 84.62 212.38 86.05 220.79 86.05L220.8 86.06Z" fill="#F7EBCB"/>
<path d="M220.8 7.92C212.394 7.92 205.58 6.14705 205.58 3.96C205.58 1.77295 212.394 0 220.8 0C229.205 0 236.02 1.77295 236.02 3.96C236.02 6.14705 229.205 7.92 220.8 7.92Z" fill="#000356"/>
<path d="M220.55 20.27C228.27 20.27 234.7 19.33 236.03 18.1V3.95996C236.03 6.14996 229.22 7.91996 220.81 7.91996C212.4 7.91996 205.59 6.14996 205.59 3.95996V18.44C207.63 19.5 213.56 20.27 220.56 20.27H220.55Z" fill="#FFF7EC"/>
<path d="M220.55 23.7C226.37 23.7 231.73 23.24 236.03 22.46C242.15 21.35 246.09 19.6 246.09 17.63C246.09 15.66 242.14 13.91 236.03 12.8V18.1C234.7 19.33 228.28 20.27 220.55 20.27C213.55 20.27 207.63 19.5 205.58 18.44V12.71C199.17 13.81 195.01 15.6 195.01 17.62C195.01 19.64 199.18 21.43 205.58 22.54C209.78 23.27 214.96 23.69 220.55 23.69V23.7Z" fill="#FFBF62"/>
<path d="M236.03 17.16V18.11C236.2 17.96 236.28 17.8 236.28 17.64C236.28 17.48 236.19 17.32 236.03 17.17V17.16Z" fill="white"/>
<path d="M220.55 91.73C234.66 91.73 246.09 89.01 246.09 85.66V17.63C246.09 20.98 234.65 23.7 220.55 23.7C220.14 23.7 219.73 23.7 219.32 23.7C205.78 23.55 195 20.89 195 17.64V85.67C195 89.02 206.44 91.74 220.54 91.74L220.55 91.73Z" fill="#FFEBB7"/>
<path opacity="0.67" d="M220.55 91.73C234.66 91.73 246.09 89.01 246.09 85.66V17.63C246.09 20.98 234.65 23.7 220.55 23.7C220.14 23.7 219.73 23.7 219.32 23.7C225.02 30.01 230.49 40.33 230.49 56.69C230.49 84.46 204.63 83.57 195.01 82.28V85.68C195.01 89.03 206.45 91.75 220.55 91.75V91.73Z" fill="#FFBF62"/>
<path d="M23.3901 144.22V250.78C23.3901 267.06 35.6501 280.26 50.7801 280.26H77.1201V114.74H50.7801C35.6501 114.74 23.3901 127.94 23.3901 144.22Z" fill="#575EFF"/>
<path d="M59.21 139.12V360.75H232.5V226.41C232.5 225.38 232.76 224.41 233.2 223.58C234.11 221.88 235.81 220.74 237.77 220.74H421.54V82.4301H111.89C82.8 82.4301 59.21 107.81 59.21 139.12Z" fill="#000356"/>
<path opacity="0.65" d="M233.2 192.17V223.58C234.11 221.88 235.81 220.74 237.77 220.74H421.54V82.4301H405.99V192.17H233.2Z" fill="#575EFF"/>
<path d="M413.99 85.1301V218.04C413.99 222.97 419.02 226.98 425.23 226.98H484.4C490.61 226.98 495.64 222.98 495.64 218.04V85.1301C495.64 80.2001 490.61 76.1901 484.4 76.1901H425.23C419.02 76.1901 413.99 80.1901 413.99 85.1301Z" fill="#575EFF"/>
<path d="M454.82 61.6501V241.53C454.82 248.21 459.85 253.62 466.06 253.62H525.23C531.44 253.62 536.47 248.2 536.47 241.53V61.6501C536.47 54.9701 531.44 49.5601 525.23 49.5601H466.06C459.85 49.5601 454.82 54.9801 454.82 61.6501Z" fill="#000356"/>
<path opacity="0.65" d="M502.75 92.0701V211.67C502.75 215.74 505.82 219.04 509.6 219.04C513.38 219.04 516.45 215.74 516.45 211.67V92.0701C516.45 88.0001 513.38 84.7001 509.6 84.7001C507.71 84.7001 506 85.5201 504.76 86.8601C503.52 88.2001 502.75 90.0301 502.75 92.0701Z" fill="#575EFF"/>
<path opacity="0.65" d="M477.47 92.0701V136C477.47 140.07 480.54 143.37 484.32 143.37C488.1 143.37 491.17 140.07 491.17 136V92.0701C491.17 88.0001 488.1 84.7001 484.32 84.7001C482.43 84.7001 480.72 85.5201 479.48 86.8601C478.24 88.2001 477.47 90.0301 477.47 92.0701Z" fill="#575EFF"/>
<path d="M144.5 264C107.773 264 78 234.227 78 197.5C78 160.773 107.773 131 144.5 131C181.227 131 211 160.773 211 197.5C211 234.227 181.227 264 144.5 264Z" fill="white"/>
<path d="M144.42 246.16C117.656 246.16 95.9599 224.482 95.9599 197.74C95.9599 170.998 117.656 149.32 144.42 149.32C171.184 149.32 192.88 170.998 192.88 197.74C192.88 224.482 171.184 246.16 144.42 246.16Z" fill="#8086FF"/>
<path d="M144.42 231.16C125.946 231.16 110.97 216.197 110.97 197.74C110.97 179.283 125.946 164.32 144.42 164.32C162.894 164.32 177.87 179.283 177.87 197.74C177.87 216.197 162.894 231.16 144.42 231.16Z" fill="#BBAFFF"/>
<path d="M10.5399 394.38V444.62H596.34V394.38C596.34 375.81 582.34 360.75 565.08 360.75H41.7899C24.5299 360.75 10.5298 375.81 10.5298 394.38H10.5399Z" fill="#8086FF"/>
<path d="M-0.000183105 447.64V477.87C-0.000183105 479.54 1.25981 480.89 2.80981 480.89H608.28C609.83 480.89 611.09 479.54 611.09 477.87V447.64C611.09 445.97 609.83 444.62 608.28 444.62H2.80981C1.25981 444.62 -0.000183105 445.97 -0.000183105 447.64Z" fill="#000356"/>
</g>
<defs>
<clipPath id="clip0_282_3130">
<rect width="611.09" height="480.9" fill="white" transform="matrix(-1 0 0 1 611.09 0)"/>
</clipPath>
</defs>
</svg>
