<svg width="360" height="160" viewBox="0 0 360 160" fill="none" xmlns="http://www.w3.org/2000/svg">
<rect width="360" height="160" rx="15" fill="#151745"/>
<rect width="180" height="160" rx="15" fill="white"/>
<path d="M255.857 39C250.994 39 246.331 39.8421 242 41.3863C257.905 47.0554 269.287 62.2015 269.287 80C269.287 97.7985 257.905 112.945 242 118.614C246.331 120.156 250.994 121 255.857 121C278.579 121 297 102.643 297 80C297 57.357 278.579 39 255.857 39Z" fill="#232562"/>
<path d="M123.482 93.0748C123.847 92.1393 124.174 91.1851 124.462 90.2135C124.54 89.9473 124.755 89.7431 125.025 89.6833L148 84.5866L129.244 76.514L139.185 70.5736L124.31 69.2904C123.91 68.001 123.438 66.7426 122.901 65.5202C122.789 65.2655 122.822 64.9705 122.992 64.7487L137.802 45.4296L117.173 51.6403L120.578 41.8328L109.382 49.7031C108.409 49.077 107.402 48.4963 106.367 47.9651C106.123 47.8402 105.964 47.5958 105.952 47.3214L104.85 22L91.7489 41.9968L87.8719 31.7941L84.5029 44.4466C83.9599 44.5301 83.421 44.624 82.8874 44.7323C82.6257 44.7849 82.3557 44.6993 82.1754 44.5023L64.5635 25.2565L67.6462 51.3804C67.6493 51.4051 67.6493 51.4309 67.6503 51.4557L56.3706 45.1521L61.961 57.1145C61.9146 57.1166 61.8683 57.1166 61.8219 57.1104L35.7925 53.6765L54.6954 71.4875C54.8911 71.6711 54.9725 71.9445 54.9148 72.2075C54.8581 72.4654 54.8046 72.7253 54.7531 72.9852L40.8142 75.6548L52.3174 81.0073L32 93.963L57.0846 95.3947C57.3597 95.4102 57.6018 95.5742 57.7234 95.8217C57.9109 96.2055 58.1067 96.584 58.3076 96.9595L48.4827 109.033L61.8384 105.431L54.9591 127.265L74.3019 112.811C74.5255 112.644 74.8201 112.615 75.0736 112.731C75.2292 112.802 75.3868 112.873 75.5434 112.942L75.7855 129.668L85.0108 116.439L93.928 138L99.2289 115.482L109.949 127.903L108.439 110.878C108.702 110.72 108.965 110.559 109.224 110.394C109.454 110.248 109.742 110.233 109.983 110.359L130.671 121.144L121.208 102.338L134.986 104.565L123.479 93.0748H123.482Z" fill="#FFCD7E"/>
</svg>
