<svg width="1162" height="425" viewBox="0 0 1162 425" fill="none" xmlns="http://www.w3.org/2000/svg">
<path d="M1012.39 63C994.704 63 977.748 66.081 962 71.7305C1019.84 92.4709 1061.22 147.883 1061.22 213C1061.22 278.117 1019.84 333.529 962 354.27C977.748 359.913 994.704 363 1012.39 363C1095.01 363 1162 295.84 1162 213C1162 130.16 1095.01 63 1012.39 63Z" fill="#FFEBB7"/>
<path d="M335.171 260.404C336.508 256.976 337.708 253.48 338.761 249.92C339.048 248.945 339.837 248.197 340.826 247.977L425 229.304L356.284 199.728L392.703 177.964L338.206 173.262C336.738 168.538 335.009 163.928 333.042 159.449C332.631 158.516 332.752 157.435 333.374 156.622L387.637 85.8413L312.054 108.596L324.53 72.6631L283.513 101.499C279.946 99.2046 276.258 97.0769 272.464 95.1306C271.57 94.6733 270.989 93.7776 270.943 92.7723L266.908 0L218.908 73.264L204.703 35.8837L192.36 82.2397C190.37 82.5458 188.396 82.8897 186.441 83.2865C185.482 83.4792 184.493 83.1656 183.832 82.4437L119.306 11.931L130.6 107.644C130.612 107.734 130.612 107.829 130.615 107.919L89.2889 84.8246L109.771 128.652C109.601 128.66 109.431 128.66 109.261 128.637L13.895 116.056L83.1511 181.312C83.8683 181.985 84.1665 182.986 83.9551 183.95C83.7475 184.895 83.5512 185.847 83.3625 186.799L32.2933 196.58L74.4389 216.19L0 263.657L91.9048 268.903C92.9127 268.96 93.7998 269.561 94.2452 270.468C94.9322 271.873 95.6494 273.26 96.3855 274.636L60.3891 318.872L109.322 305.675L84.1174 385.67L154.985 332.711C155.805 332.099 156.884 331.993 157.813 332.42C158.383 332.681 158.96 332.938 159.534 333.191L160.421 394.471L194.221 346.007L226.891 425L246.313 342.5L285.589 388.005L280.056 325.629C281.022 325.051 281.984 324.461 282.932 323.857C283.774 323.324 284.831 323.267 285.714 323.728L361.512 363.244L326.84 294.341L377.321 302.5L335.16 260.404H335.171Z" fill="#FFCD7E"/>
</svg>
