<svg width="123" height="119" viewBox="0 0 123 119" fill="none" xmlns="http://www.w3.org/2000/svg">
<g clip-path="url(#clip0_169_1109)">
<path d="M73.15 3.78553L11.5618 70.1784C9.81905 72.0571 9.92927 74.9929 11.808 76.7357L52.5191 114.501C54.3978 116.243 57.3336 116.133 59.0764 114.254L120.665 47.8616C122.407 45.9829 122.297 43.0471 120.418 41.3043L79.7073 3.53936C77.8286 1.79658 74.8928 1.9068 73.15 3.78553Z" fill="#C9DCFF"/>
<path d="M99.8406 0.00972668L9.79785 97.077L32.4005 118.044L122.443 20.9766L99.8406 0.00972668Z" fill="#FFF7EC"/>
<path d="M73.15 3.78553L11.5618 70.1784C9.81905 72.0571 9.92927 74.9929 11.808 76.7357L52.5191 114.501C54.3978 116.243 57.3336 116.133 59.0764 114.254L120.665 47.8616C122.407 45.9829 122.297 43.0471 120.418 41.3043L79.7073 3.53936C77.8286 1.79658 74.8928 1.9068 73.15 3.78553Z" fill="#C9DCFF"/>
<g opacity="0.1">
<path d="M11.5698 70.18C9.82984 72.06 9.93984 75 11.8198 76.74L22.4098 86.56L12.1898 69.5L11.5698 70.17V70.18Z" fill="#0051E6"/>
<path d="M15.0498 66.43L34.8698 98.12L52.5298 114.5C52.6998 114.66 52.8998 114.79 53.0898 114.92L19.8298 61.27L15.0498 66.43Z" fill="#0051E6"/>
<path d="M22.6895 58.19L58.0595 115.06C58.4295 114.84 58.7895 114.58 59.0895 114.25L62.9594 110.08L27.4695 53.04L22.6895 58.2V58.19Z" fill="#0051E6"/>
<path d="M30.3203 49.96L65.8103 107.01L70.5903 101.85L35.1103 44.8L30.3203 49.96Z" fill="#0051E6"/>
<path d="M37.96 41.72L73.45 98.77L78.23 93.61L42.75 36.57L37.96 41.72Z" fill="#0051E6"/>
<path d="M45.5996 33.49L81.0896 90.54L85.8696 85.38L50.3896 28.33L45.5996 33.49Z" fill="#0051E6"/>
<path d="M53.2402 25.25L88.7202 82.3L93.5102 77.14L58.0202 20.09L53.2402 25.25Z" fill="#0051E6"/>
<path d="M60.8799 17.02L96.3599 74.07L101.15 68.91L65.6599 11.86L60.8799 17.02Z" fill="#0051E6"/>
<path d="M73.1495 3.79001L68.5195 8.79001L104.01 65.84L108.8 60.68L73.3095 3.64001C73.2595 3.69001 73.1995 3.73001 73.1495 3.78001V3.79001Z" fill="#0051E6"/>
<path d="M79.7094 3.54C79.0294 2.91 78.2094 2.53 77.3594 2.38L111.639 57.6L116.419 52.44L94.0194 16.82L79.7094 3.55V3.54Z" fill="#0051E6"/>
<path d="M120.42 41.3L106.47 28.36L119.27 49.36L120.66 47.86C122.4 45.98 122.29 43.04 120.41 41.3H120.42Z" fill="#0051E6"/>
</g>
<path opacity="0.1" d="M20.9201 85.0868L16.9893 89.3243L39.5919 110.291L43.5227 106.054L20.9201 85.0868Z" fill="#000456"/>
<path opacity="0.1" d="M31.0198 79.91C25.6798 74.95 21.3498 69.3 18.0198 63.22L11.5698 70.17C9.82984 72.05 9.93984 74.99 11.8198 76.73L52.5298 114.49C54.4098 116.23 57.3498 116.12 59.0898 114.24L74.5798 97.54C58.8398 97.12 43.3198 91.3 31.0298 79.9L31.0198 79.91Z" fill="#000456"/>
<path d="M11 34.83C7.17 31.28 4.16 26.87 2.58 23.64C1.33 21.09 0.51 18.94 0 16.89L3.98 15.89C4.42 17.66 5.15 19.55 6.27 21.84C9.12 27.68 15.34 34.76 21.24 36.39C23.82 37.1 26.13 36.76 28.3 35.35C33.42 32.01 34.4 27.34 35.53 21.94C35.91 20.1 36.31 18.19 36.89 16.25C39.45 7.67998 45.17 1.98998 52.19 1.01998C58.87 0.0999785 65.3 3.69998 69.84 10.89L66.37 13.08C62.73 7.31998 57.76 4.39998 52.74 5.08998C47.44 5.81998 42.87 10.55 40.81 17.43C40.28 19.2 39.9 21.03 39.53 22.79C38.33 28.56 37.08 34.52 30.53 38.79C27.37 40.85 23.87 41.38 20.15 40.35C16.84 39.44 13.71 37.35 11 34.83Z" fill="#C9DCFF"/>
</g>
<defs>
<clipPath id="clip0_169_1109">
<rect width="122.44" height="118.04" fill="white"/>
</clipPath>
</defs>
</svg>
