<svg width="124" height="128" viewBox="0 0 124 128" fill="none" xmlns="http://www.w3.org/2000/svg">
<g clip-path="url(#clip0_169_1129)">
<path d="M116.204 77.836L52.4288 13.5412C50.6241 11.7218 47.6862 11.7099 45.8669 13.5146L6.44229 52.6206C4.62292 54.4253 4.61101 57.3632 6.41568 59.1825L70.191 123.477C71.9957 125.297 74.9335 125.309 76.7529 123.504L116.177 84.3979C117.997 82.5932 118.009 79.6554 116.204 77.836Z" fill="#C9DCFF"/>
<path d="M118.867 104.661L25.627 10.6606L3.7386 32.3721L96.979 126.372L118.867 104.661Z" fill="#FFF7EC"/>
<path d="M116.204 77.836L52.4288 13.5412C50.6241 11.7218 47.6862 11.7099 45.8669 13.5146L6.44229 52.6206C4.62292 54.4253 4.61101 57.3632 6.41568 59.1825L70.191 123.477C71.9957 125.297 74.9335 125.309 76.7529 123.504L116.177 84.3979C117.997 82.5932 118.009 79.6554 116.204 77.836Z" fill="#C9DCFF"/>
<g opacity="0.1">
<path d="M52.4274 13.5494C50.6214 11.7328 47.6793 11.7205 45.8627 13.5265L35.611 23.6992L53.0811 14.1972L52.4374 13.5499L52.4274 13.5494Z" fill="#0051E6"/>
<path d="M56.029 17.1823L23.5425 35.6679L6.44258 52.6317C6.27566 52.7949 6.13746 52.9894 5.99967 53.1738L60.9859 22.1727L56.029 17.1823Z" fill="#0051E6"/>
<path d="M63.9443 25.1583L5.65317 58.1337C5.8576 58.5125 6.10241 58.883 6.41965 59.1965L10.4252 63.2365L68.8911 30.1482L63.9343 25.1579L63.9443 25.1583Z" fill="#0051E6"/>
<path d="M71.8503 33.1238L13.3744 66.2116L18.3312 71.202L76.8067 38.1241L71.8503 33.1238Z" fill="#0051E6"/>
<path d="M79.7656 41.0997L21.2896 74.1875L26.2465 79.1779L84.712 46.0996L79.7656 41.0997Z" fill="#0051E6"/>
<path d="M87.6706 49.0752L29.1947 82.163L34.1515 87.1534L92.6271 54.0756L87.6706 49.0752Z" fill="#0051E6"/>
<path d="M95.5857 57.0511L37.1101 90.129L42.0666 95.1293L100.543 62.0415L95.5857 57.0511Z" fill="#0051E6"/>
<path d="M103.491 65.0266L45.0154 98.1045L49.9718 103.105L108.448 70.017L103.491 65.0266Z" fill="#0051E6"/>
<path d="M116.2 77.836L111.396 73.0021L52.9205 106.09L57.8769 111.09L116.343 78.002C116.295 77.95 116.258 77.8884 116.21 77.8364L116.2 77.836Z" fill="#0051E6"/>
<path d="M116.177 84.4007C116.835 83.7475 117.248 82.944 117.434 82.101L60.8363 114.056L65.7932 119.046L102.314 98.1463L116.167 84.4003L116.177 84.4007Z" fill="#0051E6"/>
<path d="M76.7569 123.506L90.2656 110.106L68.7517 122.022L70.1926 123.473C71.9987 125.29 74.9407 125.302 76.7573 123.496L76.7569 123.506Z" fill="#0051E6"/>
</g>
<path opacity="0.1" d="M37.1447 22.2716L33.0742 18.168L11.1859 39.8795L15.2563 43.9831L37.1447 22.2716Z" fill="#000456"/>
<path opacity="0.1" d="M41.8972 32.5782C47.0748 27.449 52.9 23.3576 59.1131 20.2832L52.4373 13.5499C50.6312 11.7332 47.6892 11.7209 45.8725 13.527L6.45291 52.6322C4.63626 54.4382 4.62396 57.3802 6.43 59.1969L22.4717 75.3677C23.5456 59.6588 30.0057 44.3941 41.9067 32.5886L41.8972 32.5782Z" fill="#000456"/>
</g>
<defs>
<clipPath id="clip0_169_1129">
<rect width="122.44" height="118.04" fill="white" transform="translate(123.027 4.90677) rotate(92.3824)"/>
</clipPath>
</defs>
</svg>
